<?xml version="1.0" standalone="no"?>
<!DOCTYPE svg PUBLIC "-//W3C//DTD SVG 1.1//EN" "http://www.w3.org/Graphics/SVG/1.1/DTD/svg11.dtd" >
<svg xmlns="http://www.w3.org/2000/svg">
<metadata>
<json>
{
	"fontFamily": "DL-icons",
	"majorVersion": 1,
	"minorVersion": 1,
	"description": "DL\nFont generated by IcoMoon.",
	"copyright": "DLG 2014",
	"version": "Version 1.1",
	"fontId": "DL-icons",
	"psName": "DL-icons",
	"subFamily": "Regular",
	"fullName": "DL-icons"
}
</json>
</metadata>
<defs>
<font id="DL-icons" horiz-adv-x="1024">
<font-face units-per-em="1024" ascent="960" descent="-64" />
<missing-glyph horiz-adv-x="1024" />
<glyph unicode="&#x20;" d="" horiz-adv-x="512" />
<glyph unicode="&#xe600;" d="M404.8 625.6c91.2 0 161.6-70.4 161.6-161.6 0-41.6-16-80-40-108.8l38.4-38.4-19.2-19.2-38.4 38.4c-27.2-24-64-36.8-104-36.8-89.6 0-160 73.6-160 164.8 1.6 91.2 72 161.6 161.6 161.6zM404.8 328c28.8 0 60.8 11.2 81.6 28.8l-38.4 40 19.2 19.2 38.4-38.4c17.6 22.4 28.8 54.4 28.8 86.4 0 75.2-56 132.8-129.6 132.8-72 0-128-57.6-128-132.8 0-76.8 56-136 128-136zM619.2 332.8h70.4v230.4c0 9.6 0 17.6 0 17.6h-1.6c0 0-3.2-6.4-16-19.2l-32-33.6-19.2 20.8 72 70.4h28.8v-286.4h68.8v-28.8h-171.2v28.8z" />
<glyph unicode="&#xe601;" d="M382.4 625.6c89.6 0 161.6-70.4 161.6-161.6 0-41.6-16-80-40-108.8l38.4-38.4-19.2-19.2-38.4 38.4c-27.2-24-64-36.8-104-36.8-89.6 0-160 73.6-160 164.8 1.6 91.2 72 161.6 161.6 161.6zM382.4 328c28.8 0 60.8 11.2 81.6 28.8l-38.4 40 19.2 19.2 38.4-38.4c17.6 22.4 28.8 54.4 28.8 86.4 0 75.2-56 132.8-129.6 132.8-72 0-128-57.6-128-132.8 0-76.8 56-136 128-136zM600 324.8c0 110.4 161.6 124.8 161.6 209.6 0 35.2-25.6 60.8-65.6 60.8-46.4 0-70.4-43.2-70.4-43.2l-24 16c0 0 28.8 57.6 96 57.6 60.8 0 96-38.4 96-88 0-105.6-158.4-120-160-204.8h164.8v-28.8h-196.8c-1.6 8-1.6 14.4-1.6 20.8z" />
<glyph unicode="&#xe602;" d="M382.4 625.6c91.2 0 161.6-70.4 161.6-161.6 0-41.6-16-80-40-108.8l38.4-38.4-19.2-19.2-36.8 38.4c-27.2-24-64-36.8-104-36.8-89.6 0-160 73.6-160 164.8 1.6 91.2 70.4 161.6 160 161.6zM382.4 328c28.8 0 60.8 11.2 81.6 28.8l-38.4 40 19.2 19.2 38.4-38.4c17.6 22.4 28.8 54.4 28.8 86.4 0 75.2-56 132.8-129.6 132.8-72 0-128-57.6-128-132.8 1.6-76.8 56-136 128-136zM612.8 366.4c0 0 32-36.8 80-36.8 38.4 0 72 27.2 72 68.8 0 44.8-38.4 67.2-80 67.2h-20.8l-8 17.6 78.4 92.8c8 9.6 16 17.6 16 17.6v1.6c0 0-9.6-1.6-25.6-1.6h-116.8v27.2h184v-20.8l-94.4-108.8c40-1.6 99.2-24 99.2-92.8 0-54.4-43.2-99.2-104-99.2-62.4 0-99.2 43.2-99.2 43.2l19.2 24z" />
<glyph unicode="&#xe603;" d="M374.4 625.6c91.2 0 161.6-70.4 161.6-161.6 0-41.6-16-80-40-108.8l38.4-38.4-19.2-19.2-36.8 38.4c-27.2-24-64-36.8-104-36.8-89.6 0-160 73.6-160 164.8 1.6 91.2 72 161.6 160 161.6zM374.4 328c28.8 0 60.8 11.2 81.6 28.8l-38.4 40 19.2 19.2 38.4-38.4c17.6 22.4 28.8 54.4 28.8 86.4 0 75.2-56 132.8-129.6 132.8-72 0-128-57.6-128-132.8 1.6-76.8 57.6-136 128-136zM580.8 412.8l155.2 208h33.6v-200h44.8v-27.2h-44.8v-89.6h-30.4v88h-158.4v20.8zM737.6 419.2v131.2c0 12.8 1.6 28.8 1.6 28.8h-1.6c0 0-6.4-12.8-16-24l-105.6-136v-1.6h121.6z" />
<glyph unicode="&#xe604;" d="M512-60.8c-280 0-508.8 228.8-508.8 508.8s228.8 508.8 508.8 508.8 508.8-228.8 508.8-508.8-228.8-508.8-508.8-508.8zM512 915.2c-257.6 0-467.2-209.6-467.2-467.2s209.6-467.2 467.2-467.2 467.2 209.6 467.2 467.2-209.6 467.2-467.2 467.2zM427.2 318.4h70.4v230.4c0 9.6 0 17.6 0 17.6h-1.6c0 0-3.2-6.4-16-19.2l-32-32-19.2 20.8 72 70.4h27.2v-286.4h68.8v-27.2h-169.6v25.6z" />
<glyph unicode="&#xe605;" d="M512-60.8c-280 0-508.8 228.8-508.8 508.8s228.8 508.8 508.8 508.8 508.8-228.8 508.8-508.8-228.8-508.8-508.8-508.8zM512 915.2c-257.6 0-467.2-209.6-467.2-467.2s209.6-467.2 467.2-467.2 467.2 209.6 467.2 467.2-209.6 467.2-467.2 467.2zM412.8 307.2c0 110.4 161.6 124.8 161.6 209.6 0 35.2-25.6 60.8-65.6 60.8-46.4 0-70.4-43.2-70.4-43.2l-24 16c0 0 28.8 57.6 96 57.6 60.8 0 96-38.4 96-88 0-105.6-158.4-120-160-204.8h164.8v-27.2h-196.8c-1.6 6.4-1.6 14.4-1.6 19.2z" />
<glyph unicode="&#xe606;" d="M512-60.8c-280 0-508.8 228.8-508.8 508.8s228.8 508.8 508.8 508.8 508.8-228.8 508.8-508.8-228.8-508.8-508.8-508.8zM512 915.2c-257.6 0-467.2-209.6-467.2-467.2s209.6-467.2 467.2-467.2 467.2 209.6 467.2 467.2-209.6 467.2-467.2 467.2zM428.8 355.2c0 0 32-36.8 80-36.8 38.4 0 72 27.2 72 68.8 0 44.8-38.4 67.2-80 67.2h-20.8l-8 17.6 78.4 92.8c8 9.6 16 17.6 16 17.6v1.6c0 0-9.6-1.6-25.6-1.6h-118.4v25.6h184v-20.8l-94.4-108.8c40-1.6 99.2-24 99.2-92.8 0-54.4-43.2-99.2-104-99.2-62.4 0-99.2 43.2-99.2 43.2l20.8 25.6z" />
<glyph unicode="&#xe607;" d="M1020.8 448c0-280-227.2-508.8-508.8-508.8s-508.8 228.8-508.8 508.8 228.8 508.8 508.8 508.8 508.8-228.8 508.8-508.8zM427.2 291.2h171.2v27.2h-70.4v286.4h-28.8l-72-70.4 19.2-20.8 33.6 33.6c12.8 12.8 16 19.2 16 19.2h1.6c0 0 0-8 0-17.6v-230.4h-70.4v-27.2z" />
<glyph unicode="&#xe608;" d="M1020.8 448c0-280-227.2-508.8-508.8-508.8s-508.8 228.8-508.8 508.8 228.8 508.8 508.8 508.8 508.8-228.8 508.8-508.8zM414.4 288h196.8v27.2h-164.8c0 83.2 160 99.2 160 204.8 0 49.6-35.2 88-96 88-67.2 0-96-57.6-96-57.6l24-16c0 0 24 43.2 70.4 43.2 40 0 65.6-25.6 65.6-60.8 0-84.8-161.6-99.2-161.6-209.6 0-4.8 0-12.8 1.6-19.2z" />
<glyph unicode="&#xe609;" d="M1020.8 448c0-280-227.2-508.8-508.8-508.8s-508.8 228.8-508.8 508.8 228.8 508.8 508.8 508.8 508.8-228.8 508.8-508.8zM409.6 331.2c0 0 38.4-43.2 99.2-43.2 59.2 0 104 44.8 104 99.2 0 68.8-59.2 91.2-99.2 92.8l94.4 108.8v19.2h-182.4v-27.2h118.4c16 0 25.6 1.6 25.6 1.6v-1.6c0 0-8-8-16-17.6l-78.4-92.8 8-17.6h20.8c41.6 0 80-22.4 80-67.2 0-40-35.2-68.8-72-68.8-48 0-80 36.8-80 36.8l-22.4-22.4z" />
<glyph unicode="&#xe60a;" d="M1020.8 448c0-280-227.2-508.8-508.8-508.8s-508.8 228.8-508.8 508.8 228.8 508.8 508.8 508.8 508.8-228.8 508.8-508.8zM395.2 377.6h158.4v-88h30.4v88h44.8v27.2h-44.8v200h-33.6l-155.2-208v-19.2zM433.6 404.8v0l105.6 137.6c8 11.2 16 24 16 24h1.6c0 0-1.6-16-1.6-28.8v-131.2h-121.6z" />
<glyph unicode="&#xe60b;" d="M1020.8 448c0-280-227.2-508.8-508.8-508.8s-508.8 228.8-508.8 508.8 228.8 508.8 508.8 508.8 508.8-228.8 508.8-508.8zM411.2 332.8c0 0 28.8-44.8 92.8-44.8 60.8 0 108.8 44.8 108.8 104 0 57.6-44.8 102.4-108.8 102.4-28.8 0-48-12.8-48-12.8h-1.6c0 0 1.6 6.4 3.2 17.6l9.6 80h124.8v28.8h-152l-17.6-152 19.2-6.4c0 0 24 17.6 57.6 17.6 44.8 0 80-30.4 80-73.6s-35.2-73.6-78.4-73.6c-48 0-72 36.8-72 36.8l-17.6-24z" />
<glyph unicode="&#xe60c;" d="M1020.8 448c0-280-227.2-508.8-508.8-508.8s-508.8 228.8-508.8 508.8 228.8 508.8 508.8 508.8 508.8-228.8 508.8-508.8zM520 284.8c54.4 0 99.2 40 99.2 105.6 0 59.2-40 102.4-97.6 102.4-32 0-64-14.4-80-36.8h-1.6c4.8 60.8 38.4 126.4 105.6 126.4 25.6 0 46.4-11.2 46.4-11.2l11.2 27.2c0 0-22.4 12.8-57.6 12.8-97.6 0-139.2-99.2-139.2-177.6-1.6-86.4 44.8-148.8 113.6-148.8zM518.4 313.6c-46.4 0-80 54.4-80 96 0 25.6 33.6 54.4 76.8 54.4s72-28.8 72-73.6c0-43.2-25.6-76.8-68.8-76.8z" />
<glyph unicode="&#xe60d;" d="M1020.8 448c0-280-227.2-508.8-508.8-508.8s-508.8 228.8-508.8 508.8 228.8 508.8 508.8 508.8 508.8-228.8 508.8-508.8zM436.8 291.2h32l145.6 292.8v20.8h-204.8v-27.2h147.2c16 0 24 1.6 24 1.6v-1.6c0 0-9.6-12.8-17.6-28.8l-126.4-257.6z" />
<glyph unicode="&#xe60e;" d="M1020.8 448c0-280-227.2-508.8-508.8-508.8s-508.8 228.8-508.8 508.8 228.8 508.8 508.8 508.8 508.8-228.8 508.8-508.8zM406.4 380.8c0-59.2 49.6-96 107.2-96 60.8 0 104 41.6 104 91.2 0 32-19.2 52.8-46.4 67.2 3.2 3.2 38.4 40 38.4 84.8 0 49.6-38.4 81.6-96 81.6-64 0-94.4-38.4-94.4-80 0-30.4 16-49.6 38.4-64-6.4-3.2-51.2-33.6-51.2-84.8zM585.6 376c0-36.8-35.2-62.4-72-62.4-38.4 0-75.2 25.6-75.2 68.8 0 40 35.2 65.6 44.8 72 46.4-24 102.4-36.8 102.4-78.4zM451.2 531.2c0 28.8 24 51.2 64 51.2 38.4 0 65.6-20.8 65.6-54.4 0-38.4-27.2-65.6-32-72-48 19.2-97.6 33.6-97.6 75.2z" />
<glyph unicode="&#xe60f;" d="M1020.8 448c0-280-227.2-508.8-508.8-508.8s-508.8 228.8-508.8 508.8 228.8 508.8 508.8 508.8 508.8-228.8 508.8-508.8zM480 284.8c97.6 0 139.2 99.2 139.2 177.6 0 84.8-44.8 147.2-113.6 147.2-54.4 0-99.2-40-99.2-105.6 0-59.2 40-102.4 97.6-102.4 32 0 64 14.4 80 36.8h1.6c-6.4-60.8-38.4-126.4-105.6-126.4-25.6 0-46.4 11.2-46.4 11.2l-11.2-27.2c0 1.6 22.4-11.2 57.6-11.2zM508.8 432c-43.2 0-72 28.8-72 73.6 0 43.2 25.6 75.2 67.2 75.2 46.4 0 80-54.4 80-96 0-25.6-33.6-52.8-75.2-52.8z" />
<glyph unicode="&#xe610;" d="M384 625.6c91.2 0 161.6-70.4 161.6-161.6 0-41.6-16-80-40-108.8l38.4-38.4-19.2-19.2-38.4 38.4c-27.2-24-64-36.8-104-36.8-89.6 0-160 73.6-160 164.8 1.6 91.2 72 161.6 161.6 161.6zM384 328c28.8 0 60.8 11.2 81.6 28.8l-38.4 40 19.2 19.2 38.4-38.4c16 22.4 27.2 54.4 27.2 86.4 0 75.2-56 132.8-129.6 132.8-72 0-128-57.6-128-132.8 1.6-76.8 57.6-136 129.6-136zM617.6 364.8c0 0 24-36.8 72-36.8 43.2 0 78.4 30.4 78.4 73.6s-35.2 73.6-80 73.6c-33.6 0-57.6-17.6-57.6-17.6l-19.2 6.4 17.6 152h152v-24h-124.8l-9.6-80c-1.6-11.2-3.2-17.6-3.2-17.6h1.6c0 0 19.2 12.8 48 12.8 62.4 0 108.8-46.4 108.8-102.4 0-57.6-48-104-108.8-104-62.4 0-92.8 44.8-92.8 44.8l17.6 19.2z" />
<glyph unicode="&#xe611;" d="M376 625.6c91.2 0 161.6-70.4 161.6-161.6 0-41.6-16-80-40-108.8l38.4-38.4-19.2-19.2-38.4 38.4c-27.2-24-64-36.8-104-36.8-89.6 0-160 73.6-160 164.8 1.6 91.2 72 161.6 161.6 161.6zM376 328c28.8 0 60.8 11.2 81.6 28.8l-38.4 40 19.2 19.2 38.4-38.4c17.6 22.4 28.8 54.4 28.8 86.4 0 75.2-56 132.8-129.6 132.8-72 0-128-57.6-128-132.8 0-76.8 56-136 128-136zM595.2 446.4c0 78.4 41.6 177.6 139.2 177.6 35.2 0 57.6-12.8 57.6-12.8l-11.2-27.2c0 0-19.2 11.2-46.4 11.2-65.6 0-99.2-65.6-105.6-126.4h1.6c16 22.4 46.4 36.8 80 36.8 57.6 0 97.6-41.6 97.6-102.4 0-65.6-43.2-105.6-99.2-105.6-68.8 1.6-113.6 64-113.6 148.8zM776 404.8c0 44.8-28.8 73.6-72 73.6-41.6 0-76.8-28.8-76.8-54.4 0-41.6 32-96 80-96 43.2 0 68.8 32 68.8 76.8z" />
<glyph unicode="&#xe612;" d="M392 625.6c91.2 0 161.6-70.4 161.6-161.6 0-41.6-16-80-40-108.8l38.4-38.4-19.2-19.2-36.8 38.4c-27.2-24-64-36.8-104-36.8-89.6 0-160 73.6-160 164.8s70.4 161.6 160 161.6zM392 328c28.8 0 60.8 11.2 81.6 28.8l-38.4 40 19.2 19.2 38.4-38.4c17.6 22.4 28.8 54.4 28.8 86.4 0 75.2-56 132.8-129.6 132.8-72 0-128-57.6-128-132.8 1.6-76.8 56-136 128-136zM753.6 563.2c8 17.6 17.6 28.8 17.6 28.8v0c0 0-8-1.6-24-1.6h-147.2v27.2h204.8v-20.8l-147.2-292.8h-32l128 259.2z" />
<glyph unicode="&#xe613;" d="M1024 448c0-283.2-228.8-512-512-512s-512 228.8-512 512 228.8 512 512 512 512-228.8 512-512zM560 139.2v281.6h94.4l14.4 110.4h-108.8v70.4c0 32 9.6 52.8 54.4 52.8h57.6v97.6c-9.6 1.6-44.8 4.8-84.8 4.8-83.2 0-140.8-51.2-140.8-145.6v-81.6h-94.4v-110.4h94.4v-281.6h113.6z" />
<glyph unicode="&#xe614;" d="M1024 448c0-283.2-228.8-512-512-512s-512 228.8-512 512 228.8 512 512 512 512-228.8 512-512zM868.8 580.8h-105.6v105.6h-35.2v-105.6h-105.6v-35.2h105.6v-105.6h35.2v105.6h105.6v35.2zM513.6 371.2c-16 11.2-44.8 36.8-44.8 52.8 0 17.6 4.8 27.2 33.6 49.6s48 62.4 48 97.6c0 43.2-19.2 107.2-54.4 107.2h54.4l38.4 32c0 0-128 0-171.2 0-76.8 0-148.8-68.8-148.8-136 0-68.8 52.8-129.6 129.6-129.6 4.8 0 11.2-3.2 16-1.6-4.8-9.6-8-22.4-8-33.6 0-19.2 9.6-35.2 24-48-9.6 0-19.2 0-30.4 0-94.4 0-168-60.8-168-123.2s80-100.8 174.4-100.8c108.8 0 168 60.8 168 123.2-1.6 49.6-16 78.4-60.8 110.4zM422.4 457.6c-44.8 1.6-86.4 49.6-92.8 107.2-8 57.6 22.4 102.4 65.6 100.8 44.8-1.6 86.4-48 92.8-105.6 8-57.6-22.4-104-65.6-102.4zM404.8 164.8c-65.6 0-113.6 41.6-113.6 91.2s59.2 89.6 124.8 89.6c16 0 28.8-3.2 43.2-6.4 35.2-24 60.8-38.4 68.8-67.2 1.6-6.4 1.6-11.2 1.6-17.6 0-51.2-32-89.6-124.8-89.6z" />
<glyph unicode="&#xe615;" d="M1024 448c0-283.2-228.8-512-512-512s-512 228.8-512 512 228.8 512 512 512 512-228.8 512-512zM422.4 204.8c211.2 0 328 176 328 328 0 4.8 0 9.6 0 14.4 22.4 16 41.6 36.8 57.6 59.2-20.8-9.6-43.2-16-65.6-17.6 24 14.4 41.6 36.8 51.2 64-22.4-12.8-46.4-22.4-73.6-27.2-20.8 22.4-51.2 36.8-84.8 36.8-64 0-115.2-51.2-115.2-115.2 0-9.6 1.6-17.6 3.2-25.6-96 4.8-180.8 51.2-236.8 120-9.6-17.6-16-36.8-16-57.6 0-40 20.8-75.2 51.2-96-19.2 0-36.8 6.4-52.8 14.4 0 0 0-1.6 0-1.6 0-56 40-102.4 92.8-113.6-9.6-3.2-19.2-4.8-30.4-4.8-8 0-14.4 0-22.4 1.6 14.4-46.4 57.6-78.4 107.2-80-40-30.4-89.6-49.6-142.4-49.6-9.6 0-19.2 0-27.2 1.6 51.2-32 112-51.2 176-51.2z" />
<glyph unicode="&#xe616;" d="M1024 448c0-282.77-229.23-512-512-512s-512 229.23-512 512c0 282.77 229.23 512 512 512s512-229.23 512-512zM796.8 452.8c0 30.4-4.8 110.4-9.6 124.8-11.2 43.2-32 59.2-68.8 65.6-20.8 3.2-124.8 6.4-206.4 6.4v0c-81.6 0-185.6-4.8-206.4-8-36.8-6.4-57.6-22.4-68.8-65.6-3.2-14.4-8-94.4-8-124.8v-6.4c0-30.4 4.8-110.4 9.6-124.8 11.2-43.2 32-59.2 68.8-65.6 20.8-3.2 124.8-6.4 206.4-6.4v0c81.6 0 185.6 4.8 206.4 8 36.8 6.4 57.6 22.4 68.8 65.6 3.2 14.4 8 94.4 8 124.8v6.4zM452.8 368v161.6l150.4-78.4-150.4-83.2z" />
<glyph unicode="&#xe617;" d="M512 960c-281.6 0-512-230.4-512-512s230.4-512 512-512 512 230.4 512 512-230.4 512-512 512zM512-25.6c-260.8 0-473.6 212.8-473.6 473.6s212.8 473.6 473.6 473.6 473.6-212.8 473.6-473.6-212.8-473.6-473.6-473.6zM326.4 483.2v0c16 8 25.6 24 25.6 44.8 0 33.6-24 51.2-59.2 51.2h-70.4v-203.2h73.6c35.2 0 65.6 19.2 65.6 57.6-1.6 24-14.4 43.2-35.2 49.6zM249.6 555.2h41.6c19.2 0 30.4-12.8 30.4-30.4s-11.2-30.4-30.4-30.4h-43.2v60.8zM296 401.6h-46.4v68.8h44.8c20.8 0 35.2-14.4 35.2-35.2 1.6-20.8-11.2-33.6-33.6-33.6zM448 400c3.2 0 4.8 0 4.8 0v-24c0 0-4.8 0-9.6 0-16 0-38.4 4.8-38.4 41.6v161.6h27.2v-158.4c0-17.6 8-20.8 16-20.8zM555.2 526.4c-43.2 0-78.4-32-78.4-76.8s35.2-76.8 78.4-76.8c43.2 0 78.4 32 78.4 76.8s-35.2 76.8-78.4 76.8zM555.2 396.8c-27.2 0-49.6 22.4-49.6 52.8s22.4 51.2 49.6 51.2c27.2 0 49.6-22.4 49.6-51.2 0-30.4-22.4-52.8-49.6-52.8zM776 508.8c0-3.2 0-4.8 0-4.8v0c0 0-11.2 22.4-46.4 22.4-40 0-64-30.4-64-73.6 0-41.6 24-75.2 65.6-75.2 20.8 0 35.2 8 43.2 22.4v0c0 0 0-4.8 0-9.6v-11.2c0-30.4-20.8-41.6-46.4-41.6-22.4 0-40 9.6-40 9.6l-9.6-22.4c14.4-6.4 32-12.8 49.6-12.8 36.8 0 73.6 19.2 73.6 67.2v139.2h-27.2v-9.6zM736 403.2c-25.6 0-41.6 20.8-41.6 51.2s14.4 48 40 48c22.4 0 41.6-11.2 41.6-49.6-1.6-38.4-19.2-49.6-40-49.6z" />
<glyph unicode="&#xe618;" d="M913.6-64l-235.2 92.8c-51.2-19.2-108.8-28.8-166.4-28.8-265.6 0-480 214.4-480 480s214.4 480 480 480 480-214.4 480-480c0-115.2-40-219.2-107.2-302.4l28.8-241.6z" />
<glyph unicode="&#xe619;" d="M913.6-64l-235.2 92.8c-51.2-19.2-108.8-28.8-166.4-28.8-265.6 0-480 214.4-480 480s214.4 480 480 480 480-214.4 480-480c0-115.2-40-219.2-107.2-302.4l28.8-241.6zM758.4 267.2c14.4 20.8 9.6 46.4-4.8 56-8 4.8-92.8 62.4-102.4 67.2-11.2 8-27.2 6.4-43.2-1.6-8-3.2-30.4-17.6-43.2-24-11.2 8-35.2 27.2-72 64s-56 60.8-64 72c6.4 12.8 20.8 35.2 24 43.2 8 16 9.6 33.6 1.6 44.8-6.4 9.6-62.4 94.4-67.2 102.4-11.2 14.4-36.8 17.6-56 4.8 0 0-76.8-54.4-75.2-88 1.6-70.4 54.4-156.8 156.8-259.2s188.8-155.2 259.2-156.8v0c33.6 0 86.4 75.2 86.4 75.2zM672 224v0c0 0 0 0 0 0zM361.6 672c6.4-8 60.8-91.2 67.2-100.8 0-1.6 0-6.4-3.2-12.8-4.8-9.6-28.8-49.6-28.8-51.2l-4.8-8 4.8-8c0-1.6 17.6-30.4 73.6-86.4s84.8-73.6 86.4-73.6l8-4.8 8 4.8c0 0 40 22.4 51.2 28.8 4.8 1.6 8 3.2 12.8 3.2 9.6-6.4 94.4-62.4 100.8-65.6 0 0 1.6-4.8-3.2-11.2-14.4-20.8-49.6-59.2-60.8-62.4-76.8 3.2-171.2 81.6-236.8 147.2s-145.6 160-147.2 236.8c1.6 11.2 40 46.4 62.4 60.8 3.2 3.2 6.4 3.2 8 3.2 0 0 1.6 0 1.6 0z" />
<glyph unicode="&#xe61a;" d="M692.8 124.8c6.4-6.4 6.4-17.6 0-25.6-3.2-3.2-8-4.8-12.8-4.8s-9.6 1.6-12.8 4.8l-336 336c-3.2 3.2-4.8 8-4.8 12.8s1.6 9.6 4.8 12.8l334.4 334.4c6.4 6.4 17.6 6.4 25.6 0 6.4-6.4 6.4-17.6 0-25.6l-323.2-321.6 324.8-323.2z" />
<glyph unicode="&#xe61b;" d="M697.6 448c0-4.8-1.6-9.6-4.8-12.8l-336-336c-3.2-3.2-8-4.8-12.8-4.8s-8 1.6-12.8 4.8c-6.4 6.4-6.4 17.6 0 25.6l324.8 323.2-324.8 323.2c-6.4 6.4-6.4 17.6 0 25.6 6.4 6.4 17.6 6.4 25.6 0l334.4-334.4c4.8-4.8 6.4-9.6 6.4-14.4z" />
<glyph unicode="&#xe61c;" d="M860.8 603.2l-336-336c-3.2-3.2-8-4.8-12.8-4.8 0 0 0 0-1.6 0 0 0 0 0-1.6 0-4.8 0-9.6 1.6-12.8 4.8l-332.8 336c-6.4 6.4-6.4 17.6 0 25.6 6.4 6.4 17.6 6.4 25.6 0l323.2-324.8 323.2 323.2c6.4 6.4 17.6 6.4 25.6 0 6.4-6.4 6.4-17.6 0-24z" />
<glyph unicode="&#xe61d;" d="M733.746 256.172c8.799-8.799 8.799-22.879 0-31.678-3.52-3.52-10.56-7.039-15.84-7.039s-10.56 1.76-15.84 7.039l-190.068 191.828-191.828-190.068c-3.52-3.52-10.56-7.039-15.84-7.039s-10.56 1.76-15.84 7.039c-8.799 8.799-8.799 22.879 0 31.678l191.828 190.068-190.068 191.828c-8.799 8.799-8.799 22.879 0 31.678s22.879 8.799 31.678 0l190.068-191.828 191.828 191.828c8.799 8.799 22.879 8.799 31.678 0s8.799-22.879 0-31.678l-191.828-191.828 190.068-191.828z" />
<glyph unicode="&#xe61e;" d="M747.6 448c0-10.85-9.3-18.6-18.6-18.6h-198.4v-198.4c0-10.85-9.3-18.6-18.6-18.6s-18.6 9.3-18.6 18.6v198.4h-198.4c-10.85 0-18.6 9.3-18.6 18.6s9.3 18.6 18.6 18.6h198.4v198.4c0 10.85 9.3 18.6 18.6 18.6s18.6-9.3 18.6-18.6v-198.4h198.4c10.85 0 18.6-7.75 18.6-18.6z" />
<glyph unicode="&#xe61f;" d="M736 625.6l-243.2-376c-3.2-4.8-8-8-14.4-9.6-1.6 0-1.6 0-3.2 0-4.8 0-9.6 1.6-12.8 4.8l-171.2 155.2c-8 8-9.6 20.8-1.6 28.8s20.8 9.6 28.8 1.6l153.6-139.2 230.4 356.8c6.4 9.6 17.6 11.2 27.2 6.4 9.6-8 12.8-19.2 6.4-28.8z" />
<glyph unicode="&#xe620;" d="M777.6 531.2h-531.2c-11.2 0-19.2 9.6-19.2 19.2s9.6 19.2 19.2 19.2h531.2c11.2 0 19.2-9.6 19.2-19.2s-8-19.2-19.2-19.2zM798.4 344c0 11.2-9.6 19.2-19.2 19.2h-532.8c-11.2 0-19.2-9.6-19.2-19.2s9.6-19.2 19.2-19.2h531.2c11.2-1.6 20.8 8 20.8 19.2z" />
<glyph unicode="&#xe621;" d="M1020.8 448c0-280-227.2-508.8-508.8-508.8s-508.8 228.8-508.8 508.8 228.8 508.8 508.8 508.8 508.8-228.8 508.8-508.8zM540.8 448l174.4 174.4c8 8 8 20.8 0 28.8s-20.8 8-28.8 0l-174.4-174.4-174.4 172.8c-8 8-20.8 8-28.8 0s-8-20.8 0-28.8l174.4-172.8-172.8-174.4c-8-8-8-20.8 0-28.8 3.2-3.2 9.6-6.4 14.4-6.4s9.6 1.6 14.4 6.4l172.8 174.4 174.4-174.4c3.2-3.2 9.6-6.4 14.4-6.4s9.6 1.6 14.4 6.4c8 8 8 20.8 0 28.8l-174.4 174.4z" />
<glyph unicode="&#xe622;" d="M512-60.8c-280 0-508.8 228.8-508.8 508.8s228.8 508.8 508.8 508.8 508.8-228.8 508.8-508.8-228.8-508.8-508.8-508.8zM512 915.2c-257.6 0-467.2-209.6-467.2-467.2s209.6-467.2 467.2-467.2 467.2 209.6 467.2 467.2-209.6 467.2-467.2 467.2zM540.8 448l174.4 174.4c8 8 8 20.8 0 28.8s-20.8 8-28.8 0l-174.4-174.4-174.4 172.8c-8 8-20.8 8-28.8 0s-8-20.8 0-28.8l174.4-172.8-172.8-174.4c-8-8-8-20.8 0-28.8 3.2-3.2 9.6-6.4 14.4-6.4s9.6 1.6 14.4 6.4l172.8 174.4 174.4-174.4c3.2-3.2 9.6-6.4 14.4-6.4s9.6 1.6 14.4 6.4c8 8 8 20.8 0 28.8l-174.4 174.4z" />
<glyph unicode="&#xe623;" d="M512 956.8c-280 0-508.8-228.8-508.8-508.8s228.8-508.8 508.8-508.8 508.8 228.8 508.8 508.8-228.8 508.8-508.8 508.8zM512-19.2c-257.6 0-467.2 209.6-467.2 467.2s209.6 467.2 467.2 467.2 467.2-209.6 467.2-467.2-209.6-467.2-467.2-467.2zM736 625.6l-243.2-376c-3.2-4.8-8-8-14.4-9.6-1.6 0-1.6 0-3.2 0-4.8 0-9.6 1.6-12.8 4.8l-171.2 155.2c-8 8-9.6 20.8-1.6 28.8s20.8 9.6 28.8 1.6l153.6-139.2 230.4 356.8c6.4 9.6 17.6 11.2 27.2 6.4 9.6-8 12.8-19.2 6.4-28.8z" />
<glyph unicode="&#xe624;" d="M512-60.8c-280 0-508.8 228.8-508.8 508.8s228.8 508.8 508.8 508.8 508.8-228.8 508.8-508.8-228.8-508.8-508.8-508.8zM512 915.2c-257.6 0-467.2-209.6-467.2-467.2s209.6-467.2 467.2-467.2 467.2 209.6 467.2 467.2-209.6 467.2-467.2 467.2zM481.6 337.6v30.4c0 28.8 6.4 44.8 22.4 65.6l49.6 67.2c25.6 35.2 33.6 51.2 33.6 76.8 0 41.6-28.8 67.2-70.4 67.2s-67.2-24-75.2-68.8c0-4.8-3.2-6.4-8-6.4l-46.4 8c-4.8 0-6.4 3.2-6.4 8 11.2 70.4 60.8 115.2 137.6 115.2 78.4 0 131.2-51.2 131.2-123.2 0-35.2-12.8-60.8-36.8-94.4l-49.6-67.2c-14.4-19.2-19.2-30.4-19.2-54.4v-24c0-4.8-3.2-8-8-8h-48c-3.2 1.6-6.4 4.8-6.4 8zM478.4 268.8c0 4.8 3.2 8 8 8h56c4.8 0 8-3.2 8-8v-62.4c0-4.8-3.2-8-8-8h-56c-4.8 0-8 3.2-8 8v62.4z" />
<glyph unicode="&#xe625;" d="M780.8 569.6c-14.4 3.2-65.6 56-110.4 115.2 0 0-1.6 1.6-1.6 1.6-20.8 20.8-46.4 46.4-96 46.4h-281.6c-43.2 0-65.6-43.2-89.6-84.8-20.8-38.4-43.2-78.4-76.8-78.4h-40c-51.2 0-81.6-30.4-81.6-81.6v-168c0-30.4 25.6-54.4 60.8-54.4h43.2c9.6-57.6 59.2-102.4 120-102.4s110.4 44.8 120 102.4h329.6c9.6-57.6 59.2-102.4 120-102.4s110.4 44.8 120 102.4h43.2c32 0 60.8 28.8 60.8 60.8v121.6c0 70.4-200 113.6-240 121.6zM640 659.2c16-22.4 46.4-59.2 76.8-88h-246.4v123.2h102.4c32-1.6 48-17.6 67.2-35.2zM236.8 628.8c17.6 30.4 35.2 64 54.4 64h139.2v-123.2h-230.4c14.4 17.6 25.6 38.4 36.8 59.2zM227.2 203.2c-44.8 0-81.6 36.8-81.6 81.6s36.8 81.6 81.6 81.6 81.6-36.8 81.6-81.6-36.8-81.6-81.6-81.6zM796.8 203.2c-44.8 0-81.6 36.8-81.6 81.6s36.8 81.6 81.6 81.6 81.6-36.8 81.6-81.6-36.8-81.6-81.6-81.6zM979.2 326.4c0-11.2-9.6-20.8-20.8-20.8h-43.2c-9.6 57.6-59.2 102.4-120 102.4s-110.4-44.8-120-102.4h-328c-9.6 57.6-59.2 102.4-120 102.4s-110.4-44.8-120-102.4h-43.2c-6.4 0-20.8 3.2-20.8 14.4v168c0 28.8 12.8 41.6 41.6 41.6h689.6c121.6-24 203.2-64 206.4-81.6v-121.6z" />
<glyph unicode="&#xe626;" d="M888 108.8h-752c-6.4 0-14.4 3.2-17.6 9.6s-3.2 14.4 0 20.8l376 640c6.4 12.8 27.2 12.8 35.2 0l376-640c3.2-6.4 3.2-14.4 0-20.8s-9.6-9.6-17.6-9.6zM171.2 147.2h683.2l-342.4 580.8-340.8-580.8z" />
<glyph unicode="&#xe627;" d="M1017.6 718.4c-14.4 32-65.6 65.6-137.6 65.6-35.2 0-70.4-8-107.2-24 0 0-96-43.2-208-92.8l-228.8 68.8c-25.6 8-67.2 11.2-91.2 0l-32-14.4c-9.6-4.8-16-12.8-17.6-24 0-19.2 19.2-32 32-40l136-83.2c-89.6-40-160-72-164.8-73.6-1.6 0-3.2-1.6-4.8-1.6-4.8 0-12.8 6.4-20.8 11.2-14.4 11.2-65.6 48-80 59.2-9.6 8-22.4 11.2-36.8 11.2-20.8 0-38.4-8-48-22.4-8-11.2-8-24-1.6-38.4l73.6-156.8c8-19.2 32-43.2 89.6-43.2 65.6 0 169.6 30.4 297.6 88l27.2 12.8-46.4-249.6c-4.8-22.4-4.8-36.8 3.2-48 4.8-6.4 12.8-9.6 20.8-9.6 4.8 0 8 1.6 12.8 3.2l32 14.4c24 11.2 49.6 43.2 60.8 67.2l152 328c286.4 134.4 300.8 163.2 288 192zM248 694.4c0 0 0 0 0 0l12.8 6.4c11.2 4.8 40 4.8 62.4-1.6l185.6-56c-33.6-14.4-67.2-30.4-100.8-44.8l-160 96zM704 558.4l-6.4-3.2-156.8-340.8c-9.6-22.4-28.8-43.2-40-48l-14.4-6.4c0 0 0 1.6 0 1.6l60.8 324.8-97.6-43.2c-155.2-68.8-238.4-83.2-281.6-83.2-20.8 0-46.4 3.2-52.8 19.2l-70.4 161.6c0 0 0 0 0 0 1.6 1.6 6.4 3.2 12.8 3.2s11.2-1.6 12.8-3.2c14.4-11.2 65.6-48 80-59.2 12.8-9.6 25.6-19.2 44.8-19.2 6.4 0 14.4 1.6 20.8 4.8s94.4 41.6 200 89.6c1.6 0 1.6 0 3.2 1.6 164.8 73.6 371.2 166.4 371.2 166.4 30.4 12.8 60.8 20.8 89.6 20.8 49.6 0 84.8-19.2 97.6-35.2-12.8-17.6-64-54.4-273.6-152z" />
<glyph unicode="&#xe628;" d="M947.2 721.6c-4.8 9.6-14.4 12.8-22.4 11.2-6.4 0-25.6 4.8-59.2 14.4-8 1.6-16 14.4-24 27.2-16 25.6-40 60.8-92.8 60.8-27.2 0-49.6-8-67.2-24 0 0 0 0-1.6-1.6-1.6 0-1.6-1.6-3.2-1.6-3.2-3.2-8-8-11.2-11.2-35.2-33.6-84.8-81.6-78.4-126.4 0-3.2 1.6-6.4 1.6-11.2-41.6-20.8-108.8-30.4-200-30.4-25.6 0-43.2 4.8-60.8 8-17.6 4.8-35.2 8-59.2 8-11.2 0-20.8 0-27.2 0-8 16-20.8 43.2-33.6 60.8-20.8 28.8-70.4 62.4-100.8 60.8-12.8 0-22.4-6.4-28.8-16-19.2-30.4 6.4-54.4 24-70.4 11.2-9.6 22.4-20.8 28.8-33.6 14.4-25.6 14.4-44.8 14.4-49.6-4.8-11.2-22.4-54.4-22.4-112 0-64 16-94.4 27.2-113.6 4.8-9.6 8-14.4 8-20.8 0-19.2-4.8-25.6-12.8-35.2-9.6-12.8-22.4-27.2-22.4-64 0-38.4 12.8-105.6 33.6-148.8 16-33.6 36.8-44.8 80-44.8 28.8 0 48 22.4 48 43.2 0 22.4-12.8 33.6-22.4 41.6-12.8 11.2-32 27.2-32 105.6 0 11.2 12.8 20.8 35.2 36.8 3.2-38.4 14.4-94.4 32-129.6 16-33.6 36.8-44.8 80-44.8 28.8 0 48 22.4 48 43.2 0 22.4-12.8 33.6-22.4 41.6-12.8 11.2-32 27.2-32 105.6 0 19.2 4.8 35.2 12.8 56 4.8 12.8 9.6 27.2 14.4 44.8 28.8-14.4 68.8-33.6 139.2-36.8 0-8-1.6-16-1.6-25.6-3.2-32-8-76.8-8-108.8 0-110.4 41.6-171.2 80-171.2h22.4c16 0 30.4 11.2 33.6 27.2 3.2 14.4-3.2 33.6-24 43.2-4.8 8-11.2 38.4-11.2 94.4 0 30.4 6.4 64 14.4 89.6 3.2-12.8 6.4-28.8 9.6-46.4 25.6-129.6 56-156.8 96-156.8 0 0 1.6 0 1.6 0h1.6c19.2 0 36.8 14.4 40 32 1.6 12.8-3.2 30.4-24 40-9.6 14.4-12.8 46.4-17.6 89.6-1.6 14.4-3.2 28.8-4.8 44.8-4.8 44.8-11.2 94.4-11.2 164.8 3.2 20.8 4.8 44.8 4.8 72 0 48 27.2 72 40 72 8 0 16-3.2 24-8 11.2-4.8 22.4-9.6 36.8-9.6 25.6 0 33.6 1.6 56 20.8 30.4 11.2 40 41.6 43.2 59.2 9.6 6.4 16 20.8 8 33.6zM377.6 164.8c8-6.4 8-8 8-9.6 0 0-1.6-4.8-8-4.8-30.4 0-35.2 6.4-43.2 22.4-17.6 35.2-28.8 97.6-28.8 131.2 0 4.8 0 8 1.6 12.8 14.4 12.8 28.8 28.8 40 49.6-8-20.8-14.4-40-14.4-65.6 0-88 22.4-115.2 44.8-136zM710.4 312c1.6-14.4 3.2-28.8 4.8-43.2 4.8-57.6 9.6-92.8 30.4-115.2 0 0 0-1.6 1.6-1.6-11.2 3.2-30.4 24-49.6 123.2-6.4 28.8-11.2 52.8-14.4 68.8-1.6 8-3.2 14.4-4.8 19.2 8 4.8 17.6 12.8 25.6 24 0-27.2 3.2-52.8 6.4-75.2zM904 692.8c0 0-1.6-24-19.2-28.8-3.2 0-4.8-1.6-6.4-3.2-16-12.8-16-12.8-32-12.8-6.4 0-12.8 3.2-20.8 6.4-11.2 4.8-24 11.2-41.6 11.2-38.4 0-80-46.4-80-112 0-27.2-1.6-49.6-4.8-68.8 0 0 0 0 0-1.6 0 0 0 0 0 0-11.2-64-36.8-80-51.2-89.6-3.2-1.6-6.4-4.8-9.6-6.4-27.2-22.4-48-112-48-161.6 0-97.6 17.6-118.4 25.6-124.8h-8c-9.6 0-40 40-40 131.2 0 30.4 4.8 73.6 6.4 105.6 3.2 32 4.8 44.8 3.2 51.2-1.6 9.6-9.6 17.6-19.2 17.6-76.8 0-113.6 19.2-144 35.2-22.4 11.2-41.6 22.4-70.4 22.4-11.2 0-19.2-8-19.2-19.2-3.2-67.2-44.8-96-80-121.6-27.2-19.2-54.4-38.4-54.4-70.4 0-89.6 22.4-115.2 46.4-136 8-6.4 8-8 8-9.6 0 0-1.6-4.8-8-4.8-30.4 0-35.2 6.4-43.2 22.4-17.6 35.2-28.8 97.6-28.8 131.2 0 22.4 6.4 28.8 12.8 38.4 9.6 11.2 22.4 25.6 20.8 60.8 0 16-6.4 28.8-12.8 40-9.6 17.6-22.4 40-22.4 94.4 0 56 19.2 97.6 19.2 97.6 0 1.6 1.6 3.2 1.6 4.8 0 3.2 6.4 33.6-17.6 78.4-9.6 19.2-25.6 32-36.8 43.2-4.8 4.8-12.8 11.2-16 16 16-4.8 46.4-22.4 60.8-43.2 16-22.4 35.2-65.6 35.2-65.6 3.2-8 11.2-12.8 19.2-11.2 0 0 17.6 1.6 38.4 1.6 19.2 0 33.6-3.2 49.6-8 19.2-4.8 40-9.6 70.4-9.6 102.4 0 176 12.8 224 38.4 1.6-1.6 3.2-3.2 4.8-3.2 9.6-6.4 20.8-9.6 32-9.6s20.8 3.2 32 8c35.2 20.8 62.4 72 62.4 123.2 0 11.2-9.6 19.2-19.2 19.2s-19.2-11.2-19.2-22.4c0-41.6-20.8-78.4-41.6-89.6-11.2-6.4-17.6-3.2-22.4 0-11.2 6.4-12.8 12.8-14.4 17.6-3.2 25.6 43.2 70.4 67.2 94.4 4.8 4.8 8 8 12.8 11.2 0 0 0 0 0 0s1.6 0 1.6 1.6c9.6 9.6 22.4 12.8 38.4 12.8 32 0 44.8-19.2 59.2-43.2 11.2-19.2 24-38.4 46.4-44.8 20.8-6.4 36.8-11.2 49.6-12.8 3.2 0 3.2 0 3.2-1.6z" />
<glyph unicode="&#xe629;" d="M512 46.4l-12.8 11.2c-22.4 19.2-52.8 40-88 64-139.2 96-350.4 238.4-350.4 467.2 0 139.2 115.2 254.4 256 254.4 75.2 0 147.2-33.6 195.2-91.2 48 57.6 120 91.2 196.8 91.2 140.8 0 256-113.6 256-254.4 0-228.8-211.2-372.8-350.4-467.2-35.2-24-65.6-44.8-88-64l-14.4-11.2zM315.2 803.2c-118.4 0-216-96-216-214.4 0-208 192-339.2 332.8-435.2 30.4-20.8 57.6-38.4 78.4-56 22.4 17.6 49.6 35.2 78.4 56 140.8 96 332.8 227.2 332.8 435.2 0 118.4-96 214.4-216 214.4-72 0-139.2-35.2-179.2-96l-16-25.6-16 25.6c-38.4 60.8-105.6 96-179.2 96z" />
<glyph unicode="&#xe62a;" d="M806.4 796.8h-171.2v32c0 30.4-24 54.4-54.4 54.4h-137.6c-30.4 0-54.4-24-54.4-54.4v-32h-171.2c-11.2 0-19.2-9.6-19.2-19.2s9.6-19.2 19.2-19.2h16l62.4-699.2c1.6-25.6 24-44.8 49.6-44.8h332.8c25.6 0 46.4 19.2 49.6 44.8l62.4 699.2h16c11.2 0 19.2 9.6 19.2 19.2s-8 19.2-19.2 19.2zM428.8 828.8c0 8 6.4 14.4 14.4 14.4h137.6c8 0 14.4-6.4 14.4-14.4v-32h-166.4v32zM688 60.8c0-4.8-4.8-9.6-9.6-9.6h-332.8c-4.8 0-9.6 4.8-9.6 9.6l-62.4 696h475.2l-60.8-696zM531.2 691.2v-572.8c0-11.2-9.6-19.2-19.2-19.2s-19.2 9.6-19.2 19.2v572.8c0 11.2 9.6 19.2 19.2 19.2s19.2-8 19.2-19.2zM616 710.4c11.2 0 19.2-9.6 19.2-19.2v-572.8c0-11.2-9.6-19.2-19.2-19.2s-19.2 9.6-19.2 19.2v572.8c-1.6 11.2 8 19.2 19.2 19.2zM428.8 691.2v-572.8c0-11.2-9.6-19.2-19.2-19.2s-19.2 9.6-19.2 19.2v572.8c0 11.2 9.6 19.2 19.2 19.2s19.2-8 19.2-19.2z" />
<glyph unicode="&#xe62b;" d="M755.2 448c0-6.4-3.2-12.8-9.6-17.6l-448-268.8c-3.2 0-6.4-1.6-9.6-1.6s-6.4 1.6-9.6 3.2-9.6 9.6-9.6 17.6v536c0 8 3.2 14.4 9.6 17.6s14.4 3.2 20.8 0l448-268.8c4.8-4.8 8-11.2 8-17.6z" />
<glyph unicode="&#xe62c;" d="M846.4 94.4h-668.8c-72 0-131.2 59.2-131.2 131.2v388.8c0 59.2 38.4 108.8 92.8 124.8v22.4c0 11.2 9.6 19.2 19.2 19.2h129.6c11.2 0 19.2-9.6 19.2-19.2v-17.6h96l11.2 28.8c14.4 36.8 49.6 64 83.2 64h209.6c33.6 0 68.8-27.2 83.2-64l11.2-28.8h41.6c72 0 131.2-59.2 131.2-131.2v-390.4c3.2-68.8-56-128-128-128zM179.2 744v-19.2c0-9.6-6.4-17.6-16-19.2-44.8-8-76.8-44.8-76.8-89.6v-390.4c0-49.6 41.6-91.2 91.2-91.2h668.8c49.6 0 91.2 41.6 91.2 91.2v388.8c0 49.6-41.6 91.2-91.2 91.2h-56c-8 0-16 4.8-19.2 12.8l-16 41.6c-9.6 24-30.4 40-46.4 40h-208c-14.4 0-36.8-14.4-46.4-38.4l-16-41.6c-3.2-8-9.6-12.8-19.2-12.8h-129.6c-11.2 0-19.2 9.6-19.2 19.2v17.6h-91.2zM140.8 614.4c0-20.8 16-36.8 36.8-36.8s36.8 16 36.8 36.8c0 20.8-16 36.8-36.8 36.8s-36.8-16-36.8-36.8zM604.8 187.2c-134.4 0-243.2 108.8-243.2 243.2s108.8 241.6 243.2 241.6 243.2-108.8 243.2-243.2-108.8-241.6-243.2-241.6zM604.8 632c-112 0-203.2-91.2-203.2-203.2s91.2-203.2 203.2-203.2 203.2 91.2 203.2 203.2-91.2 203.2-203.2 203.2z" />
<glyph unicode="&#xe62d;" d="M1006.4 323.2c-24 24-62.4 24-86.4 0 0 0-9.6-9.6-9.6-9.6v0l-225.6-224c-3.2-3.2-4.8-4.8-4.8-9.6l-20.8-78.4c-1.6-6.4 0-14.4 4.8-19.2 3.2-3.2 9.6-6.4 14.4-6.4 1.6 0 3.2 0 4.8 0l78.4 20.8c3.2 1.6 6.4 3.2 9.6 4.8l225.6 224c0 0 9.6 9.6 9.6 9.6 24 27.2 24 64 0 88zM747.2 36.8l-28.8 28.8 220.8 219.2 28.8-28.8-220.8-219.2zM636.8 78.4c0-11.2-9.6-19.2-19.2-19.2h-611.2l1.6 20.8c6.4 121.6 105.6 160 185.6 192 48 19.2 89.6 35.2 102.4 64 1.6 22.4 1.6 41.6 1.6 60.8 0 3.2 0 6.4 0 9.6-19.2 19.2-38.4 57.6-44.8 92.8-14.4 8-32 25.6-36.8 70.4-3.2 22.4 4.8 40 12.8 51.2-24 102.4-17.6 179.2 20.8 232 33.6 43.2 88 67.2 163.2 67.2 49.6 0 86.4-12.8 105.6-36.8 35.2-6.4 60.8-24 78.4-52.8 41.6-67.2 17.6-169.6 4.8-209.6 9.6-11.2 16-28.8 12.8-49.6-4.8-44.8-22.4-62.4-36.8-70.4-6.4-35.2-25.6-75.2-43.2-92.8 0-3.2 0-6.4 0-9.6 0-20.8 0-38.4 1.6-60.8 12.8-28.8 54.4-44.8 100.8-64 35.2-14.4 72-27.2 104-49.6 9.6-6.4 11.2-19.2 4.8-27.2-6.4-9.6-19.2-11.2-27.2-4.8-28.8 19.2-62.4 32-96 46.4-56 22.4-107.2 41.6-124.8 89.6l-1.6 4.8c-1.6 25.6-1.6 46.4-1.6 67.2 0 6.4 0 12.8 0 19.2v12.8l11.2 6.4c8 6.4 32 46.4 35.2 83.2l1.6 16 16 1.6c3.2 0 12.8 8 17.6 40 1.6 16-6.4 22.4-6.4 22.4l-12.8 8 4.8 14.4c16 46.4 33.6 139.2 3.2 188.8-12.8 20.8-32 32-59.2 35.2l-9.6 1.6-4.8 8c-9.6 16-36.8 25.6-75.2 25.6-62.4-1.6-105.6-19.2-131.2-52.8-32-43.2-36.8-115.2-11.2-208l3.2-14.4-12.8-8c0 0-8-6.4-6.4-22.4 3.2-32 14.4-38.4 17.6-40l16-1.6 1.6-16c3.2-36.8 27.2-76.8 36.8-83.2l11.2-4.8v-11.2c0-6.4 0-12.8 0-19.2 0-20.8 0-41.6-1.6-68.8l-1.6-4.8c-17.6-46.4-70.4-67.2-126.4-89.6-70.4-27.2-142.4-56-156.8-136h566.4c8-3.2 16-12.8 16-24z" />
<glyph unicode="&#xe62e;" d="M696 632c-27.2 27.2-70.4 27.2-97.6 0 0 0-11.2-11.2-11.2-11.2v0l-272-272c-3.2-3.2-4.8-4.8-4.8-9.6l-25.6-94.4c-1.6-6.4 0-14.4 4.8-19.2 3.2-3.2 9.6-6.4 14.4-6.4 1.6 0 3.2 0 4.8 0l94.4 25.6c3.2 1.6 6.4 3.2 9.6 4.8l272 272c0 0 11.2 11.2 11.2 11.2 27.2 28.8 27.2 72 0 99.2zM387.2 283.2l-56-14.4 14.4 56 270.4 267.2 40-40-268.8-268.8z" />
<glyph unicode="&#xe62f;" d="M635.2 345.6c-20.8 0-38.4-17.6-38.4-38.4s17.6-38.4 38.4-38.4c20.8 0 38.4 17.6 38.4 38.4-1.6 20.8-17.6 38.4-38.4 38.4zM368 345.6c-20.8 0-38.4-17.6-38.4-38.4s17.6-38.4 38.4-38.4c20.8 0 38.4 17.6 38.4 38.4-1.6 20.8-17.6 38.4-38.4 38.4zM481.6 441.6h113.6c-14.4 14.4-28.8 32-36.8 41.6-8 8-16 16-30.4 16h-48v-57.6zM462.4 497.6h-65.6c-8 0-17.6-14.4-25.6-30.4-4.8-9.6-11.2-19.2-17.6-27.2h108.8v57.6zM512 956.8c-280 0-508.8-228.8-508.8-508.8s228.8-508.8 508.8-508.8 508.8 228.8 508.8 508.8-228.8 508.8-508.8 508.8zM739.2 326.4c0-16-12.8-28.8-28.8-28.8h-19.2c-4.8-27.2-28.8-48-56-48s-51.2 20.8-56 48h-155.2c-4.8-27.2-28.8-48-56-48s-51.2 20.8-56 48h-19.2c-16 0-28.8 11.2-28.8 25.6v80c0 24 14.4 38.4 38.4 38.4h17.6c16 0 25.6 19.2 35.2 36.8 11.2 19.2 22.4 40 41.6 40h132.8c22.4 0 35.2-12.8 44.8-22.4 22.4-28.8 44.8-52.8 52.8-54.4 19.2-3.2 112-24 112-57.6v-57.6zM752 556.8h-60.8v-60.8c0-4.8-4.8-9.6-9.6-9.6s-9.6 4.8-9.6 9.6v60.8h-60.8c-4.8 0-9.6 4.8-9.6 9.6s4.8 9.6 9.6 9.6h60.8v60.8c0 4.8 4.8 9.6 9.6 9.6s9.6-4.8 9.6-9.6v-60.8h60.8c4.8 0 9.6-4.8 9.6-9.6s-4.8-9.6-9.6-9.6zM624 422.4h-323.2c-12.8 0-19.2-6.4-19.2-19.2v-80c0-4.8 6.4-6.4 9.6-6.4h19.2c4.8 27.2 28.8 48 56 48s51.2-20.8 56-48h155.2c4.8 27.2 28.8 48 56 48s51.2-20.8 56-48h19.2c4.8 0 9.6 4.8 9.6 9.6v57.6c0 8-38.4 27.2-94.4 38.4z" />
<glyph unicode="&#xe630;" d="M512 956.8c280 0 508.8-227.2 508.8-508.8s-228.8-508.8-508.8-508.8-508.8 228.8-508.8 508.8 228.8 508.8 508.8 508.8zM625.6 449.6c-6.4 1.6-30.4 25.6-52.8 54.4-9.6 9.6-22.4 22.4-44.8 22.4h-131.2c-19.2 0-30.4-20.8-41.6-40-9.6-17.6-20.8-36.8-35.2-36.8h-19.2c-24 0-38.4-14.4-38.4-38.4v-78.4c0-14.4 12.8-25.6 28.8-25.6h19.2c4.8-27.2 27.2-48 56-48s51.2 20.8 56 48h153.6c4.8-27.2 27.2-48 56-48s51.2 20.8 56 48h19.2c16 0 28.8 12.8 28.8 28.8v57.6c1.6 32-91.2 52.8-110.4 56zM481.6 507.2h48c14.4 0 22.4-6.4 30.4-16s22.4-27.2 35.2-41.6h-113.6v57.6zM371.2 478.4c8 14.4 16 28.8 25.6 28.8h65.6v-56h-107.2c6.4 8 11.2 17.6 16 27.2zM366.4 280c-20.8 0-38.4 17.6-38.4 38.4s17.6 38.4 38.4 38.4 38.4-17.6 38.4-38.4-17.6-38.4-38.4-38.4zM633.6 280c-20.8 0-38.4 17.6-38.4 38.4s17.6 38.4 38.4 38.4 38.4-17.6 38.4-38.4-17.6-38.4-38.4-38.4zM718.4 336c0-4.8-4.8-9.6-9.6-9.6h-19.2c-4.8 27.2-27.2 48-56 48s-51.2-20.8-56-48h-153.6c-4.8 27.2-27.2 48-56 48s-51.2-20.8-56-48h-19.2c-3.2 0-9.6 1.6-9.6 6.4v78.4c0 12.8 6.4 19.2 19.2 19.2h320c56-11.2 94.4-30.4 96-38.4v-56zM756.8 633.6c-4.8 3.2-11.2 1.6-12.8-3.2l-68.8-107.2-44.8 40c-3.2 3.2-9.6 3.2-12.8 0s-3.2-9.6 0-12.8l52.8-48c1.6-1.6 4.8-3.2 6.4-3.2 0 0 1.6 0 1.6 0 3.2 0 4.8 1.6 6.4 4.8l75.2 116.8c3.2 4.8 1.6 11.2-3.2 12.8z" />
<glyph unicode="&#xe631;" d="M736 728l-36.8 38.4v56h112v-172.8l-36.8 38.4v97.6h-38.4v-57.6zM972.8 416c-3.2-3.2-9.6-4.8-14.4-4.8s-11.2 1.6-14.4 6.4l-57.6 59.2v-497.6h-750.4v497.6l-56-59.2c-8-8-20.8-8-28.8 0s-8 20.8 0 28.8l446.4 464c8 8 20.8 8 28.8 0l446.4-465.6c8-8 8-20.8 0-28.8zM604.8 372.8h-185.6v-353.6h184v353.6zM848 518.4l-336 348.8-336-348.8v-499.2h203.2v393.6h264v-393.6h204.8v499.2z" />
<glyph unicode="&#xe632;" d="M771.2-35.2h-510.4c-48 0-116.8 44.8-116.8 116.8v734.4c0 60.8 54.4 116.8 113.6 116.8h513.6c60.8 0 108.8-49.6 108.8-108.8v-748.8c0-62.4-49.6-110.4-108.8-110.4zM257.6 892.8c-36.8 0-73.6-38.4-73.6-76.8v-736c0-49.6 51.2-76.8 76.8-76.8h510.4c38.4 0 68.8 30.4 68.8 68.8v750.4c0 38.4-30.4 68.8-68.8 68.8h-513.6zM782.4 80h-540.8c-11.2 0-19.2 9.6-19.2 19.2v716.8c0 11.2 9.6 19.2 19.2 19.2h540.8c11.2 0 19.2-9.6 19.2-19.2v-715.2c1.6-11.2-8-20.8-19.2-20.8zM260.8 120h500.8v675.2h-500.8v-675.2zM483.2 41.6c0 16 12.8 28.8 28.8 28.8s28.8-12.8 28.8-28.8-12.8-27.2-28.8-27.2c-16 0-28.8 12.8-28.8 27.2z" />
<glyph unicode="&#xe633;" d="M886.4 80h-748.8c-60.8 0-108.8 49.6-108.8 108.8v510.4c0 49.6 43.2 116.8 115.2 116.8h736c60.8 0 116.8-54.4 116.8-113.6v-513.6c-1.6-59.2-49.6-108.8-110.4-108.8zM144 776c-49.6 0-76.8-51.2-76.8-76.8v-510.4c0-38.4 30.4-68.8 68.8-68.8h748.8c38.4 0 68.8 30.4 68.8 68.8v513.6c0 36.8-38.4 73.6-76.8 73.6h-732.8zM880 156.8h-716.8c-11.2 0-19.2 9.6-19.2 19.2v542.4c0 11.2 9.6 19.2 19.2 19.2h716.8c11.2 0 19.2-9.6 19.2-19.2v-540.8c0-11.2-9.6-20.8-19.2-20.8zM184 196.8h675.2v502.4h-675.2v-502.4zM105.6 476.8c16 0 28.8-12.8 28.8-28.8s-12.8-28.8-28.8-28.8-27.2 12.8-27.2 28.8c0 16 12.8 28.8 27.2 28.8z" />
<glyph unicode="&#xe634;" d="M632 80h-233.6c-41.6 0-100.8 38.4-100.8 102.4v531.2c0 54.4 46.4 102.4 99.2 102.4h236.8c52.8 0 94.4-43.2 94.4-96v-544c0-52.8-43.2-96-96-96zM395.2 776c-30.4 0-59.2-30.4-59.2-62.4v-529.6c0-40 40-62.4 60.8-62.4h233.6c30.4 0 54.4 25.6 54.4 56v542.4c0 30.4-24 56-54.4 56h-235.2zM641.6 179.2h-259.2c-11.2 0-19.2 9.6-19.2 19.2v515.2c0 11.2 9.6 19.2 19.2 19.2h260.8c11.2 0 19.2-9.6 19.2-19.2v-513.6c0-11.2-9.6-20.8-20.8-20.8zM401.6 219.2h220.8v473.6h-220.8v-473.6zM492.8 150.4c0-11.2 9.6-19.2 19.2-19.2 11.2 0 19.2 9.6 19.2 19.2 0 11.2-9.6 19.2-19.2 19.2-11.2 0-19.2-9.6-19.2-19.2z" />
<glyph unicode="&#xe635;" d="M755.2 942.4l-243.2-243.2-243.2 243.2-265.6-264v-716.8h1016v716.8l-264 264zM492.8 3.2h-448v659.2l224 222.4 224-222.4v-659.2zM979.2 3.2h-448v659.2l224 222.4 224-222.4v-659.2zM572.8 468.8h163.2v161.6h-163.2v-161.6zM612.8 590.4h81.6v-81.6h-81.6v81.6zM939.2 630.4h-163.2v-161.6h161.6v161.6zM899.2 508.8h-83.2v81.6h81.6v-81.6zM572.8 265.6h163.2v161.6h-163.2v-161.6zM612.8 387.2h81.6v-81.6h-81.6v81.6zM939.2 427.2h-163.2v-161.6h161.6v161.6zM899.2 305.6h-83.2v81.6h81.6v-81.6zM572.8 64h163.2v161.6h-163.2v-161.6zM612.8 185.6h81.6v-81.6h-81.6v81.6zM939.2 225.6h-163.2v-161.6h161.6v161.6zM899.2 104h-83.2v81.6h81.6v-81.6zM84.8 468.8h161.6v161.6h-161.6v-161.6zM124.8 590.4h83.2v-81.6h-83.2v81.6zM451.2 630.4h-163.2v-161.6h161.6v161.6zM411.2 508.8h-81.6v81.6h81.6v-81.6zM84.8 265.6h161.6v161.6h-161.6v-161.6zM124.8 387.2h83.2v-81.6h-83.2v81.6zM451.2 427.2h-163.2v-161.6h161.6v161.6zM411.2 305.6h-81.6v81.6h81.6v-81.6zM84.8 64h161.6v161.6h-161.6v-161.6zM124.8 185.6h83.2v-81.6h-83.2v81.6zM451.2 225.6h-163.2v-161.6h161.6v161.6zM411.2 104h-81.6v81.6h81.6v-81.6z" />
<glyph unicode="&#xe636;" d="M512 956.8c280 0 508.8-227.2 508.8-508.8s-228.8-508.8-508.8-508.8-508.8 228.8-508.8 508.8 228.8 508.8 508.8 508.8zM761.6 305.6c0 16-4.8 32-12.8 44.8l-163.2 283.2c-16 25.6-43.2 43.2-73.6 43.2s-59.2-16-73.6-43.2l-164.8-284.8c-16-25.6-16-59.2 0-84.8s43.2-43.2 73.6-43.2h328c48 0 86.4 38.4 86.4 84.8zM569.6 624l163.2-281.6c6.4-11.2 9.6-22.4 9.6-35.2 0-36.8-30.4-65.6-65.6-65.6h-329.6c-24 0-44.8 12.8-57.6 33.6s-11.2 46.4 0 65.6l164.8 283.2c11.2 20.8 33.6 33.6 57.6 33.6s44.8-14.4 57.6-33.6zM676.8 275.2c17.6 0 30.4 14.4 30.4 32 0 6.4-1.6 11.2-4.8 17.6l-163.2 281.6c-4.8 9.6-16 16-27.2 16s-20.8-6.4-27.2-16l-164.8-284.8c-4.8-9.6-4.8-22.4 0-32s16-16 27.2-16h329.6v1.6zM523.2 596.8l163.2-281.6 1.6-3.2c1.6-1.6 1.6-4.8 1.6-6.4 0-6.4-4.8-12.8-12.8-12.8v0h-329.6c-4.8 0-8 1.6-11.2 6.4-1.6 3.2-1.6 8 0 12.8l164.8 284.8c1.6 3.2 6.4 6.4 11.2 6.4 4.8-1.6 8-3.2 11.2-6.4z" />
<glyph unicode="&#xe637;" d="M747.2 75.2v0c-102.4 3.2-230.4 80-379.2 228.8-100.8 102.4-224 251.2-228.8 377.6-1.6 46.4 107.2 124.8 108.8 126.4 25.6 17.6 62.4 14.4 76.8-6.4 8-12.8 91.2-136 99.2-150.4 9.6-16 8-38.4-3.2-60.8-6.4-11.2-25.6-46.4-36.8-64 11.2-16 40-52.8 96-108.8s92.8-84.8 108.8-96c17.6 9.6 52.8 30.4 64 36.8 22.4 11.2 44.8 12.8 60.8 3.2 14.4-9.6 139.2-91.2 150.4-99.2 19.2-12.8 27.2-46.4 6.4-76.8 0-1.6-76.8-110.4-123.2-110.4zM747.2 116.8v0zM286.4 779.2c-3.2 0-8-1.6-14.4-4.8-33.6-22.4-89.6-75.2-91.2-91.2 3.2-113.6 120-252.8 217.6-350.4s236.8-212.8 350.4-217.6v0c16 3.2 68.8 59.2 91.2 91.2 8 11.2 4.8 19.2 3.2 20.8-9.6 6.4-132.8 89.6-147.2 97.6 0 0-1.6 0-3.2 0-4.8 0-11.2-1.6-17.6-4.8-14.4-8-73.6-41.6-73.6-41.6l-9.6-6.4-9.6 6.4c-1.6 1.6-44.8 25.6-126.4 108.8-81.6 81.6-107.2 124.8-108.8 126.4l-6.4 9.6 6.4 9.6c0 0 33.6 59.2 41.6 73.6 6.4 11.2 6.4 19.2 4.8 20.8-8 12.8-89.6 137.6-97.6 148.8-3.2 3.2-4.8 3.2-9.6 3.2z" />
<glyph unicode="&#xe638;" d="M512 956.8c280 0 508.8-227.2 508.8-508.8s-228.8-508.8-508.8-508.8-508.8 228.8-508.8 508.8 228.8 508.8 508.8 508.8zM516.8 166.4c3.2 1.6 62.4 32 123.2 105.6 56 67.2 121.6 184 121.6 358.4v8l-8 1.6c-84.8 19.2-134.4 44.8-171.2 64-28.8 14.4-48 25.6-70.4 25.6s-43.2-9.6-70.4-25.6c-36.8-19.2-86.4-44.8-171.2-64l-8-1.6v-8c0-180.8 67.2-297.6 121.6-363.2 60.8-72 120-99.2 123.2-100.8l4.8-1.6 4.8 1.6zM449.6 688c25.6 12.8 44.8 24 62.4 24s35.2-9.6 62.4-24c36.8-19.2 86.4-44.8 168-64-3.2-294.4-200-419.2-230.4-438.4-32 16-227.2 132.8-230.4 436.8 83.2 20.8 132.8 46.4 168 65.6zM497.6 356.8c3.2 0 4.8 1.6 6.4 4.8l104 161.6c3.2 4.8 1.6 11.2-3.2 12.8-4.8 3.2-11.2 1.6-12.8-3.2l-99.2-153.6-65.6 59.2c-3.2 3.2-9.6 3.2-12.8 0s-3.2-9.6 0-12.8l73.6-67.2c4.8 0 6.4-1.6 9.6-1.6 0 0 0 0 0 0z" />
<glyph unicode="&#xe639;" d="M1019.2 312v0l-163.2 467.2c-1.6 1.6-1.6 4.8-3.2 6.4 0 4.8-1.6 9.6-4.8 14.4-3.2 3.2-67.2 78.4-136 89.6-35.2 6.4-70.4-3.2-104-14.4-11.2-3.2-24-6.4-35.2-9.6v30.4c0 33.6-27.2 60.8-60.8 60.8s-60.8-28.8-60.8-60.8v-3.2c-6.4 4.8-12.8 9.6-19.2 12.8-28.8 20.8-57.6 41.6-92.8 48-68.8 11.2-155.2-36.8-158.4-40 0 0 0 0 0 0-6.4-1.6-11.2-6.4-12.8-12.8l-163.2-467.2c-1.6-4.8-1.6-9.6 0-14.4 27.2-68.8 100.8-113.6 180.8-113.6s155.2 46.4 182.4 115.2c1.6 4.8 1.6 9.6 0 14.4v0l-156.8 449.6c22.4 11.2 78.4 36.8 121.6 28.8 25.6-4.8 49.6-22.4 75.2-41.6 12.8-9.6 27.2-19.2 41.6-28.8v-804.8h-132.8c-38.4 0-70.4-32-70.4-70.4v-30.4h528v30.4c0 38.4-32 70.4-70.4 70.4h-132.8v784c16 3.2 32 8 46.4 12.8 30.4 9.6 59.2 17.6 84.8 12.8 51.2-9.6 105.6-68.8 112-75.2l-158.4-460.8c-1.6-4.8-1.6-9.6 0-14.4 27.2-68.8 100.8-113.6 180.8-113.6s153.6 46.4 180.8 113.6c3.2 4.8 3.2 9.6 1.6 14.4zM187.2 835.2l134.4-387.2h-268.8l134.4 387.2zM187.2 345.6c-52.8 0-100.8 24-129.6 62.4h257.6c-27.2-38.4-75.2-62.4-128-62.4zM734.4-19.2h-444.8c4.8 12.8 16 20.8 28.8 20.8h385.6c14.4 0 25.6-9.6 30.4-20.8zM491.2 41.6v854.4c0 11.2 9.6 20.8 20.8 20.8s20.8-9.6 20.8-20.8v-854.4h-41.6zM971.2 326.4h-268.8l134.4 387.2 134.4-387.2zM836.8 224c-52.8 0-100.8 24-129.6 62.4h257.6c-25.6-38.4-75.2-62.4-128-62.4z" />
<glyph unicode="&#xe63a;" d="M881.6 121.6l-219.2 219.2c43.2 51.2 68.8 116.8 68.8 188.8 0 161.6-131.2 291.2-291.2 291.2-161.6 0-292.8-131.2-292.8-292.8s131.2-291.2 291.2-291.2c62.4 0 121.6 20.8 169.6 54.4l220.8-220.8 52.8 51.2zM188.8 528c0 139.2 113.6 251.2 251.2 251.2s251.2-112 251.2-251.2-113.6-251.2-251.2-251.2-251.2 113.6-251.2 251.2z" />
<glyph unicode="&#xe63b;" d="M512-59.2l-8 4.8c-4.8 0-441.6 209.6-441.6 832v16l16 3.2c150.4 33.6 240 81.6 305.6 115.2 51.2 27.2 88 46.4 128 46.4s76.8-19.2 128-46.4c65.6-33.6 155.2-81.6 305.6-115.2l16-3.2v-16c0-601.6-436.8-832-440-833.6l-9.6-3.2zM102.4 761.6c3.2-302.4 115.2-497.6 208-609.6 86.4-100.8 174.4-152 201.6-166.4 59.2 35.2 403.2 257.6 409.6 777.6-147.2 33.6-235.2 80-300.8 115.2-44.8 22.4-78.4 40-108.8 40s-64-17.6-108.8-41.6c-65.6-33.6-153.6-80-300.8-115.2z" />
<glyph unicode="&#xe63c;" d="M1000 172.8c-3.2 0-8 1.6-11.2 3.2l-264 161.6c-6.4 3.2-9.6 9.6-9.6 17.6v185.6c0 6.4 3.2 12.8 9.6 17.6l264 161.6c6.4 3.2 14.4 3.2 20.8 0s9.6-9.6 9.6-17.6v-510.4c0-8-3.2-14.4-9.6-17.6-3.2 0-6.4-1.6-9.6-1.6zM755.2 366.4l224-137.6v438.4l-224-137.6v-163.2zM654.4 80h-548.8c-56 0-100.8 51.2-100.8 112v510.4c0 62.4 44.8 112 100.8 112h548.8c56 0 100.8-51.2 100.8-112v-510.4c0-60.8-44.8-112-100.8-112zM105.6 776c-33.6 0-60.8-32-60.8-72v-510.4c0-40 27.2-72 60.8-72h548.8c33.6 0 60.8 32 60.8 72v508.8c0 40-27.2 72-60.8 72h-548.8z" />
<glyph unicode="&#xe63d;" d="M1017.6 622.4l-196.8-372.8c-3.2-4.8-6.4-8-12.8-9.6-1.6 0-3.2 0-4.8 0-3.2 0-6.4 1.6-9.6 3.2l-8 4.8c-65.6 35.2-163.2 92.8-273.6 92.8-108.8 0-208-56-273.6-94.4l-8-4.8c-4.8-3.2-9.6-3.2-16-1.6s-9.6 4.8-12.8 9.6l-195.2 372.8c-4.8 9.6-1.6 19.2 6.4 25.6 145.6 104 318.4 160 499.2 160s353.6-56 500.8-160c6.4-6.4 9.6-17.6 4.8-25.6zM974.4 625.6c-136 94.4-296 144-462.4 144s-324.8-49.6-460.8-142.4l177.6-339.2c68.8 40 169.6 94.4 283.2 94.4 115.2 0 214.4-54.4 283.2-94.4l179.2 337.6zM608 185.6c0-52.8-43.2-97.6-96-97.6s-96 43.2-96 97.6c0 38.4 22.4 70.4 52.8 86.4l-172.8 384c-4.8 9.6 0 22.4 9.6 27.2s22.4 0 27.2-9.6l176-390.4c1.6 0 3.2 0 4.8 0 51.2-1.6 94.4-44.8 94.4-97.6zM568 185.6c0 32-25.6 57.6-56 57.6s-56-25.6-56-57.6 24-57.6 56-57.6 56 25.6 56 57.6z" />
<glyph unicode="&#xe63e;" d="M374.4 625.6c91.2 0 161.6-70.4 161.6-161.6 0-41.6-16-80-40-108.8l38.4-38.4-19.2-19.2-38.4 38.4c-27.2-24-64-36.8-104-36.8-89.6 0-160 73.6-160 164.8 1.6 91.2 72 161.6 161.6 161.6zM374.4 328c28.8 0 60.8 11.2 81.6 28.8l-38.4 40 19.2 19.2 38.4-38.4c17.6 22.4 28.8 54.4 28.8 86.4 0 75.2-56 132.8-129.6 132.8-72 0-128-57.6-128-132.8 0-76.8 56-136 128-136zM644.8 481.6c-22.4 14.4-38.4 33.6-38.4 64 0 40 32 80 94.4 80 59.2 0 96-32 96-81.6 0-44.8-35.2-81.6-38.4-84.8 25.6-14.4 46.4-35.2 46.4-67.2 0-49.6-43.2-91.2-104-91.2-57.6 0-107.2 36.8-107.2 96 0 49.6 43.2 80 51.2 84.8zM670.4 467.2c-9.6-6.4-44.8-30.4-44.8-72 0-43.2 36.8-68.8 75.2-68.8 36.8 0 72 25.6 72 62.4 0 43.2-56 56-102.4 78.4zM732.8 470.4c6.4 4.8 32 33.6 32 72 0 33.6-27.2 54.4-65.6 54.4-40 0-64-24-64-51.2 1.6-41.6 52.8-56 97.6-75.2z" />
<glyph unicode="&#xe63f;" d="M376 625.6c91.2 0 161.6-70.4 161.6-161.6 0-41.6-16-80-40-108.8l38.4-38.4-19.2-19.2-38.4 38.4c-27.2-24-64-36.8-104-36.8-89.6 0-160 73.6-160 164.8 1.6 91.2 72 161.6 161.6 161.6zM376 328c28.8 0 60.8 11.2 81.6 28.8l-38.4 40 19.2 19.2 38.4-38.4c17.6 22.4 28.8 54.4 28.8 86.4 0 75.2-56 132.8-129.6 132.8-72 0-128-57.6-128-132.8 0-76.8 56-136 128-136zM606.4 312l11.2 27.2c0 0 19.2-11.2 46.4-11.2 65.6 0 99.2 65.6 105.6 126.4h-1.6c-16-22.4-48-36.8-80-36.8-57.6 0-97.6 41.6-97.6 102.4 0 65.6 43.2 105.6 99.2 105.6 68.8 0 113.6-62.4 113.6-147.2 0-78.4-40-177.6-139.2-177.6-33.6-1.6-57.6 11.2-57.6 11.2zM769.6 499.2c0 41.6-32 96-80 96-43.2 0-67.2-32-67.2-75.2 0-44.8 28.8-73.6 72-73.6 41.6 0 75.2 27.2 75.2 52.8z" />
<glyph unicode="&#xe640;" d="M264 625.6c91.2 0 161.6-70.4 161.6-161.6 0-41.6-16-80-40-108.8l38.4-38.4-19.2-19.2-36.8 38.4c-27.2-24-64-36.8-104-36.8-89.6 0-160 73.6-160 164.8s70.4 161.6 160 161.6zM264 328c28.8 0 60.8 11.2 81.6 28.8l-38.4 40 19.2 19.2 38.4-38.4c17.6 22.4 28.8 54.4 28.8 86.4 0 75.2-56 132.8-129.6 132.8-72 0-128-57.6-128-132.8 1.6-76.8 56-136 128-136zM480 332.8h70.4v230.4c0 9.6 0 17.6 0 17.6h-1.6c0 0-3.2-6.4-16-19.2l-32-33.6-19.2 20.8 72 70.4h28.8v-286.4h68.8v-28.8h-171.2v28.8zM694.4 462.4c0 91.2 27.2 163.2 108.8 163.2s108.8-72 108.8-163.2c0-91.2-27.2-163.2-108.8-163.2s-108.8 72-108.8 163.2zM880 462.4c0 75.2-16 132.8-76.8 132.8s-76.8-59.2-76.8-132.8c0-75.2 16-134.4 76.8-134.4s76.8 59.2 76.8 134.4z" />
<glyph unicode="&#xe641;" d="M299.2 625.6c91.2 0 161.6-70.4 161.6-161.6 0-41.6-16-80-40-108.8l38.4-38.4-19.2-19.2-36.8 38.4c-27.2-24-64-36.8-104-36.8-89.6 0-160 73.6-160 164.8 1.6 91.2 72 161.6 160 161.6zM299.2 328c28.8 0 60.8 11.2 81.6 28.8l-38.4 40 19.2 19.2 38.4-38.4c17.6 22.4 28.8 54.4 28.8 86.4 0 75.2-56 132.8-129.6 132.8-72 0-128-57.6-128-132.8 1.6-76.8 57.6-136 128-136zM515.2 332.8h70.4v230.4c0 9.6 0 17.6 0 17.6h-1.6c0 0-3.2-6.4-16-19.2l-32-33.6-19.2 20.8 72 70.4h28.8v-286.4h68.8v-28.8h-171.2v28.8zM724.8 332.8h70.4v230.4c0 9.6 0 17.6 0 17.6h-1.6c0 0-3.2-6.4-16-19.2l-32-33.6-19.2 20.8 72 70.4h28.8v-286.4h68.8v-28.8h-171.2v28.8z" />
<glyph unicode="&#xe642;" d="M278.4 625.6c91.2 0 161.6-70.4 161.6-161.6 0-41.6-16-80-40-108.8l38.4-38.4-19.2-19.2-38.4 38.4c-27.2-24-64-36.8-104-36.8-89.6 0-160 73.6-160 164.8 1.6 91.2 72 161.6 161.6 161.6zM278.4 328c28.8 0 60.8 11.2 81.6 28.8l-40 40 19.2 19.2 38.4-38.4c17.6 22.4 28.8 54.4 28.8 86.4 0 75.2-56 132.8-129.6 132.8-72 0-128-57.6-128-132.8 1.6-76.8 57.6-136 129.6-136zM492.8 332.8h70.4v230.4c0 9.6 0 17.6 0 17.6h-1.6c0 0-3.2-6.4-16-19.2l-32-33.6-19.2 20.8 72 70.4h28.8v-286.4h68.8v-28.8h-171.2v28.8zM704 324.8c0 110.4 161.6 124.8 161.6 209.6 0 35.2-25.6 60.8-65.6 60.8-46.4 0-70.4-43.2-70.4-43.2l-24 16c0 0 28.8 57.6 96 57.6 60.8 0 96-38.4 96-88 0-105.6-158.4-120-160-204.8h164.8v-28.8h-196.8c-1.6 8-1.6 14.4-1.6 20.8z" />
<glyph unicode="&#xe643;" d="M278.4 625.6c91.2 0 161.6-70.4 161.6-161.6 0-41.6-16-80-40-108.8l38.4-38.4-19.2-19.2-36.8 38.4c-27.2-24-64-36.8-104-36.8-89.6 0-160 73.6-160 164.8s70.4 161.6 160 161.6zM278.4 328c28.8 0 60.8 11.2 81.6 28.8l-38.4 40 19.2 19.2 38.4-38.4c17.6 22.4 28.8 54.4 28.8 86.4 0 75.2-56 132.8-129.6 132.8-72 0-128-57.6-128-132.8 0-76.8 56-136 128-136zM494.4 332.8h70.4v230.4c0 9.6 0 17.6 0 17.6h-1.6c0 0-3.2-6.4-16-19.2l-32-33.6-19.2 20.8 72 70.4h28.8v-286.4h68.8v-28.8h-171.2v28.8zM716.8 366.4c0 0 32-36.8 80-36.8 38.4 0 72 27.2 72 68.8 0 44.8-38.4 67.2-80 67.2h-20.8l-8 17.6 78.4 92.8c8 9.6 16 17.6 16 17.6v1.6c0 0-9.6-1.6-25.6-1.6h-118.4v27.2h185.6v-20.8l-94.4-108.8c40-1.6 99.2-24 99.2-92.8 0-54.4-43.2-99.2-104-99.2-62.4 0-99.2 43.2-99.2 43.2l19.2 24z" />
<glyph unicode="&#xe644;" d="M273.6 625.6c91.2 0 161.6-70.4 161.6-161.6 0-41.6-16-80-40-108.8l38.4-38.4-17.6-19.2-38.4 38.4c-27.2-24-64-36.8-104-36.8-89.6 0-160 73.6-160 164.8 1.6 91.2 72 161.6 160 161.6zM273.6 328c28.8 0 60.8 11.2 81.6 28.8l-38.4 40 19.2 19.2 38.4-38.4c17.6 22.4 28.8 54.4 28.8 86.4 0 75.2-56 132.8-129.6 132.8-72 0-128-57.6-128-132.8 1.6-76.8 57.6-136 128-136zM489.6 332.8h70.4v230.4c0 9.6 0 17.6 0 17.6v0c0 0-3.2-6.4-16-19.2l-33.6-33.6-19.2 20.8 72 70.4h28.8v-286.4h68.8v-28.8h-171.2v28.8zM681.6 412.8l155.2 208h33.6v-200h44.8v-27.2h-44.8v-89.6h-30.4v88h-158.4v20.8zM838.4 419.2v131.2c0 12.8 1.6 28.8 1.6 28.8h-1.6c0 0-6.4-12.8-16-24l-105.6-136v-1.6h121.6z" />
<glyph unicode="&#xe645;" d="M280 625.6c91.2 0 161.6-70.4 161.6-161.6 0-41.6-16-80-40-108.8l38.4-38.4-19.2-19.2-38.4 38.4c-27.2-24-64-36.8-104-36.8-89.6 0-160 73.6-160 164.8 1.6 91.2 72 161.6 161.6 161.6zM280 328c28.8 0 60.8 11.2 81.6 28.8l-38.4 40 19.2 19.2 38.4-38.4c17.6 22.4 28.8 54.4 28.8 86.4 0 75.2-56 132.8-129.6 132.8-72 0-128-57.6-128-132.8 0-76.8 56-136 128-136zM494.4 332.8h70.4v230.4c0 9.6 0 17.6 0 17.6h-1.6c0 0-3.2-6.4-16-19.2l-32-33.6-19.2 20.8 72 70.4h28.8v-286.4h68.8v-28.8h-171.2v28.8zM721.6 364.8c0 0 24-36.8 72-36.8 43.2 0 78.4 30.4 78.4 73.6s-35.2 73.6-80 73.6c-33.6 0-57.6-17.6-57.6-17.6l-19.2 6.4 17.6 152h152v-24h-124.8l-9.6-80c-1.6-11.2-3.2-17.6-3.2-17.6h1.6c0 0 19.2 12.8 48 12.8 62.4 0 108.8-46.4 108.8-102.4 0-57.6-48-104-108.8-104-62.4 0-92.8 44.8-92.8 44.8l17.6 19.2z" />
<glyph unicode="&#xe646;" d="M270.4 625.6c91.2 0 161.6-70.4 161.6-161.6 0-41.6-16-80-40-108.8l38.4-38.4-19.2-19.2-36.8 38.4c-27.2-24-64-36.8-104-36.8-89.6 0-160 73.6-160 164.8 1.6 91.2 72 161.6 160 161.6zM270.4 328c28.8 0 60.8 11.2 81.6 28.8l-38.4 40 19.2 19.2 38.4-38.4c17.6 22.4 28.8 54.4 28.8 86.4 0 75.2-56 132.8-129.6 132.8-72 0-128-57.6-128-132.8 1.6-76.8 57.6-136 128-136zM486.4 332.8h70.4v230.4c0 9.6 0 17.6 0 17.6h-1.6c0 0-3.2-6.4-16-19.2l-32-33.6-19.2 20.8 72 70.4h28.8v-286.4h68.8v-28.8h-171.2v28.8zM699.2 446.4c0 78.4 41.6 177.6 139.2 177.6 35.2 0 57.6-12.8 57.6-12.8l-11.2-27.2c0 0-19.2 11.2-46.4 11.2-65.6 0-99.2-65.6-105.6-126.4h1.6c16 22.4 46.4 36.8 80 36.8 57.6 0 97.6-41.6 97.6-102.4 0-65.6-43.2-105.6-99.2-105.6-68.8 1.6-113.6 64-113.6 148.8zM880 404.8c0 44.8-28.8 73.6-72 73.6-41.6 0-76.8-28.8-76.8-54.4 0-41.6 32-96 80-96 43.2 0 68.8 32 68.8 76.8z" />
<glyph unicode="&#xe647;" d="M288 625.6c91.2 0 161.6-70.4 161.6-161.6 0-41.6-16-80-40-108.8l38.4-38.4-19.2-19.2-36.8 38.4c-27.2-24-64-36.8-104-36.8-89.6 0-160 73.6-160 164.8s70.4 161.6 160 161.6zM288 328c28.8 0 60.8 11.2 81.6 28.8l-38.4 40 19.2 19.2 38.4-38.4c17.6 22.4 28.8 54.4 28.8 86.4 0 75.2-56 132.8-129.6 132.8-72 0-128-57.6-128-132.8 0-76.8 56-136 128-136zM504 332.8h70.4v230.4c0 9.6 0 17.6 0 17.6h-1.6c0 0-3.2-6.4-16-19.2l-32-33.6-19.2 20.8 72 70.4h28.8v-286.4h68.8v-28.8h-171.2v28.8zM857.6 563.2c8 17.6 17.6 28.8 17.6 28.8v0c0 0-8-1.6-24-1.6h-147.2v27.2h204.8v-20.8l-145.6-292.8h-32l126.4 259.2z" />
<glyph unicode="&#xe648;" d="M268.8 625.6c91.2 0 161.6-70.4 161.6-161.6 0-41.6-16-80-40-108.8l38.4-38.4-19.2-19.2-36.8 38.4c-27.2-24-64-36.8-104-36.8-89.6 0-160 73.6-160 164.8 1.6 91.2 72 161.6 160 161.6zM268.8 328c28.8 0 60.8 11.2 81.6 28.8l-38.4 40 19.2 19.2 38.4-38.4c17.6 22.4 28.8 54.4 28.8 86.4 0 75.2-56 132.8-129.6 132.8-72 0-128-57.6-128-132.8 1.6-76.8 57.6-136 128-136zM484.8 332.8h70.4v230.4c0 9.6 0 17.6 0 17.6h-1.6c0 0-3.2-6.4-16-19.2l-32-33.6-19.2 20.8 72 70.4h28.8v-286.4h68.8v-28.8h-171.2v28.8zM748.8 481.6c-22.4 14.4-38.4 33.6-38.4 64 0 40 32 80 94.4 80 59.2 0 96-32 96-81.6 0-44.8-35.2-81.6-38.4-84.8 25.6-14.4 46.4-35.2 46.4-67.2 0-49.6-43.2-91.2-104-91.2-57.6 0-107.2 36.8-107.2 96 0 49.6 44.8 80 51.2 84.8zM774.4 467.2c-9.6-6.4-44.8-30.4-44.8-72 0-43.2 36.8-68.8 75.2-68.8 36.8 0 72 25.6 72 62.4 0 43.2-56 56-102.4 78.4zM836.8 470.4c6.4 4.8 32 33.6 32 72 0 33.6-27.2 54.4-65.6 54.4-40 0-64-24-64-51.2 1.6-41.6 52.8-56 97.6-75.2z" />
<glyph unicode="&#xe649;" d="M270.4 625.6c91.2 0 161.6-70.4 161.6-161.6 0-41.6-16-80-40-108.8l38.4-38.4-19.2-19.2-36.8 38.4c-27.2-24-64-36.8-104-36.8-89.6 0-160 73.6-160 164.8 1.6 91.2 72 161.6 160 161.6zM270.4 328c28.8 0 60.8 11.2 81.6 28.8l-38.4 40 19.2 19.2 38.4-38.4c17.6 22.4 28.8 54.4 28.8 86.4 0 75.2-56 132.8-129.6 132.8-72 0-128-57.6-128-132.8 1.6-76.8 57.6-136 128-136zM486.4 332.8h70.4v230.4c0 9.6 0 17.6 0 17.6h-1.6c0 0-3.2-6.4-16-19.2l-32-33.6-19.2 20.8 72 70.4h28.8v-286.4h68.8v-28.8h-171.2v28.8zM710.4 312l11.2 27.2c0 0 19.2-11.2 46.4-11.2 65.6 0 99.2 65.6 105.6 126.4h-1.6c-16-22.4-48-36.8-80-36.8-57.6 0-97.6 41.6-97.6 102.4 0 65.6 43.2 105.6 99.2 105.6 68.8 0 113.6-62.4 113.6-147.2 0-78.4-40-177.6-139.2-177.6-33.6-1.6-57.6 11.2-57.6 11.2zM873.6 499.2c0 41.6-32 96-80 96-43.2 0-67.2-32-67.2-75.2 0-44.8 28.8-73.6 72-73.6 41.6 0 75.2 27.2 75.2 52.8z" />
<glyph unicode="&#xe64a;" d="M1020.8 448c0-280-227.2-508.8-508.8-508.8s-508.8 228.8-508.8 508.8 228.8 508.8 508.8 508.8 508.8-228.8 508.8-508.8zM296 291.2h171.2v27.2h-68.8v286.4h-30.4l-72-70.4 19.2-20.8 33.6 33.6c12.8 12.8 16 19.2 16 19.2h1.6c0 0 0-8 0-17.6v-230.4h-70.4v-27.2zM619.2 284.8c81.6 0 108.8 72 108.8 163.2s-27.2 163.2-108.8 163.2c-81.6 0-108.8-72-108.8-163.2s27.2-163.2 108.8-163.2zM619.2 313.6c-60.8 0-76.8 59.2-76.8 134.4s16 132.8 76.8 132.8c59.2 0 76.8-59.2 76.8-132.8 0-75.2-16-134.4-76.8-134.4z" />
<glyph unicode="&#xe64b;" d="M1020.8 448c0-280-227.2-508.8-508.8-508.8s-508.8 228.8-508.8 508.8 228.8 508.8 508.8 508.8 508.8-228.8 508.8-508.8zM321.6 291.2h171.2v27.2h-68.8v286.4h-28.8l-72-70.4 19.2-20.8 33.6 33.6c12.8 12.8 16 19.2 16 19.2h1.6c0 0 0-8 0-17.6v-230.4h-70.4v-27.2zM531.2 291.2h171.2v27.2h-68.8v286.4h-28.8l-72-70.4 19.2-20.8 33.6 33.6c12.8 12.8 16 19.2 16 19.2h1.6c0 0 0-8 0-17.6v-230.4h-70.4v-27.2z" />
<glyph unicode="&#xe64c;" d="M1020.8 448c0-280-227.2-508.8-508.8-508.8s-508.8 228.8-508.8 508.8 228.8 508.8 508.8 508.8 508.8-228.8 508.8-508.8zM307.2 288h171.2v27.2h-68.8v288h-28.8l-72-70.4 19.2-20.8 33.6 33.6c12.8 12.8 16 19.2 16 19.2h1.6c0 0 0-8 0-17.6v-230.4h-70.4v-28.8zM520 288h196.8v27.2h-164.8c0 83.2 160 99.2 160 204.8 0 49.6-35.2 88-96 88-67.2 0-96-57.6-96-57.6l24-16c0 0 24 43.2 70.4 43.2 40 0 65.6-25.6 65.6-60.8 0-84.8-161.6-99.2-161.6-209.6 0-4.8 0-12.8 1.6-19.2z" />
<glyph unicode="&#xe64d;" d="M1020.8 448c0-280-227.2-508.8-508.8-508.8s-508.8 228.8-508.8 508.8 228.8 508.8 508.8 508.8 508.8-228.8 508.8-508.8zM308.8 292.8h171.2v27.2h-68.8v288h-28.8l-72-70.4 19.2-20.8 33.6 33.6c12.8 12.8 16 19.2 16 19.2h1.6c0 0 0-8 0-17.6v-230.4h-70.4v-28.8zM512 331.2c0 0 38.4-43.2 99.2-43.2 59.2 0 104 44.8 104 99.2 0 68.8-59.2 91.2-99.2 92.8l94.4 108.8v19.2h-184v-27.2h118.4c16 0 25.6 1.6 25.6 1.6v-1.6c0 0-8-8-16-17.6l-78.4-92.8 8-17.6h20.8c41.6 0 80-22.4 80-67.2 0-40-35.2-68.8-72-68.8-48 0-80 36.8-80 36.8l-20.8-22.4z" />
<glyph unicode="&#xe64e;" d="M1020.8 448c0-280-227.2-508.8-508.8-508.8s-508.8 228.8-508.8 508.8 228.8 508.8 508.8 508.8 508.8-228.8 508.8-508.8zM299.2 291.2h171.2v27.2h-68.8v286.4h-28.8l-72-70.4 19.2-20.8 33.6 33.6c12.8 12.8 16 19.2 16 19.2h1.6c0 0 0-8 0-17.6v-230.4h-70.4v-27.2zM491.2 377.6h158.4v-88h30.4v88h44.8v27.2h-44.8v200h-33.6l-155.2-208v-19.2zM528 404.8v0l105.6 137.6c8 11.2 16 24 16 24h1.6c0 0-1.6-16-1.6-28.8v-131.2h-121.6z" />
<glyph unicode="&#xe64f;" d="M1020.8 448c0-280-227.2-508.8-508.8-508.8s-508.8 228.8-508.8 508.8 228.8 508.8 508.8 508.8 508.8-228.8 508.8-508.8zM307.2 292.8h171.2v27.2h-68.8v288h-28.8l-72-70.4 19.2-20.8 33.6 33.6c12.8 12.8 16 19.2 16 19.2h1.6c0 0 0-8 0-17.6v-230.4h-70.4v-28.8zM515.2 332.8c0 0 28.8-44.8 92.8-44.8 60.8 0 108.8 44.8 108.8 104 0 57.6-44.8 102.4-108.8 102.4-28.8 0-48-12.8-48-12.8v0c0 0 1.6 6.4 3.2 17.6l9.6 80h124.8v28.8h-153.6l-16-152 19.2-6.4c0 0 24 17.6 57.6 17.6 44.8 0 80-30.4 80-73.6s-35.2-73.6-78.4-73.6c-48 0-72 36.8-72 36.8l-19.2-24z" />
<glyph unicode="&#xe650;" d="M512 956.8c280 0 508.8-227.2 508.8-508.8s-228.8-508.8-508.8-508.8-508.8 228.8-508.8 508.8 228.8 508.8 508.8 508.8zM761.6 318.4v209.6c0 38.4-32 68.8-68.8 68.8h-24l-6.4 16c-8 19.2-25.6 33.6-43.2 33.6h-112c-17.6 0-36.8-14.4-43.2-33.6l-6.4-16h-54.4v11.2c0 4.8-4.8 9.6-9.6 9.6h-70.4c-4.8 0-9.6-4.8-9.6-9.6v-12.8c-28.8-8-49.6-35.2-49.6-67.2v-209.6c0-38.4 32-68.8 68.8-68.8h360c36.8-1.6 68.8 30.4 68.8 68.8zM382.4 598.4v-11.2c0-4.8 4.8-9.6 9.6-9.6h70.4c3.2 0 8 3.2 9.6 6.4l8 22.4c4.8 12.8 17.6 20.8 25.6 20.8h112c8 0 20.8-8 25.6-20.8l9.6-22.4c1.6-3.2 4.8-6.4 9.6-6.4h30.4c27.2 0 51.2-22.4 51.2-51.2v-209.6c0-27.2-22.4-51.2-51.2-51.2h-360c-27.2 0-51.2 22.4-51.2 51.2v211.2c0 24 17.6 44.8 41.6 49.6 4.8 0 8 4.8 8 9.6v11.2h51.2zM312 532.8c-3.2-14.4 9.6-27.2 24-24 6.4 1.6 12.8 8 14.4 14.4 3.2 14.4-9.6 27.2-24 24-6.4-1.6-12.8-8-14.4-14.4zM659.2 342.4c24 27.2 35.2 65.6 32 102.4-8 57.6-54.4 104-112 112-43.2 4.8-86.4-11.2-113.6-43.2-24-27.2-35.2-65.6-32-102.4 8-57.6 54.4-104 112-112 6.4 0 11.2-1.6 17.6-1.6v0c35.2 0 72 17.6 96 44.8zM576 537.6c49.6-6.4 89.6-46.4 94.4-94.4 4.8-32-4.8-64-27.2-88-24-27.2-59.2-41.6-97.6-36.8-49.6 6.4-89.6 46.4-94.4 94.4-4.8 32 4.8 64 27.2 88 20.8 24 51.2 36.8 83.2 36.8 4.8 1.6 9.6 0 14.4 0z" />
<glyph unicode="&#xe651;" d="M1019.2 448c0-280-227.2-508.8-508.8-508.8s-507.2 228.8-507.2 508.8 228.8 508.8 508.8 508.8 507.2-228.8 507.2-508.8zM494.4 403.2h35.2l3.2 160h-41.6l3.2-160zM492.8 334.4h38.4v36.8h-38.4v-36.8zM516.8 166.4c3.2 1.6 62.4 32 123.2 105.6 56 67.2 121.6 184 121.6 358.4v8l-8 1.6c-84.8 19.2-134.4 44.8-171.2 64-28.8 14.4-48 25.6-70.4 25.6s-43.2-9.6-70.4-25.6c-36.8-19.2-86.4-44.8-171.2-64l-8-1.6v-8c0-180.8 67.2-297.6 121.6-363.2 60.8-72 120-99.2 123.2-100.8l4.8-1.6 4.8 1.6zM449.6 688c25.6 12.8 44.8 24 62.4 24s35.2-9.6 62.4-24c36.8-19.2 86.4-44.8 168-64-3.2-294.4-200-419.2-230.4-438.4-32 16-227.2 132.8-230.4 436.8 83.2 20.8 132.8 46.4 168 65.6z" />
<glyph unicode="&#xe652;" d="M508 957.067c-280 0-508.8-228.8-508.8-508.8s228.8-508.8 508.8-508.8 508.8 228.8 508.8 508.8-228.8 508.8-508.8 508.8zM756.8 378.133l-80 233.067c0 1.6-4.267 9.333-5.867 10.933s-30.933 37.067-62.933 41.867c-17.6 3.2-35.2-0.533-51.2-5.333-6.4-1.6-20.8-5.867-27.2-7.467v16c0 16-10.133 28.8-26.133 28.8s-28.267-12.8-28.267-28.8v-2.133c-4.8 3.2-3.067 2.4-8 5.333-14.4 9.6-27.2 20.8-44.8 24-33.6 4.8-75.2-17.6-76.8-19.2 0 0-4.8-3.2-6.4-4.8l-80-231.733c0 0 0 1.333 0-0.267v-2.133c13.6-37.6 50.667-52 86.933-51.6 39.2 0.4 73.067 19.6 85.867 51.6 0 0 0 0.8 0 2.4l-78.4 225.333c9.6 4.8 40 19.2 62.4 16 12.8-1.6 25.6-9.867 38.4-19.467 6.4-4.8 14.4-10.933 20.8-15.733v-398.4h-67.2c-17.6 0-33.6-14.4-33.6-33.6v-4.8c0-4.8 3.2-8 8-8h240c4.8 0 8 3.2 8 8v4.8c0 17.6-14.4 33.6-33.6 33.6h-67.2v388.8c9.2 2 15.2 3.867 24 6.4 14.4 4.8 28.8 9.6 43.2 6.4 27.2-4.8 56-38.4 56-38.4v0l-80-231.467v-1.067c12.8-32 54.933-56.8 93.333-56.8s76.267 24.8 90.667 56.8c0 1.2 0-0.533 0 1.067zM344.8 643.2l68.8-198.4h-137.6l68.8 198.4zM344.8 396.8c-27.2 0-52.8 12.8-67.2 33.6h134.4c-14.4-20.8-40-33.6-67.2-33.6zM614.133 216h-224c1.6 8 8 14.4 16 14.4h190.4c9.6 0 16-6.4 17.6-14.4zM489.333 246.4v422.4c0 6.4 4.8 12.8 12.8 12.8s12.8-4.8 12.8-12.8v-422.4h-25.6zM733.6 385.6h-137.6l68.8 198.4 68.8-198.4zM664.8 336c-27.2 0-52.8 12.8-67.2 33.6h134.4c-14.4-20.8-40-33.6-67.2-33.6z" horiz-adv-x="1018" />
<glyph unicode="&#xe653;" d="M1020.8 448c0-280-227.2-508.8-508.8-508.8s-508.8 228.8-508.8 508.8 228.8 508.8 508.8 508.8 508.8-228.8 508.8-508.8zM593.6 387.2v-99.2c0-4.8 3.2-8 8-8h60.8c4.8 0 8 3.2 8 8v99.2c0 4.8-3.2 8-8 8h-60.8c-4.8 1.6-8-3.2-8-8zM609.6 380.8h44.8v-83.2h-44.8v83.2zM422.4 396.8h-60.8c-4.8 0-8-3.2-8-8v-100.8c0-4.8 3.2-8 8-8h60.8c4.8 0 8 3.2 8 8v99.2c0 4.8-3.2 9.6-8 9.6zM414.4 296h-44.8v83.2h44.8v-83.2zM752 686.4h-480c-4.8 0-8-3.2-8-8v-230.4c0-4.8 3.2-8 8-8h22.4v-222.4c0-4.8 3.2-8 8-8h419.2c4.8 0 8 3.2 8 8v222.4h22.4c4.8 0 8 3.2 8 8v230.4c0 4.8-3.2 8-8 8zM555.2 225.6h-84.8c0 0 0 1.6 0 1.6v110.4c0 22.4 19.2 41.6 41.6 41.6s41.6-19.2 41.6-41.6v-110.4c0 0 0 0 1.6-1.6zM713.6 225.6h-144c0 0 0 1.6 0 1.6v110.4c0 32-25.6 57.6-57.6 57.6s-57.6-25.6-57.6-57.6v-110.4c0 0 0-1.6 0-1.6h-144v214.4h112c3.2 0 4.8 1.6 6.4 3.2l83.2 129.6 83.2-129.6c1.6-1.6 4.8-3.2 6.4-3.2h112v-214.4zM744 456h-137.6l-88 136c-3.2 4.8-11.2 4.8-12.8 0l-88-136h-137.6v214.4h464v-214.4z" />
<glyph unicode="&#xe654;" d="M1020.8 448c0-280-227.2-508.8-508.8-508.8s-508.8 228.8-508.8 508.8 228.8 508.8 508.8 508.8 508.8-228.8 508.8-508.8zM820.8 596.8c-8 19.2-40 38.4-81.6 38.4-20.8 0-43.2-4.8-64-14.4 0 0-59.2-27.2-129.6-57.6l-142.4 44.8c-19.2 6.4-41.6 6.4-54.4 0l-19.2-8c-6.4-3.2-9.6-8-9.6-12.8 0-11.2 11.2-17.6 19.2-22.4l88-54.4c-57.6-25.6-104-46.4-107.2-48-6.4-3.2-9.6 0-17.6 6.4-17.6 12.8-41.6 30.4-49.6 36.8-4.8 4.8-12.8 6.4-20.8 6.4-11.2 0-22.4-4.8-27.2-12.8-3.2-6.4-4.8-12.8-1.6-20.8l44.8-99.2c4.8-11.2 17.6-25.6 52.8-25.6 40 0 104 19.2 182.4 54.4l22.4 9.6-30.4-158.4c-3.2-12.8-3.2-20.8 1.6-27.2 3.2-3.2 6.4-4.8 11.2-4.8 1.6 0 4.8 0 6.4 1.6l19.2 8c12.8 4.8 27.2 22.4 35.2 40l94.4 203.2c176 84.8 185.6 102.4 177.6 116.8zM347.2 580.8c-1.6 1.6-3.2 1.6-4.8 3.2l12.8 6.4c6.4 3.2 25.6 3.2 40-1.6l121.6-36.8c-24-11.2-48-20.8-70.4-30.4l-99.2 59.2zM632 497.6c-1.6-1.6-3.2-3.2-4.8-4.8l-96-206.4c-6.4-14.4-19.2-27.2-25.6-30.4l-12.8-6.4c0 1.6 0 3.2 1.6 6.4l33.6 177.6c0 3.2 0 6.4-3.2 9.6-1.6 1.6-3.2 1.6-6.4 1.6-1.6 0-3.2 0-3.2-1.6l-38.4-17.6c-96-43.2-148.8-52.8-174.4-52.8-12.8 0-30.4 1.6-35.2 12.8l-44.8 99.2c0 0-1.6 1.6 0 3.2s4.8 3.2 11.2 3.2c3.2 0 8-1.6 9.6-1.6 8-6.4 32-24 49.6-36.8 8-4.8 16-11.2 25.6-11.2 3.2 0 8 1.6 11.2 3.2 4.8 1.6 59.2 25.6 124.8 56 0 0 0 0 0 0 102.4 44.8 230.4 102.4 230.4 102.4 19.2 8 38.4 12.8 56 12.8 33.6 0 56-14.4 64-25.6-8-6.4-35.2-28.8-172.8-92.8z" />
<glyph unicode="&#xe655;" d="M1020.8 448c0-280-227.2-508.8-508.8-508.8s-508.8 228.8-508.8 508.8 228.8 508.8 508.8 508.8 508.8-228.8 508.8-508.8zM753.6 640c-84.8 19.2-134.4 44.8-171.2 64-28.8 14.4-48 25.6-70.4 25.6s-43.2-9.6-70.4-25.6c-36.8-19.2-86.4-44.8-171.2-64l-8-1.6v-8c0-180.8 67.2-297.6 121.6-363.2 60.8-72 120-99.2 123.2-100.8l4.8-1.6 4.8 1.6c3.2 1.6 62.4 32 123.2 105.6 56 67.2 121.6 184 121.6 358.4v8l-8 1.6zM512 185.6c-32 16-227.2 132.8-230.4 436.8 83.2 19.2 132.8 44.8 168 64 25.6 12.8 44.8 24 62.4 24s35.2-9.6 62.4-24c36.8-19.2 86.4-44.8 168-64-3.2-292.8-200-417.6-230.4-436.8zM392 464c0-65.6 54.4-120 120-120s120 54.4 120 120-54.4 120-120 120-120-54.4-120-120zM616 464c0-30.4-14.4-59.2-35.2-78.4-17.6 11.2-41.6 14.4-46.4 27.2 0 6.4 0 12.8 0 19.2 3.2 1.6 9.6 12.8 9.6 22.4 3.2 0 6.4 3.2 8 12.8 0 4.8-1.6 8-3.2 9.6 4.8 12.8 12.8 51.2-16 56-3.2 4.8-11.2 8-20.8 8-40 0-44.8-30.4-35.2-64-1.6-1.6-4.8-3.2-3.2-9.6 1.6-9.6 4.8-12.8 8-12.8 1.6-9.6 6.4-20.8 9.6-22.4 0-6.4 0-11.2 0-19.2-4.8-14.4-28.8-16-46.4-27.2-20.8 19.2-35.2 46.4-35.2 78.4 0 57.6 46.4 104 104 104s102.4-46.4 102.4-104z" />
<glyph unicode="&#xe656;" d="M1020.8 448c0-280-227.2-508.8-508.8-508.8s-508.8 228.8-508.8 508.8 228.8 508.8 508.8 508.8 508.8-228.8 508.8-508.8zM705.6 558.4l-144 144c-1.6 1.6-4.8 3.2-6.4 3.2h-228.8c-4.8 0-9.6-4.8-9.6-9.6v-496c0-4.8 4.8-9.6 9.6-9.6h372.8c4.8 0 9.6 4.8 9.6 9.6v352c-1.6 1.6-1.6 4.8-3.2 6.4zM563.2 673.6l112-112h-112v112zM688 209.6h-352v476.8h208c0 0 0 0 0 0v-134.4c0-4.8 4.8-9.6 9.6-9.6h134.4c0 0 0 0 0 0v-332.8zM427.2 504h-38.4v-100.8h17.6v35.2h20.8c19.2 0 32 14.4 32 33.6s-12.8 32-32 32zM424 452.8h-17.6v35.2h17.6c11.2 0 16-6.4 16-17.6 1.6-9.6-4.8-17.6-16-17.6zM512 504h-35.2v-100.8h35.2c32 0 51.2 19.2 51.2 51.2s-19.2 49.6-51.2 49.6zM510.4 417.6h-14.4v68.8h14.4c20.8 0 33.6-12.8 33.6-35.2 0-20.8-12.8-33.6-33.6-33.6zM584 504h57.6v-16h-40v-28.8h33.6v-16h-33.6v-41.6h-17.6v102.4z" />
<glyph unicode="&#xe657;" d="M1017.6 448c0-280-227.2-508.8-508.8-508.8s-508.8 228.8-508.8 508.8 228.8 508.8 508.8 508.8 508.8-228.8 508.8-508.8zM811.2 592c-89.6 64-193.6 97.6-304 97.6-108.8 0-214.4-33.6-302.4-97.6-4.8-3.2-6.4-9.6-3.2-16l120-225.6c1.6-3.2 4.8-4.8 8-6.4s6.4 0 9.6 1.6l4.8 3.2c30.4 17.6 73.6 41.6 123.2 52.8l17.6-36.8c-19.2-9.6-32-28.8-32-52.8 0-32 25.6-59.2 59.2-59.2s59.2 25.6 59.2 59.2c0 32-25.6 59.2-59.2 59.2-1.6 0-1.6 0-3.2 0l-16 35.2c6.4 0 12.8 1.6 17.6 1.6 67.2 0 126.4-35.2 166.4-57.6l4.8-3.2c1.6-1.6 3.2-1.6 6.4-1.6 1.6 0 1.6 0 3.2 0 3.2 1.6 6.4 3.2 8 6.4l116.8 224c1.6 4.8 0 12.8-4.8 16zM546.667 312c0-19.2-16-35.2-35.2-35.2s-35.2 16-35.2 35.2 16 35.2 35.2 35.2c19.2 0 35.2-17.6 35.2-35.2zM680 372.8c-41.6 24-102.4 57.6-171.2 57.6-9.6 0-19.2 0-28.8-1.6l-80 177.6c-3.2 6.4-9.6 8-16 6.4-6.4-3.2-8-9.6-6.4-16l78.4-172.8c-46.4-11.2-88-33.6-118.4-51.2l-108.8 204.8c83.2 56 179.2 86.4 280 86.4s198.4-30.4 281.6-86.4l-110.4-204.8z" horiz-adv-x="1018" />
<glyph unicode="&#xe658;" d="M1017.6 448c0-280-227.2-508.8-508.8-508.8s-508.8 228.8-508.8 508.8 228.8 508.8 508.8 508.8 508.8-228.8 508.8-508.8zM672 521.6c-9.6 1.6-40 33.6-67.2 68.8 0 0 0 1.6-1.6 1.6-12.8 12.8-28.8 28.8-57.6 28.8h-171.2c-25.6 0-40-25.6-54.4-51.2-12.8-24-27.2-48-46.4-48h-25.6c-30.4 0-49.6-17.6-49.6-49.6v-102.4c0-19.2 16-33.6 36.8-33.6h25.6c6.4-35.2 35.2-62.4 72-62.4s67.2 27.2 72 62.4h200c6.4-35.2 35.2-62.4 72-62.4s67.2 27.2 72 62.4h32c19.2 0 36.8 17.6 36.8 36.8v75.2c-1.6 41.6-121.6 68.8-145.6 73.6zM585.6 576c8-11.2 27.2-35.2 46.4-54.4h-148.8v75.2h62.4c19.2 0 28.8-9.6 40-20.8zM342.4 558.4c11.2 19.2 20.8 38.4 33.6 38.4h84.8v-75.2h-140.8c8 11.2 14.4 24 22.4 36.8zM332.8 299.2c-27.2 0-50.4 22.4-50.4 49.6s23.2 49.6 50.4 49.6 48.8-22.4 48.8-49.6c0-27.2-21.6-49.6-48.8-49.6zM676.8 299.2c-27.2 0-50.133 22.4-50.133 49.6s22.933 49.6 50.133 49.6c27.2 0 49.067-22.4 49.067-49.6s-21.867-49.6-49.067-49.6zM793.6 374.4c0-6.4-6.4-12.8-12.8-12.8h-32c-6.4 35.2-35.2 62.4-72 62.4s-67.2-27.2-72-62.4h-200c-6.4 35.2-35.2 62.4-72 62.4s-67.2-27.2-72-62.4h-24c-4.8 0-12.8 1.6-12.8 9.6v102.4c0 17.6 8 25.6 25.6 25.6h419.2c73.6-14.4 123.2-40 124.8-49.6v-75.2z" horiz-adv-x="1018" />
<glyph unicode="&#xe659;" d="M241.6 625.6c91.2 0 161.6-70.4 161.6-161.6 0-41.6-16-80-40-108.8l38.4-38.4-17.6-19.2-38.4 38.4c-27.2-24-64-36.8-104-36.8-89.6 0-160 73.6-160 164.8 1.6 91.2 72 161.6 160 161.6zM241.6 328c28.8 0 60.8 11.2 81.6 28.8l-38.4 40 19.2 19.2 38.4-38.4c17.6 22.4 28.8 54.4 28.8 86.4 0 75.2-56 132.8-129.6 132.8-72 0-128-57.6-128-132.8 1.6-76.8 57.6-136 128-136zM459.2 324.8c0 110.4 161.6 124.8 161.6 209.6 0 35.2-25.6 60.8-65.6 60.8-46.4 0-70.4-43.2-70.4-43.2l-24 16c0 0 28.8 57.6 96 57.6 60.8 0 96-38.4 96-88 0-105.6-158.4-120-160-204.8h164.8v-28.8h-196.8c-1.6 8-1.6 14.4-1.6 20.8zM716.8 462.4c0 91.2 27.2 163.2 108.8 163.2s108.8-72 108.8-163.2c0-91.2-27.2-163.2-108.8-163.2s-108.8 72-108.8 163.2zM902.4 462.4c0 75.2-16 132.8-76.8 132.8s-76.8-59.2-76.8-132.8c0-75.2 16-134.4 76.8-134.4 59.2 0 76.8 59.2 76.8 134.4z" />
<glyph unicode="&#xe65a;" d="M363.2 225.6l91.2 196.8-211.2 25.6c-8-92.8 40-179.2 120-222.4zM427.2 196.8c27.2-11.2 56-17.6 86.4-17.6 60.8 0 118.4 24 161.6 65.6l-156.8 147.2-91.2-195.2zM422.4 700.8c-88-22.4-155.2-96-171.2-187.2l212.8-25.6-41.6 212.8zM716.8 604.8c-36.8 59.2-99.2 99.2-168 108.8-19.2 3.2-40 1.6-60.8 0l40-212.8 188.8 104zM569.6 441.6l156.8-147.2c59.2 70.4 70.4 169.6 30.4 252.8l-187.2-105.6zM512 956.8c-280 0-508.8-228.8-508.8-508.8s228.8-508.8 508.8-508.8 508.8 228.8 508.8 508.8-228.8 508.8-508.8 508.8zM473.6 734.4c25.6 4.8 52.8 6.4 80 3.2 80-9.6 152-59.2 192-131.2 3.2-6.4 1.6-12.8-4.8-16l-212.8-121.6c-1.6-1.6-3.2-1.6-6.4-1.6-1.6 0-3.2 0-4.8 1.6-3.2 1.6-6.4 4.8-6.4 9.6l-46.4 241.6c-1.6 6.4 3.2 12.8 9.6 14.4zM428.8 728c3.2 0 6.4 0 9.6-1.6s4.8-4.8 4.8-8l46.4-241.6c0-3.2 0-8-3.2-11.2-1.6-3.2-4.8-3.2-9.6-3.2 0 0-1.6 0-1.6 0l-241.6 30.4c-6.4 1.6-11.2 6.4-11.2 14.4 16 108.8 97.6 198.4 206.4 220.8zM374.4 196.8c-1.6 0-3.2 0-4.8 0s-3.2 0-4.8 1.6c-100.8 48-158.4 153.6-145.6 265.6 0 3.2 1.6 6.4 4.8 8s6.4 3.2 9.6 3.2l241.6-30.4c3.2 0 8-3.2 9.6-6.4s1.6-8 0-11.2l-102.4-224c-3.2-3.2-4.8-4.8-8-6.4zM699.2 238.4c-48-52.8-116.8-83.2-187.2-83.2-36.8 0-73.6 8-107.2 24-6.4 3.2-8 9.6-6.4 16l102.4 224c1.6 3.2 4.8 6.4 8 6.4s8 0 11.2-3.2l179.2-166.4c4.8-4.8 4.8-12.8 0-17.6zM736 267.2c-1.6-3.2-4.8-3.2-8-3.2 0 0 0 0 0 0-3.2 0-6.4 1.6-8 3.2l-179.2 168c-3.2 3.2-4.8 6.4-3.2 11.2 0 3.2 3.2 8 6.4 9.6l212.8 120c3.2 1.6 6.4 1.6 9.6 1.6 3.2-1.6 6.4-3.2 8-6.4 51.2-100.8 36.8-220.8-38.4-304z" />
<glyph unicode="&#xe65b;" d="M512 956.8c-280 0-508.8-228.8-508.8-508.8s228.8-508.8 508.8-508.8 508.8 228.8 508.8 508.8-228.8 508.8-508.8 508.8zM782.4 297.6c-1.6-4.8-4.8-8-9.6-9.6 0 0-4.8-1.6-12.8-4.8l-9.6-43.2c-3.2-19.2-24-27.2-27.2-27.2-70.4-20.8-140.8-28.8-203.2-28.8-123.2 0-216 28.8-217.6 28.8-28.8 9.6-32 22.4-33.6 28.8l-8 41.6c-4.8 1.6-9.6 3.2-12.8 4.8-1.6 0-3.2 1.6-4.8 3.2-3.2 4.8-11.2 22.4 11.2 68.8 1.6 36.8 8 153.6 28.8 217.6 1.6 4.8 6.4 25.6 27.2 32 1.6 0 83.2 17.6 134.4 30.4v33.6c0 6.4 0 14.4 4.8 19.2 3.2 3.2 6.4 4.8 11.2 4.8 8 3.2 38.4 12.8 49.6 12.8 9.6 0 40-9.6 49.6-12.8 4.8 0 8-1.6 11.2-4.8 4.8-4.8 4.8-12.8 4.8-19.2v-33.6l129.6-28.8c0 0 25.6-4.8 32-28.8 3.2-8 22.4-59.2 30.4-222.4v-1.6c14.4-32 19.2-49.6 14.4-60.8zM283.2 276.8l6.4-32c0 0 0 0 0-1.6s3.2-6.4 20.8-12.8c1.6 0 204.8-62.4 408 0 4.8 1.6 14.4 6.4 14.4 12.8 0 0 0 0 0 1.6l8 32c-44.8-12.8-131.2-32-236.8-32-68.8 1.6-144 9.6-220.8 32zM558.4 643.2v32c0 1.6 0 3.2 0 4.8 0 0-1.6 0-1.6 0-17.6 6.4-40 11.2-44.8 11.2s-27.2-6.4-44.8-11.2c0 0-1.6 0-1.6 0 0-1.6 0-3.2 0-4.8v-30.4c24 1.6 72 0 92.8-1.6zM516.8 518.4c-36.8 0-65.6-11.2-86.4-35.2-43.2-49.6-40-134.4-38.4-158.4 16-3.2 60.8-9.6 120-9.6v0c41.6 0 81.6 3.2 121.6 9.6 3.2 28.8 6.4 115.2-35.2 161.6-20.8 20.8-48 32-81.6 32zM750.4 355.2c-1.6 0-1.6 0 0 0v0c0 0 0 1.6 0 1.6s0 1.6 0 1.6c-9.6 172.8-30.4 217.6-30.4 217.6s0 1.6-1.6 3.2c-1.6 11.2-17.6 14.4-17.6 14.4l-136 30.4c-25.6 1.6-91.2 3.2-107.2 0-49.6-11.2-140.8-30.4-140.8-32-11.2-3.2-12.8-17.6-12.8-17.6s0-1.6 0-1.6c-20.8-62.4-27.2-180.8-28.8-216 0 0 0 0 0 0s0-1.6 0-1.6c0 0 0-1.6 0-1.6s0 0 0 0c-14.4-30.4-14.4-44.8-14.4-49.6 248-86.4 488-4.8 505.6 1.6 0 3.2 0 12.8-14.4 46.4l-1.6 3.2zM649.6 313.6c0-4.8-3.2-8-8-8-41.6-8-86.4-11.2-131.2-11.2v0c-76.8 0-128 11.2-131.2 11.2-3.2 1.6-6.4 4.8-8 8 0 4.8-12.8 116.8 43.2 180.8 24 27.2 59.2 41.6 100.8 41.6 40 0 72-12.8 94.4-38.4 51.2-56 43.2-155.2 40-184z" />
<glyph unicode="&#xe65c;" d="M427.2 484.8c-4.8 0-17.6-12.8-17.6-30.4 0-9.6 8-24 16-24s16 14.4 16 33.6c0 9.6-9.6 20.8-14.4 20.8zM512 956.8c-280 0-508.8-228.8-508.8-508.8s228.8-508.8 508.8-508.8 508.8 228.8 508.8 508.8-228.8 508.8-508.8 508.8zM764.8 630.4c0-176-67.2-292.8-123.2-360-60.8-73.6-121.6-104-123.2-105.6l-6.4-3.2-4.8 3.2c-3.2 1.6-62.4 30.4-124.8 102.4-56 65.6-123.2 182.4-123.2 364.8v8l9.6 1.6c84.8 19.2 134.4 44.8 171.2 64 28.8 14.4 49.6 25.6 72 25.6s43.2-11.2 72-25.6c36.8-19.2 86.4-44.8 171.2-64l9.6-1.6v-9.6zM512 708.8c-17.6 0-35.2-9.6-60.8-22.4-36.8-19.2-84.8-44.8-168-64 4.8-299.2 193.6-414.4 228.8-433.6 33.6 20.8 224 144 228.8 432-81.6 19.2-131.2 44.8-168 64-25.6 14.4-43.2 24-60.8 24zM390.4 454.4c0 25.6 17.6 49.6 36.8 49.6 17.6 0 33.6-19.2 33.6-41.6 0-25.6-12.8-52.8-35.2-52.8-20.8 0-35.2 25.6-35.2 44.8zM558.4 352c-8 0-17.6 1.6-24 3.2-8 1.6-16 3.2-24 3.2s-12.8-1.6-19.2-3.2c-8-1.6-16-4.8-27.2-4.8-22.4 0-35.2 16-35.2 32 0 17.6 9.6 25.6 19.2 33.6 4.8 3.2 8 6.4 12.8 11.2 3.2 3.2 6.4 8 9.6 11.2 9.6 12.8 20.8 24 38.4 24 19.2 0 28.8-14.4 36.8-27.2 3.2-4.8 6.4-9.6 9.6-12.8 3.2-4.8 9.6-6.4 16-9.6 11.2-4.8 25.6-11.2 25.6-27.2 0-14.4-4.8-33.6-38.4-33.6zM612.8 502.4c6.4-1.6 12.8-6.4 16-14.4 6.4-11.2 6.4-27.2 1.6-40-9.6-24-25.6-40-41.6-40-1.6 0-4.8 0-6.4 0-9.6 1.6-16 8-20.8 16-4.8 11.2-3.2 27.2 4.8 41.6 12.8 28.8 30.4 41.6 46.4 36.8zM587.2 532.8c0-28.8-14.4-57.6-41.6-57.6-25.6 0-32 33.6-33.6 52.8-3.2-41.6-20.8-48-32-48-24 0-36.8 33.6-36.8 51.2 0 22.4 12.8 46.4 38.4 46.4 17.6 0 32-19.2 32-40 1.6 19.2 16 40 40 40 12.8 0 33.6-14.4 33.6-44.8zM563.2 393.6c-8 3.2-17.6 8-24 16-3.2 4.8-8 9.6-11.2 14.4-8 12.8-12.8 19.2-20.8 19.2s-14.4-6.4-24-17.6c-3.2-4.8-6.4-8-11.2-12.8s-9.6-9.6-14.4-12.8-12.8-9.6-12.8-17.6c0 0 0-12.8 16-12.8 8 0 16 1.6 22.4 4.8 8 1.6 14.4 4.8 25.6 4.8 9.6 0 19.2-1.6 27.2-3.2s14.4-3.2 20.8-3.2c19.2 0 19.2 6.4 19.2 12.8 1.6 1.6-1.6 3.2-12.8 8zM531.2 532.8c0-16 6.4-38.4 14.4-38.4 12.8 0 22.4 20.8 22.4 38.4s-11.2 25.6-14.4 25.6c-16 0-22.4-16-22.4-25.6zM512 537.6c0-1.6 0-3.2 0-4.8s0-3.2 0-4.8c0 1.6 0 4.8 0 9.6 0 0 0 0 0 0zM480 558.4c-12.8 0-19.2-16-19.2-27.2 0-12.8 9.6-32 17.6-32 12.8 0 14.4 28.8 14.4 38.4 0 11.2-8 20.8-12.8 20.8zM579.2 435.2c1.6-3.2 3.2-4.8 8-6.4 9.6-1.6 19.2 9.6 25.6 27.2 3.2 8 1.6 19.2-1.6 24-1.6 3.2-3.2 3.2-3.2 3.2s0 0 0 0c-6.4 0-16-6.4-24-24-6.4-8-8-17.6-4.8-24z" />
<glyph unicode="&#xe65d;" d="M512 952c-278.4 0-504-225.6-504-504s225.6-504 504-504 504 225.6 504 504-225.6 504-504 504zM542.4 208c0-4.8-3.2-8-8-8h-46.4c-4.8 0-8 3.2-8 8v331.2c0 4.8 3.2 8 8 8h46.4c4.8 0 8-3.2 8-8v-331.2zM544 632c0-4.8-3.2-8-8-8h-49.6c-4.8 0-8 3.2-8 8v52.8c0 4.8 3.2 8 8 8h49.6c4.8 0 8-3.2 8-8v-52.8z" />
<glyph unicode="&#xe65e;" d="M553.6 542.4c-4.8 0-9.6 4.8-9.6 9.6v134.4c0 0 0 0 0 0h-208v-476.8h352v332.8c0 0 0 0 0 0h-134.4zM512 956.8c-280 0-508.8-228.8-508.8-508.8s228.8-507.2 508.8-507.2 508.8 227.2 508.8 507.2-228.8 508.8-508.8 508.8zM707.2 200c0-4.8-4.8-9.6-9.6-9.6h-371.2c-4.8 0-9.6 4.8-9.6 9.6v496c0 4.8 4.8 9.6 9.6 9.6h227.2c3.2 0 4.8-1.6 6.4-3.2l144-144c1.6-1.6 3.2-4.8 3.2-6.4v-352zM563.2 673.6v-112h112z" />
<glyph unicode="&#xe65f;" d="M678.4 699.2c-20.8 0-38.4-17.6-38.4-38.4 0-22.4 17.6-40 38.4-40 22.4 0 40 17.6 40 40 0 20.8-17.6 38.4-40 38.4zM566.4 425.6c-1.6 17.6-16 30.4-27.2 38.4-4.8 3.2-20.8 14.4-48 33.6-3.2 1.6-4.8 4.8-4.8 8s1.6 6.4 4.8 8l20.8 14.4-76.8 44.8c-6.4-8-11.2-14.4-11.2-14.4-9.6-14.4-14.4-28.8-11.2-43.2 3.2-20.8 17.6-35.2 27.2-41.6s17.6-12.8 27.2-17.6c9.6-6.4 20.8-12.8 27.2-17.6 24-19.2 16-36.8 8-48s-48-60.8-60.8-76.8l33.6-17.6c0 0 0 0 0 0s40 44.8 76.8 91.2c11.2 12.8 16 25.6 14.4 38.4zM547.2 552c3.2 1.6 8 1.6 11.2 0s4.8-6.4 4.8-9.6c-1.6-11.2-3.2-32 0-41.6 1.6-4.8 16-17.6 92.8-49.6 9.6-4.8 16-4.8 19.2-4.8-1.6 3.2-3.2 8-12.8 14.4-9.6 8-56 35.2-73.6 44.8-4.8 3.2-6.4 8-3.2 12.8 0 0 24 57.6 24 84.8 0 24-25.6 36.8-41.6 40-49.6 8-94.4-27.2-120-56l81.6-48 17.6 12.8zM512 955.2c-280 0-508.8-227.2-508.8-507.2s228.8-508.8 508.8-508.8 508.8 228.8 508.8 508.8-228.8 507.2-508.8 507.2zM724.8 203.2c-14.4-19.2-33.6-25.6-52.8-25.6-14.4 0-28.8 3.2-36.8 8l-408 222.4c-4.8 3.2-6.4 8-3.2 12.8s8 6.4 12.8 3.2l187.2-102.4c9.6 11.2 54.4 67.2 62.4 80 4.8 6.4 6.4 12.8-4.8 20.8-6.4 4.8-16 11.2-25.6 17.6s-19.2 11.2-27.2 17.6c-12.8 9.6-30.4 28.8-35.2 54.4-3.2 19.2 1.6 38.4 14.4 56 0 1.6 4.8 6.4 9.6 12.8l-100.8 59.2c-4.8 3.2-6.4 8-3.2 12.8s8 6.4 12.8 3.2l104-60.8c27.2 30.4 78.4 73.6 139.2 64 24-3.2 57.6-22.4 57.6-59.2 0-25.6-16-67.2-22.4-84.8 16-9.6 57.6-33.6 67.2-43.2 17.6-14.4 24-28.8 17.6-40-3.2-4.8-12.8-16-43.2-3.2-80 33.6-99.2 49.6-104 62.4-1.6 4.8-3.2 11.2-3.2 17.6 0 0 0 0-1.6 0s-3.2 0-4.8 1.6l-4.8 3.2-16-11.2c20.8-14.4 33.6-24 36.8-27.2 8-6.4 30.4-24 33.6-51.2 1.6-17.6-4.8-35.2-19.2-52.8-32-38.4-65.6-78.4-75.2-88l152-83.2c1.6 0 43.2-19.2 65.6 11.2 3.2 4.8 9.6 4.8 12.8 1.6 9.6 1.6 9.6-4.8 6.4-9.6zM678.4 601.6c-32 0-57.6 25.6-57.6 57.6s25.6 57.6 57.6 57.6c32 0 57.6-25.6 57.6-57.6 1.6-32-25.6-57.6-57.6-57.6z" />
<glyph unicode="&#xe660;" d="M366.4 228.8c12.8 0 22.4 8 27.2 19.2h-52.8c3.2-11.2 12.8-19.2 25.6-19.2zM585.6 603.2v36.8c0 6.4-4.8 11.2-11.2 11.2h-9.6l-6.4-30.4c-1.6-4.8-4.8-8-9.6-8 0 0-1.6 0-1.6 0l-49.6 11.2c-3.2 0-4.8 1.6-6.4 4.8-1.6 1.6-1.6 4.8-1.6 8l3.2 14.4h-43.2c-6.4 0-11.2-4.8-11.2-11.2v-36.8c0 0 0 0 0-1.6l147.2 1.6c0-1.6 0-1.6 0 0zM512 955.2c-280 0-508.8-227.2-508.8-507.2s228.8-508.8 508.8-508.8 508.8 228.8 508.8 508.8-228.8 507.2-508.8 507.2zM772.8 278.4c0-17.6-14.4-30.4-30.4-30.4h-38.4c-4.8-20.8-24-38.4-46.4-38.4s-41.6 16-46.4 38.4h-198.4c-4.8-20.8-24-38.4-46.4-38.4s-41.6 16-46.4 38.4h-38.4c-17.6 0-30.4 14.4-30.4 30.4v292.8c0 17.6 14.4 30.4 30.4 30.4h137.6c0 0 0 0 0 1.6v36.8c0 17.6 14.4 30.4 30.4 30.4h48l16 72c0 3.2 1.6 4.8 4.8 6.4 1.6 1.6 4.8 1.6 8 1.6l49.6-11.2c4.8-1.6 8-6.4 8-11.2l-12.8-56h4.8c17.6 0 30.4-14.4 30.4-30.4v-36.8c0 0 0 0 0-1.6h137.6c17.6 0 30.4-14.4 30.4-30.4v-294.4zM545.6 651.2l4.8 19.2 11.2 51.2-30.4 6.4-19.2-76.8-1.6-9.6 30.4-6.4zM657.6 228.8c12.8 0 22.4 8 27.2 19.2h-52.8c3.2-11.2 12.8-19.2 25.6-19.2zM742.4 582.4h-460.8c-6.4 0-11.2-4.8-11.2-11.2v-292.8c0-6.4 4.8-11.2 11.2-11.2h459.2c6.4 0 11.2 4.8 11.2 11.2v292.8c1.6 6.4-3.2 11.2-9.6 11.2z" />
<glyph unicode="&#xe661;" d="M620.8 436.8c0-12.371-10.029-22.4-22.4-22.4s-22.4 10.029-22.4 22.4c0 12.371 10.029 22.4 22.4 22.4s22.4-10.029 22.4-22.4zM444.8 436.8c0-12.371-10.029-22.4-22.4-22.4s-22.4 10.029-22.4 22.4c0 12.371 10.029 22.4 22.4 22.4s22.4-10.029 22.4-22.4zM728 448h-8l-1.6 9.6c-6.4 104-96 185.6-206.4 185.6s-201.6-81.6-206.4-185.6v-9.6h-11.2c-17.6 0-32-16-32-33.6s14.4-32 32-33.6h6.4l1.6-6.4c24-107.2 124.8-144 209.6-144s185.6 38.4 209.6 144l1.6 6.4h6.4c17.6 1.6 32 16 32 33.6 1.6 19.2-14.4 33.6-33.6 33.6zM380.8 436.8c0 24 19.2 41.6 41.6 41.6s41.6-19.2 41.6-41.6c0-24-19.2-41.6-41.6-41.6s-41.6 17.6-41.6 41.6zM582.4 318.4c-1.6-1.6-27.2-20.8-70.4-20.8s-70.4 20.8-70.4 20.8c-4.8 3.2-4.8 9.6-1.6 12.8 3.2 4.8 9.6 4.8 12.8 1.6 0 0 22.4-17.6 59.2-17.6s59.2 17.6 59.2 17.6c4.8 3.2 9.6 3.2 12.8-1.6 3.2-3.2 3.2-9.6-1.6-12.8zM598.4 395.2c-24 0-41.6 19.2-41.6 41.6 0 24 19.2 41.6 41.6 41.6s41.6-19.2 41.6-41.6c0-24-17.6-41.6-41.6-41.6zM512 955.2c-280 0-508.8-227.2-508.8-507.2s228.8-508.8 508.8-508.8 508.8 228.8 508.8 508.8-228.8 507.2-508.8 507.2zM739.2 363.2c-28.8-112-140.8-153.6-227.2-153.6s-198.4 40-227.2 153.6c-24 4.8-41.6 27.2-41.6 51.2 0 25.6 19.2 48 44.8 52.8 9.6 99.2 89.6 179.2 192 193.6-11.2 28.8-51.2 27.2-52.8 27.2-4.8 0-9.6 3.2-9.6 9.6s3.2 9.6 9.6 9.6c20.8 1.6 60.8-8 72-43.2 1.6 0 3.2 0 4.8 0 3.2 64 46.4 84.8 48 86.4 4.8 1.6 11.2 0 12.8-4.8s0-11.2-4.8-12.8c-1.6 0-33.6-17.6-36.8-68.8 112-4.8 204.8-88 214.4-195.2 25.6-4.8 44.8-25.6 44.8-52.8-1.6-25.6-19.2-48-43.2-52.8z" />
<glyph unicode="&#xe662;" d="M510.4 518.4c110.4 0 145.6 14.4 153.6 19.2l25.6 137.6c-8 11.2-51.2 59.2-177.6 59.2-124.8 0-168-46.4-177.6-59.2l25.6-137.6c6.4-3.2 36.8-19.2 150.4-19.2zM446.4 635.2h52.8v52.8h27.2v-52.8h52.8v-27.2h-52.8v-52.8h-27.2v52.8h-52.8v27.2zM336 456h9.6c49.6 0 75.2 32 84.8 46.4-70.4 6.4-84.8 20.8-86.4 24l-1.6 1.6-12.8 68.8c-57.6-57.6-88-134.4-86.4-222.4 0-38.4 0-94.4 11.2-144 36.8-11.2 100.8-16 152-6.4-60.8 64-65.6 156.8-68.8 214.4l-1.6 17.6zM497.6 499.2c0 0 0 0 0 0-17.6 0-32 1.6-46.4 1.6-4.8-11.2-32-59.2-96-64 3.2-62.4 9.6-153.6 76.8-211.2l3.2-3.2c32-20.8 62.4-30.4 75.2-30.4 14.4 0 44.8 9.6 73.6 28.8l6.4 6.4c46.4 41.6 67.2 84.8 68.8 222.4-28.8-4.8-105.6-8-161.6 49.6zM432 356.8c-14.4 0-27.2 11.2-27.2 27.2s11.2 27.2 27.2 27.2c14.4 0 27.2-11.2 27.2-27.2s-12.8-27.2-27.2-27.2zM592 356.8c-14.4 0-27.2 11.2-27.2 27.2s11.2 27.2 27.2 27.2c14.4 0 27.2-11.2 27.2-27.2s-12.8-27.2-27.2-27.2zM512 955.2c-280 0-508.8-227.2-508.8-507.2s228.8-508.8 508.8-508.8 508.8 228.8 508.8 508.8-228.8 507.2-508.8 507.2zM787.2 220.8l-1.6-4.8-4.8-1.6c-20.8-6.4-51.2-11.2-84.8-11.2-27.2 0-59.2 3.2-92.8 8-32-24-70.4-36.8-91.2-36.8-19.2 0-56 11.2-88 33.6-24-4.8-49.6-8-75.2-8-40 0-80 4.8-105.6 14.4l-4.8 1.6-1.6 4.8c-12.8 54.4-12.8 115.2-12.8 155.2 0 94.4 33.6 177.6 96 240 1.6 1.6 3.2 1.6 4.8 3.2l-11.2 60.8 1.6 3.2c1.6 3.2 41.6 72 196.8 72s195.2-68.8 196.8-72l1.6-3.2-12.8-70.4c62.4-54.4 104-150.4 104-248-1.6-81.6-9.6-123.2-14.4-140.8zM681.6 528l-1.6-1.6c-3.2-4.8-28.8-24-153.6-25.6 56-44.8 128-32 142.4-28.8l11.2 3.2v-12.8c0-137.6-19.2-192-60.8-233.6 62.4-8 115.2-6.4 148.8 3.2 4.8 17.6 11.2 57.6 11.2 129.6 0 88-35.2 174.4-88 225.6l-9.6-59.2z" />
<glyph unicode="&#xe663;" d="M640 604.8c-3.2 0-4.8 0-4.8 0h-8l-1.6 6.4c0 1.6-38.4 123.2-113.6 123.2s-113.6-121.6-113.6-123.2l-1.6-8h-8c0 0-6.4 0-17.6 0-33.6 0-115.2-6.4-134.4-70.4-24-81.6 80-145.6 81.6-145.6l6.4-4.8-3.2-8c0-1.6-41.6-113.6 20.8-166.4 12.8-11.2 28.8-16 48-16 56 0 115.2 49.6 115.2 49.6l6.4 4.8 6.4-4.8c0 0 64-44.8 121.6-44.8 17.6 0 32 3.2 43.2 11.2 59.2 38.4 19.2 164.8 19.2 166.4l-3.2 9.6 6.4 4.8c1.6 0 102.4 72 81.6 147.2-17.6 65.6-126.4 68.8-147.2 68.8zM521.6 452.8c0 0 75.2-54.4 48-75.2-27.2-22.4-57.6 68.8-57.6 68.8s-32-89.6-57.6-68.8c-24 20.8 48 75.2 48 75.2s-96 0-83.2 33.6c12.8 32 86.4-22.4 86.4-22.4s-28.8 89.6 6.4 89.6 6.4-89.6 6.4-89.6 73.6 54.4 86.4 22.4c12.8-32-83.2-33.6-83.2-33.6zM512 956.8c-280 0-508.8-228.8-508.8-508.8s228.8-508.8 508.8-508.8 508.8 228.8 508.8 508.8-228.8 508.8-508.8 508.8zM723.2 376c8-28.8 35.2-139.2-28.8-180.8-16-9.6-33.6-14.4-54.4-14.4-52.8 0-108.8 32-126.4 43.2-17.6-12.8-68.8-49.6-121.6-49.6-22.4 0-43.2 6.4-60.8 20.8-64 52.8-38.4 152-28.8 180.8-24 16-107.2 80-83.2 163.2 22.4 76.8 113.6 84.8 152 84.8 4.8 0 8 0 11.2 0 9.6 28.8 51.2 129.6 129.6 129.6s120-102.4 129.6-129.6c27.2 0 142.4-6.4 163.2-83.2 22.4-78.4-59.2-147.2-81.6-164.8z" />
<glyph unicode="&#xe664;" d="M512 956.8c-280 0-508.8-228.8-508.8-508.8s228.8-508.8 508.8-508.8 508.8 228.8 508.8 508.8-228.8 508.8-508.8 508.8zM772.8 427.2c-11.2 0-22.4 4.8-25.6 20.8h-64l-24-52.8c-1.6-3.2-4.8-9.6-8-9.6s-6.4 1.6-8 4.8l-46.4 89.6-75.2-224c-1.6-3.2-4.8-6.4-9.6-6.4 0 0-1.6 0-1.6 0-4.8 0-8 4.8-8 9.6l-24 348.8-54.4-214.4c-1.6-4.8-4.8-6.4-8-6.4-4.8 0-8 3.2-9.6 6.4l-35.2 96-44.8-43.2c-1.6-1.6-3.2 1.6-6.4 1.6h-96c-4.8 0-9.6 3.2-9.6 8s4.8 8 9.6 8h92.8l52.8 49.6c1.6 1.6 6.4 1.6 9.6 0 3.2 0 6.4-3.2 6.4-6.4l30.4-81.6 59.2 246.4c1.6 4.8 4.8 8 9.6 8s8-4.8 8-9.6l24-363.2 67.2 200c1.6 3.2 4.8 6.4 8 6.4s8-1.6 9.6-4.8l46.4-92.8 19.2 38.4c1.6 3.2 4.8 8 8 8h70.4c3.2 0 14.4 16 25.6 16 14.4 0 27.2-11.2 27.2-27.2s-11.2-24-25.6-24z" />
<glyph unicode="&#xe665;" d="M617.6-1.6c-195.2 0-264 25.6-324.8 49.6-48 17.6-88 33.6-188.8 33.6v40c107.2 0 153.6-17.6 203.2-36.8 57.6-22.4 121.6-46.4 310.4-46.4 134.4 0 192 17.6 217.6 32 22.4 12.8 22.4 25.6 22.4 38.4 0 25.6-11.2 43.2-11.2 43.2-3.2 4.8-4.8 11.2-3.2 17.6s6.4 11.2 12.8 12.8c0 0 44.8 17.6 44.8 52.8 0 30.4-30.4 43.2-30.4 43.2-8 3.2-12.8 9.6-12.8 17.6s3.2 14.4 11.2 19.2c1.6 0 33.6 17.6 33.6 52.8s-35.2 48-36.8 48c-9.6 3.2-14.4 12.8-12.8 22.4 0 0 6.4 35.2 6.4 56 0 17.6-20.8 40-57.6 40-48 0-83.2-6.4-129.6-14.4-20.8-3.2-44.8-8-73.6-11.2-41.6-6.4-62.4 9.6-73.6 24-19.2 25.6-17.6 67.2 3.2 112l6.4 14.4c27.2 59.2 57.6 120 28.8 166.4-11.2 17.6-36.8 33.6-51.2 30.4-6.4-1.6-11.2-9.6-12.8-22.4-14.4-131.2-84.8-187.2-140.8-233.6-22.4-17.6-43.2-33.6-57.6-52.8-12.8-16-20.8-33.6-30.4-51.2-22.4-48-49.6-104-166.4-104v40c92.8 0 108.8 33.6 131.2 81.6 9.6 19.2 19.2 40 35.2 60.8 17.6 22.4 40 40 64 59.2 56 44.8 113.6 91.2 126.4 206.4 3.2 40 28.8 52.8 43.2 56 33.6 8 75.2-19.2 94.4-49.6 38.4-64 3.2-139.2-27.2-203.2l-6.4-14.4c-14.4-28.8-16-57.6-6.4-70.4 6.4-8 17.6-11.2 35.2-8 27.2 3.2 49.6 8 72 11.2 46.4 8 86.4 14.4 136 14.4 60.8 0 97.6-41.6 97.6-80 0-14.4-3.2-33.6-4.8-48 19.2-11.2 48-35.2 48-78.4 0-32-14.4-54.4-28.8-68.8 14.4-12.8 28.8-33.6 28.8-64 0-43.2-30.4-68.8-51.2-81.6 4.8-11.2 8-27.2 8-44.8 0-16 0-49.6-41.6-73.6-46.4-25.6-123.2-38.4-240-38.4z" />
<glyph unicode="&#xe666;" d="M641.6 633.6v65.6h-22.4v-65.6h22.4c0 0 0 0 0 0zM740.8 656h-78.4v-22.4c0-11.2-9.6-20.8-20.8-20.8h-22.4c-11.2 0-20.8 9.6-20.8 20.8v22.4h-198.4v-22.4c0-11.2-9.6-20.8-20.8-20.8h-22.4c-11.2 0-20.8 9.6-20.8 20.8v22.4h-76.8v-88h483.2v88zM379.2 633.6v65.6h-22.4v-65.6h22.4c0 0 0 0 0 0zM512 956.8c-280 0-507.2-228.8-507.2-508.8s227.2-508.8 507.2-508.8 508.8 228.8 508.8 508.8-228.8 508.8-508.8 508.8zM761.6 195.2c0-11.2-9.6-20.8-20.8-20.8h-483.2c-11.2 0-20.8 9.6-20.8 20.8v460.8c0 11.2 9.6 20.8 20.8 20.8h78.4v22.4c0 11.2 9.6 20.8 20.8 20.8h22.4c11.2 0 20.8-9.6 20.8-20.8v-22.4h198.4v22.4c0 11.2 9.6 20.8 20.8 20.8h22.4c11.2 0 20.8-9.6 20.8-20.8v-22.4h76.8c11.2 0 20.8-9.6 20.8-20.8v-185.6c0-6.4-4.8-11.2-11.2-11.2s-11.2 4.8-11.2 11.2v76.8h-480v-352h483.2v99.2c0 6.4 4.8 11.2 11.2 11.2s11.2-4.8 11.2-11.2v-99.2zM704 299.2c-1.6-1.6-4.8-3.2-8-3.2s-4.8 1.6-8 3.2c-4.8 4.8-4.8 11.2 0 14.4l57.6 57.6h-212.8c-6.4 0-11.2 4.8-11.2 11.2s4.8 11.2 11.2 11.2h214.4l-57.6 57.6c-4.8 4.8-4.8 11.2 0 14.4 4.8 4.8 11.2 4.8 14.4 0l83.2-83.2-83.2-83.2z" />
<glyph unicode="&#xe667;" d="M512 956.8c-280 0-507.2-228.8-507.2-508.8s227.2-508.8 507.2-508.8 508.8 228.8 508.8 508.8-228.8 508.8-508.8 508.8zM318.4 286.4c-59.2 0-84.8 43.2-84.8 43.2l14.4 11.2c0 0 20.8-36.8 70.4-36.8 46.4 0 83.2 33.6 83.2 78.4 0 46.4-36.8 80-83.2 80-35.2 0-59.2-17.6-59.2-17.6l-14.4 4.8 17.6 144h140.8v-17.6h-123.2l-11.2-89.6c-1.6-11.2-3.2-19.2-3.2-19.2h1.6c0 0 20.8 14.4 51.2 14.4 57.6 0 104-43.2 104-97.6s-46.4-97.6-104-97.6zM582.4 286.4c-76.8 0-102.4 68.8-102.4 156.8s25.6 156.8 102.4 156.8 102.4-68.8 102.4-156.8c-1.6-88-25.6-156.8-102.4-156.8zM864 496h-54.4v-59.2h-25.6v59.2h-54.4v25.6h54.4v59.2h25.6v-59.2h54.4v-25.6zM582.4 580.8c-64 0-83.2-60.8-83.2-137.6 0-78.4 17.6-137.6 83.2-137.6s83.2 60.8 83.2 137.6c-1.6 76.8-19.2 137.6-83.2 137.6z" />
<glyph unicode="&#xe668;" d="M512 956.8c-280 0-508.8-228.8-508.8-508.8s228.8-508.8 508.8-508.8 507.2 228.8 507.2 508.8-227.2 508.8-507.2 508.8zM713.6 246.4h-272c-4.8 0-9.6 4.8-9.6 9.6s4.8 9.6 9.6 9.6h238.4l-368 368c-3.2 3.2-3.2 9.6 0 12.8s9.6 3.2 12.8 0l368-368v240c0 4.8 4.8 9.6 9.6 9.6s9.6-4.8 9.6-9.6v-272z" />
<glyph unicode="&#xe669;" d="M512 956.8c-280 0-508.8-228.8-508.8-508.8s228.8-508.8 508.8-508.8 508.8 228.8 508.8 508.8-228.8 508.8-508.8 508.8zM574.4 228.8c-22.4-16-41.6-28.8-56-40l-6.4-4.8-6.4 4.8c-14.4 12.8-33.6 25.6-56 40-88 59.2-219.2 150.4-219.2 292.8 0 86.4 70.4 156.8 158.4 156.8 48 0 94.4-22.4 123.2-59.2 30.4 36.8 75.2 59.2 123.2 59.2 86.4 0 158.4-70.4 158.4-156.8 0-142.4-132.8-233.6-219.2-292.8zM635.2 659.2c-46.4 0-89.6-22.4-115.2-62.4l-8-11.2-8 11.2c-25.6 38.4-68.8 62.4-115.2 62.4-76.8 0-139.2-62.4-139.2-137.6 0-132.8 121.6-216 211.2-276.8 19.2-12.8 36.8-25.6 51.2-36.8 14.4 11.2 32 22.4 51.2 36.8 89.6 60.8 211.2 144 211.2 276.8 0 75.2-62.4 137.6-139.2 137.6z" />
<glyph unicode="&#xe66a;" d="M430.4 454.4v0c25.6-22.4 44.8-38.4 48-43.2 14.4-12.8 28.8-12.8 33.6-12.8s19.2 1.6 33.6 12.8c14.4 12.8 174.4 152 195.2 169.6v25.6h-457.6v-25.6c14.4-11.2 92.8-80 147.2-126.4v0zM283.2 556.8v-217.6l131.2 104c-43.2 36.8-104 89.6-131.2 113.6zM740.8 339.2v217.6c-27.2-24-86.4-75.2-131.2-113.6l131.2-104zM740.8 313.6l-145.6 115.2c-19.2-16-33.6-28.8-36.8-32-19.2-16-38.4-17.6-46.4-17.6s-27.2 1.6-46.4 17.6c-3.2 3.2-17.6 16-36.8 32l-145.6-115.2v-25.6h457.6v25.6zM512 956.8c-267.2 0-484.8-214.4-484.8-476.8 0-113.6 40-217.6 108.8-300.8l-28.8-240 236.8 92.8c52.8-19.2 108.8-28.8 168-28.8 267.2 0 484.8 212.8 484.8 476.8s-217.6 476.8-484.8 476.8zM760 270.4h-496v355.2h496v-355.2z" />
<glyph unicode="&#xe66b;" d="M396.8 552c-6.4-30.4-9.6-62.4-9.6-94.4h116.8v105.6c-35.2 0-68.8 4.8-100.8 11.2-3.2-8-4.8-14.4-6.4-22.4zM396.8 344c1.6-8 3.2-16 4.8-22.4 32 6.4 65.6 11.2 100.8 11.2v105.6h-116.8c0-32 4.8-64 11.2-94.4zM424 636.8c-6.4-12.8-12.8-27.2-17.6-43.2 30.4-6.4 62.4-9.6 96-11.2v128c-12.8-1.6-25.6-8-36.8-17.6-16-14.4-28.8-33.6-41.6-56zM424 259.2c11.2-24 25.6-41.6 41.6-56 11.2-9.6 24-16 36.8-17.6v128c-33.6 0-65.6-4.8-96-11.2 6.4-14.4 11.2-28.8 17.6-43.2zM408 644.8c12.8 24 25.6 43.2 41.6 57.6-12.8-3.2-27.2-8-40-12.8-32-12.8-59.2-32-83.2-56-3.2-3.2-6.4-6.4-9.6-9.6 20.8-11.2 44.8-19.2 70.4-27.2 6.4 17.6 12.8 33.6 20.8 48zM382.4 579.2c-28.8 8-56 17.6-78.4 30.4-14.4-17.6-25.6-38.4-35.2-59.2-12.8-28.8-19.2-60.8-20.8-92.8h116.8c3.2 43.2 8 84.8 17.6 121.6zM408 251.2c-8 14.4-12.8 30.4-19.2 46.4-25.6-6.4-49.6-16-70.4-27.2 3.2-3.2 4.8-6.4 8-9.6 24-24 52.8-43.2 83.2-56 12.8-4.8 25.6-9.6 40-12.8-16 16-30.4 35.2-41.6 59.2zM366.4 438.4h-116.8c1.6-32 8-62.4 20.8-92.8 9.6-20.8 20.8-41.6 35.2-59.2 22.4 12.8 48 22.4 76.8 30.4-9.6 36.8-14.4 78.4-16 121.6zM616 644.8c8-14.4 12.8-30.4 19.2-46.4 25.6 6.4 49.6 16 70.4 27.2-3.2 3.2-4.8 6.4-8 9.6-24 24-52.8 43.2-83.2 56-12.8 4.8-25.6 9.6-40 12.8 16-16 30.4-35.2 41.6-59.2zM641.6 316.8c28.8-8 56-17.6 78.4-30.4 14.4 17.6 25.6 38.4 35.2 59.2 12.8 28.8 19.2 60.8 20.8 92.8h-116.8c-3.2-43.2-8-84.8-17.6-121.6zM600 636.8c-11.2 24-25.6 41.6-41.6 56-11.2 9.6-24 16-36.8 17.6v-128c33.6 0 65.6 4.8 96 11.2-6.4 14.4-11.2 28.8-17.6 43.2zM1009.6 550.4c-6.4 32-16 64-30.4 96-12.8 30.4-28.8 59.2-46.4 86.4s-38.4 52.8-62.4 75.2c-22.4 22.4-48 43.2-75.2 62.4-27.2 17.6-56 33.6-86.4 46.4s-62.4 22.4-96 30.4c-33.6 6.4-67.2 9.6-102.4 9.6s-68.8-3.2-102.4-9.6c-32-6.4-64-16-96-30.4-30.4-12.8-59.2-28.8-86.4-46.4-24-19.2-49.6-40-73.6-62.4s-43.2-48-62.4-75.2c-17.6-27.2-33.6-56-46.4-86.4s-22.4-62.4-30.4-96c-6.4-33.6-9.6-67.2-9.6-102.4s3.2-68.8 9.6-102.4c6.4-32 16-64 30.4-96 12.8-30.4 28.8-59.2 46.4-86.4s38.4-52.8 62.4-75.2c22.4-22.4 48-43.2 75.2-62.4 27.2-17.6 56-33.6 86.4-46.4s62.4-22.4 96-30.4c33.6-6.4 67.2-9.6 102.4-9.6s68.8 3.2 102.4 9.6c32 6.4 64 16 96 30.4 30.4 12.8 59.2 28.8 86.4 46.4s52.8 38.4 75.2 62.4c22.4 22.4 43.2 48 62.4 75.2 17.6 27.2 33.6 56 46.4 86.4s22.4 62.4 30.4 96c6.4 33.6 9.6 67.2 9.6 102.4s-4.8 68.8-11.2 102.4zM771.2 337.6c-14.4-33.6-35.2-64-60.8-89.6s-56-46.4-89.6-60.8c-35.2-14.4-72-22.4-110.4-22.4s-75.2 8-110.4 22.4c-33.6 14.4-64 35.2-89.6 60.8s-46.4 56-60.8 89.6c-14.4 35.2-22.4 72-22.4 110.4s8 75.2 22.4 110.4c14.4 33.6 35.2 64 60.8 89.6s56 46.4 89.6 60.8c35.2 14.4 72 22.4 110.4 22.4s75.2-8 110.4-22.4c33.6-14.4 64-35.2 89.6-60.8s46.4-56 60.8-89.6c14.4-35.2 22.4-72 22.4-110.4s-8-75.2-22.4-110.4zM616 251.2c-12.8-24-25.6-43.2-41.6-57.6 12.8 3.2 27.2 8 40 12.8 32 12.8 59.2 32 83.2 56 3.2 3.2 6.4 6.4 9.6 9.6-20.8 11.2-44.8 19.2-70.4 27.2-6.4-17.6-12.8-33.6-20.8-48zM718.4 609.6c-22.4-12.8-48-22.4-76.8-30.4 9.6-36.8 16-78.4 16-121.6h116.8c-1.6 32-8 62.4-20.8 92.8-9.6 20.8-20.8 41.6-35.2 59.2zM627.2 552c-1.6 8-3.2 16-4.8 22.4-32-6.4-65.6-11.2-100.8-11.2v-105.6h116.8c0 32-4.8 64-11.2 94.4zM627.2 344c6.4 30.4 9.6 62.4 9.6 94.4h-116.8v-105.6c35.2 0 68.8-4.8 100.8-11.2 3.2 8 4.8 14.4 6.4 22.4zM617.6 304c-30.4 6.4-62.4 9.6-96 11.2v-128c12.8 1.6 25.6 8 36.8 17.6 14.4 12.8 28.8 32 41.6 56 6.4 12.8 12.8 27.2 17.6 43.2z" />
<glyph unicode="&#xe66c;" d="M772.8 625.6h-112l19.2-59.2-57.6-48 62.4-59.2-67.2-100.8 48 99.2-73.6 56 49.6 62.4-20.8 49.6h-369.6v-316.8h521.6zM1009.6 550.4c-6.4 32-16 64-30.4 96-12.8 30.4-28.8 59.2-46.4 86.4s-38.4 52.8-62.4 75.2c-22.4 22.4-48 43.2-75.2 62.4-27.2 17.6-56 33.6-86.4 46.4s-62.4 22.4-96 30.4c-33.6 6.4-67.2 9.6-102.4 9.6s-68.8-3.2-102.4-9.6c-32-6.4-64-16-96-30.4-30.4-12.8-59.2-28.8-86.4-46.4-24-19.2-49.6-40-73.6-62.4s-43.2-48-62.4-75.2c-17.6-27.2-33.6-56-46.4-86.4s-22.4-62.4-30.4-96c-6.4-33.6-9.6-67.2-9.6-102.4s3.2-68.8 9.6-102.4c6.4-32 16-64 30.4-96 12.8-30.4 28.8-59.2 46.4-86.4s38.4-52.8 62.4-75.2c22.4-22.4 48-43.2 75.2-62.4 27.2-17.6 56-33.6 86.4-46.4s62.4-22.4 96-30.4c33.6-6.4 67.2-9.6 102.4-9.6s68.8 3.2 102.4 9.6c32 6.4 64 16 96 30.4 30.4 12.8 59.2 28.8 86.4 46.4s52.8 38.4 75.2 62.4c22.4 22.4 43.2 48 62.4 75.2 17.6 27.2 33.6 56 46.4 86.4s22.4 62.4 30.4 96c6.4 33.6 9.6 67.2 9.6 102.4s-4.8 68.8-11.2 102.4zM670.4 240h-316.8c-6.4 0-11.2 4.8-11.2 11.2s4.8 11.2 11.2 11.2h316.8c6.4 0 11.2-4.8 11.2-11.2s-4.8-11.2-11.2-11.2zM795.2 286.4h-566.4v361.6h566.4v-361.6z" />
<glyph unicode="&#xe66d;" d="M457.6 422.4h108.8v-206.4h-108.8v206.4zM318.4 504v-288h120v225.6h147.2v-225.6h120v288l-193.6 203.2zM1009.6 550.4c-6.4 32-16 64-30.4 96-12.8 30.4-28.8 59.2-46.4 86.4s-38.4 52.8-62.4 75.2c-22.4 22.4-48 43.2-75.2 62.4-27.2 17.6-56 33.6-86.4 46.4s-62.4 22.4-96 30.4c-33.6 6.4-67.2 9.6-102.4 9.6s-68.8-3.2-102.4-9.6c-32-6.4-64-16-96-30.4-30.4-12.8-59.2-28.8-86.4-46.4-24-19.2-49.6-40-73.6-62.4s-43.2-48-62.4-75.2c-17.6-27.2-33.6-56-46.4-86.4s-22.4-62.4-30.4-96c-6.4-33.6-9.6-67.2-9.6-102.4s3.2-68.8 9.6-102.4c6.4-32 16-64 30.4-96 12.8-30.4 28.8-59.2 46.4-86.4s38.4-52.8 62.4-75.2c22.4-22.4 48-43.2 75.2-62.4 27.2-17.6 56-33.6 86.4-46.4s62.4-22.4 96-30.4c33.6-6.4 67.2-9.6 102.4-9.6s68.8 3.2 102.4 9.6c32 6.4 64 16 96 30.4 30.4 12.8 59.2 28.8 86.4 46.4s52.8 38.4 75.2 62.4c22.4 22.4 43.2 48 62.4 75.2 17.6 27.2 33.6 56 46.4 86.4s22.4 62.4 30.4 96c6.4 33.6 9.6 67.2 9.6 102.4s-4.8 68.8-11.2 102.4zM619.2 678.4h64v-99.2l-20.8 22.4v54.4h-22.4v-32l-20.8 22.4v32zM761.6 446.4l-35.2 36.8v-288h-427.2v288l-35.2-36.8-14.4 12.8 262.4 275.2 262.4-273.6-12.8-14.4z" />
<glyph unicode="&#xe66e;" d="M996.8 480c0 262.4-217.6 476.8-484.8 476.8s-484.8-214.4-484.8-476.8c0-264 216-476.8 484.8-476.8 59.2 0 115.2 9.6 168 28.8l236.8-92.8-28.8 240c67.2 81.6 108.8 187.2 108.8 300.8zM497.6 438.4c0-60.8-43.2-102.4-108.8-102.4s-108.8 41.6-108.8 102.4v174.4h49.6v-172.8c0-36.8 24-56 59.2-56s60.8 20.8 60.8 57.6v171.2h49.6v-174.4zM713.6 342.4l-65.6 118.4h-35.2v-118.4h-49.6v270.4h49.6v-110.4h35.2l64 110.4h52.8l-76.8-128 81.6-140.8h-56z" />
<glyph unicode="&#xe66f;" d="M996.8 480c0 262.4-217.6 476.8-484.8 476.8s-484.8-214.4-484.8-476.8 217.6-476.8 484.8-476.8c59.2 0 115.2 9.6 168 28.8l236.8-92.8-28.8 240c67.2 81.6 108.8 187.2 108.8 300.8zM465.6 342.4h-168v270.4h161.6v-41.6h-112v-70.4h91.2v-41.6h-91.2v-75.2h118.4v-41.6zM731.2 438.4c0-60.8-43.2-102.4-108.8-102.4s-108.8 41.6-108.8 102.4v174.4h49.6v-172.8c0-36.8 24-56 59.2-56 36.8 0 60.8 20.8 60.8 57.6v171.2h49.6v-174.4z" />
<glyph unicode="&#xe670;" d="M659.2 411.2c-30.4 0-59.2-11.2-80-33.6-20.8-20.8-33.6-49.6-33.6-80s11.2-59.2 33.6-80c20.8-20.8 49.6-33.6 80-33.6s59.2 11.2 80 33.6c20.8 20.8 33.6 49.6 33.6 80s-11.2 59.2-33.6 80c-20.8 20.8-49.6 33.6-80 33.6zM728 286.4h-56v-56c0-6.4-4.8-11.2-11.2-11.2s-11.2 4.8-11.2 11.2v56h-57.6c-6.4 0-11.2 4.8-11.2 11.2s4.8 11.2 11.2 11.2h56v56c0 6.4 4.8 11.2 11.2 11.2s11.2-4.8 11.2-11.2v-56h56c6.4 0 11.2-4.8 11.2-11.2 1.6-6.4-4.8-11.2-9.6-11.2zM980.8 646.4c-12.8 30.4-28.8 59.2-46.4 86.4s-38.4 52.8-62.4 75.2-48 43.2-75.2 62.4c-27.2 17.6-56 33.6-86.4 46.4-64 25.6-129.6 40-198.4 40s-134.4-12.8-198.4-40c-30.4-12.8-59.2-28.8-86.4-46.4-25.6-19.2-51.2-40-75.2-62.4s-43.2-48-62.4-75.2c-17.6-27.2-33.6-56-46.4-86.4-25.6-64-40-129.6-40-198.4s12.8-134.4 40-198.4c12.8-30.4 28.8-59.2 46.4-86.4s38.4-52.8 62.4-75.2 48-43.2 75.2-62.4c27.2-17.6 56-33.6 86.4-46.4 62.4-27.2 129.6-40 198.4-40s134.4 12.8 198.4 40c30.4 12.8 59.2 28.8 86.4 46.4s52.8 38.4 75.2 62.4 43.2 48 62.4 75.2c17.6 27.2 33.6 56 46.4 86.4 27.2 62.4 40 129.6 40 198.4s-14.4 134.4-40 198.4zM500.8 388.8c0 1.6 0 1.6 0 3.2-1.6 14.4-1.6 25.6-1.6 38.4 0 3.2 0 6.4 0 11.2s1.6 8 6.4 9.6c4.8 3.2 17.6 25.6 19.2 46.4 0 4.8 4.8 9.6 9.6 9.6 1.6 0 8 4.8 9.6 22.4 1.6 9.6-3.2 12.8-3.2 12.8-4.8 3.2-6.4 8-4.8 12.8 8 25.6 19.2 78.4 1.6 105.6-6.4 11.2-17.6 17.6-33.6 19.2-3.2 0-6.4 3.2-8 6.4-4.8 9.6-20.8 14.4-41.6 14.4-33.6 0-59.2-9.6-73.6-28.8-9.6-12.8-14.4-28.8-16-49.6-1.6-19.2 1.6-41.6 8-67.2 1.6-4.8-1.6-9.6-4.8-12.8 0 0-4.8-3.2-3.2-12.8 1.6-17.6 8-22.4 9.6-22.4 4.8 0 9.6-4.8 9.6-9.6 1.6-20.8 16-43.2 20.8-46.4 3.2-1.6 6.4-6.4 6.4-9.6s0-6.4 0-11.2c0-12.8 0-24-1.6-38.4 0-1.6 0-1.6 0-3.2-9.6-25.6-38.4-38.4-70.4-49.6-20.8-8-43.2-17.6-60.8-30.4-16-12.8-24-27.2-27.2-44.8h249.6l11.2-24h-272c-3.2 0-6.4 1.6-8 3.2s-3.2 4.8-3.2 8c1.6 30.4 14.4 54.4 36.8 73.6 19.2 16 44.8 25.6 65.6 33.6 27.2 11.2 49.6 19.2 56 35.2 1.6 12.8 1.6 22.4 1.6 33.6 0 1.6 0 3.2 0 4.8-6.4 6.4-11.2 14.4-14.4 20.8s-8 17.6-11.2 32c-3.2 1.6-6.4 4.8-9.6 8-6.4 6.4-9.6 17.6-11.2 30.4s1.6 22.4 8 28.8c-14.4 57.6-9.6 100.8 12.8 129.6 19.2 24 49.6 36.8 91.2 38.4 0 0 0 0 0 0 27.2 0 48-8 59.2-20.8 19.2-3.2 33.6-14.4 43.2-28.8 11.2-17.6 14.4-40 12.8-68.8-1.6-20.8-6.4-38.4-9.6-49.6 4.8-6.4 8-16 6.4-28.8s-4.8-24-11.2-30.4c-3.2-3.2-6.4-6.4-9.6-8-3.2-12.8-8-25.6-11.2-30.4-3.2-6.4-8-16-14.4-20.8 0-1.6 0-3.2 0-4.8 0-11.2 0-20.8 1.6-33.6 3.2-6.4 6.4-9.6 11.2-12.8l-11.2-19.2c-9.6 6.4-16 14.4-20.8 25.6zM755.2 201.6c-25.6-25.6-59.2-40-96-40s-70.4 14.4-96 40-40 59.2-40 96 14.4 70.4 40 96c25.6 25.6 59.2 40 96 40s70.4-14.4 96-40c25.6-25.6 40-59.2 40-96s-14.4-70.4-40-96z" />
<glyph unicode="&#xe671;" d="M980.8 646.4c-12.8 30.4-28.8 59.2-46.4 86.4s-38.4 52.8-62.4 75.2c-22.4 22.4-48 43.2-75.2 62.4-27.2 17.6-56 33.6-86.4 46.4-64 25.6-129.6 40-198.4 40s-134.4-12.8-198.4-40c-30.4-12.8-59.2-28.8-86.4-46.4-25.6-19.2-51.2-40-75.2-62.4-22.4-22.4-43.2-48-62.4-75.2-17.6-27.2-33.6-56-46.4-86.4-25.6-64-40-129.6-40-198.4s12.8-134.4 40-198.4c12.8-30.4 28.8-59.2 46.4-86.4s38.4-52.8 62.4-75.2c22.4-22.4 48-43.2 75.2-62.4 27.2-17.6 56-33.6 86.4-46.4 62.4-27.2 129.6-40 198.4-40s134.4 12.8 198.4 40c30.4 12.8 59.2 28.8 86.4 46.4s52.8 38.4 75.2 62.4 43.2 48 62.4 75.2c17.6 27.2 33.6 56 46.4 86.4 27.2 62.4 40 129.6 40 198.4s-14.4 134.4-40 198.4zM270.4 190.4v9.6c1.6 32 14.4 57.6 40 78.4 20.8 16 46.4 27.2 70.4 36.8 28.8 11.2 54.4 22.4 62.4 40 1.6 14.4 1.6 25.6 1.6 38.4 0 1.6 0 4.8 0 6.4-6.4 6.4-12.8 16-16 22.4s-9.6 19.2-11.2 33.6c-4.8 1.6-8 4.8-11.2 9.6-6.4 8-9.6 17.6-11.2 32-1.6 12.8 3.2 24 8 30.4-14.4 62.4-11.2 108.8 12.8 139.2 19.2 25.6 51.2 38.4 96 40v0c28.8 0 51.2-8 62.4-22.4 20.8-3.2 36.8-14.4 46.4-30.4 11.2-17.6 16-41.6 12.8-72-1.6-22.4-6.4-43.2-9.6-54.4 4.8-6.4 9.6-16 8-28.8-1.6-14.4-4.8-24-11.2-32-3.2-4.8-6.4-6.4-11.2-9.6-3.2-14.4-8-27.2-11.2-33.6s-8-16-14.4-22.4c0-1.6 0-4.8 0-6.4 0-12.8 0-24 1.6-38.4 8-19.2 33.6-28.8 62.4-40 22.4-9.6 49.6-19.2 70.4-36.8 24-19.2 36.8-44.8 40-78.4v-9.6h-488zM702.4 264c-19.2 14.4-41.6 24-65.6 33.6-32 12.8-64 25.6-73.6 52.8v3.2c-1.6 16-1.6 27.2-1.6 41.6 0 3.2 0 8 0 11.2v6.4l4.8 3.2c1.6 1.6 6.4 6.4 12.8 17.6 4.8 11.2 9.6 24 9.6 33.6l1.6 8h8c3.2 0 9.6 6.4 12.8 25.6 1.6 11.2-4.8 16-4.8 16l-6.4 3.2 3.2 8c1.6 6.4 9.6 28.8 11.2 56 1.6 25.6-1.6 46.4-9.6 60.8-8 12.8-20.8 20.8-36.8 22.4h-4.8l-1.6 4.8c-3.2 4.8-8 9.6-16 11.2-8 3.2-19.2 4.8-32 4.8-19.2 0-36.8-3.2-51.2-9.6-12.8-4.8-22.4-12.8-30.4-22.4-9.6-14.4-16-32-17.6-54.4-1.6-20.8 1.6-46.4 9.6-73.6l1.6-6.4-6.4-3.2c0 0-6.4-4.8-4.8-16 1.6-19.2 9.6-25.6 12.8-25.6h8l1.6-8c1.6-9.6 4.8-22.4 11.2-33.6s11.2-17.6 12.8-19.2l4.8-3.2v-6.4c0-3.2 0-8 0-11.2 0-12.8 0-25.6-1.6-41.6v-3.2c-9.6-27.2-41.6-40-73.6-52.8-22.4-9.6-46.4-19.2-65.6-33.6-9.6-8-17.6-16-22.4-25.6-4.8-8-8-17.6-9.6-27.2h443.2c-1.6 9.6-4.8 19.2-9.6 27.2-8 8-14.4 17.6-24 25.6z" />
<glyph unicode="&#xe672;" d="M784 304l-75.2-96-56 49.6c-8 8-20.8 6.4-28.8-1.6s-6.4-20.8 1.6-28.8l72-64c3.2-3.2 8-4.8 12.8-4.8 0 0 1.6 0 1.6 0 4.8 0 11.2 3.2 14.4 8l88 112c6.4 8 4.8 20.8-3.2 28.8-8 6.4-20.8 4.8-27.2-3.2zM720 438.4c-108.8 0-195.2-88-195.2-195.2s86.4-196.8 195.2-196.8 195.2 88 195.2 195.2-86.4 196.8-195.2 196.8zM720 86.4c-86.4 0-156.8 70.4-156.8 156.8s70.4 156.8 156.8 156.8 156.8-70.4 156.8-156.8-70.4-156.8-156.8-156.8zM531.2 384c-1.6 17.6-1.6 32-1.6 48v6.4c14.4 16 28.8 46.4 33.6 72 11.2 6.4 25.6 22.4 30.4 57.6 1.6 17.6-3.2 32-9.6 41.6 9.6 33.6 27.2 115.2-4.8 168-14.4 22.4-35.2 36.8-62.4 43.2-16 19.2-46.4 30.4-84.8 30.4-60.8-1.6-104-19.2-131.2-54.4-32-41.6-36.8-104-17.6-185.6-6.4-9.6-12.8-24-9.6-41.6 4.8-35.2 17.6-51.2 30.4-57.6 6.4-27.2 20.8-57.6 35.2-72v-6.4c0-16 0-30.4-1.6-48-9.6-20.8-43.2-33.6-76.8-48-64-25.6-142.4-56-148.8-155.2l-4.8-22.4h404.8l-9.6 32h-352c12.8 64 65.6 81.6 120 104 44.8 17.6 86.4 35.2 100.8 75.2l1.6 6.4c1.6 20.8 1.6 38.4 1.6 54.4v25.6l-9.6 6.4c-6.4 4.8-24 35.2-27.2 62.4l-1.6 16-16 1.6c0 0-8 3.2-9.6 27.2-1.6 9.6 3.2 12.8 3.2 12.8l12.8 8-4.8 16c-19.2 73.6-16 129.6 8 161.6 19.2 25.6 52.8 38.4 99.2 40 28.8 0 49.6-6.4 56-17.6l4.8-8 9.6-1.6c20.8-3.2 33.6-11.2 43.2-25.6 24-38.4 9.6-110.4-1.6-145.6l-4.8-14.4 14.4-8c0 0 4.8-3.2 3.2-14.4-3.2-25.6-9.6-30.4-9.6-30.4l-16-1.6-1.6-16c-3.2-27.2-20.8-57.6-25.6-62.4l-11.2-6.4v-27.2c0-17.6 0-33.6 1.6-54.4l1.6-4.8c6.4-17.6 17.6-30.4 30.4-38.4l20.8 35.2c-6.4 3.2-9.6 8-12.8 16z" />
<glyph unicode="&#xe673;" d="M358.4 355.2c0-3.2-1.6-6.4-1.6-11.2 0-25.6 9.6-70.4 22.4-97.6 6.4-14.4 12.8-19.2 36.8-19.2 6.4 0 9.6 4.8 9.6 6.4 0 4.8-1.6 6.4-8 11.2-12.8 11.2-32 27.2-32 94.4 0 17.6 4.8 32 11.2 48 3.2 11.2 8 24 12.8 40-3.2 3.2-6.4 4.8-9.6 4.8-4.8-36.8-22.4-59.2-41.6-76.8zM731.2 672c-11.2 17.6-20.8 33.6-46.4 33.6-12.8 0-24-3.2-32-11.2 0 0-1.6 0-1.6-1.6 0 0 0 0 0 0-3.2-3.2-4.8-4.8-8-8-19.2-19.2-52.8-51.2-49.6-72 0-6.4 4.8-11.2 12.8-16 6.4-4.8 14.4-4.8 20.8 0 16 9.6 32 36.8 32 68.8 0 4.8 4.8 9.6 9.6 9.6s9.6-4.8 9.6-9.6c0-35.2-17.6-72-41.6-86.4-6.4-3.2-14.4-6.4-20.8-6.4s-14.4 1.6-20.8 6.4c-1.6 1.6-3.2 3.2-6.4 4.8-33.6-19.2-88-28.8-163.2-28.8-22.4 0-36.8 3.2-49.6 6.4-11.2 3.2-22.4 4.8-36.8 4.8-16 0-28.8-1.6-28.8-1.6-4.8 0-8 1.6-9.6 6.4 0 0-14.4 32-25.6 48-14.4 20.8-48 36.8-54.4 33.6-1.6-4.8 0-8 14.4-20.8 9.6-8 19.2-17.6 25.6-30.4 17.6-30.4 12.8-51.2 12.8-52.8 0 0 0-1.6 0-1.6s-14.4-30.4-14.4-73.6c0-40 9.6-57.6 16-70.4 4.8-8 9.6-16 9.6-27.2 0-22.4-8-32-14.4-40s-11.2-12.8-11.2-32c0-25.6 9.6-70.4 22.4-97.6 6.4-14.4 12.8-19.2 36.8-19.2 6.4 0 9.6 4.8 9.6 6.4 0 4.8-1.6 6.4-8 11.2-12.8 11.2-32 27.2-32 94.4 0 20.8 17.6 33.6 36.8 48 27.2 19.2 57.6 40 60.8 91.2 0 4.8 4.8 9.6 9.6 9.6 19.2 0 32-6.4 48-14.4 22.4-11.2 51.2-25.6 107.2-25.6 4.8 0 9.6-3.2 9.6-8s0-14.4-3.2-35.2c-1.6-22.4-4.8-54.4-4.8-76.8 0-70.4 24-99.2 35.2-99.2h16c0 0-1.6 4.8-4.8 6.4 0 0-1.6 0-1.6 0-12.8 8-17.6 38.4-17.6 88 0 38.4 16 99.2 33.6 113.6 1.6 1.6 4.8 3.2 6.4 4.8 11.2 8 25.6 20.8 41.6 68.8 0 0 0 0 0 0s-1.6 1.6-1.6 1.6c1.6 12.8 1.6 28.8 1.6 48 0 44.8 27.2 76.8 52.8 76.8 11.2 0 19.2-3.2 27.2-8 6.4-3.2 11.2-4.8 16-4.8 14.4 0 14.4 0 27.2 11.2 1.6 1.6 1.6 1.6 3.2 1.6 16 4.8 17.6 25.6 17.6 25.6 0 1.6 0 3.2 1.6 4.8 0 0 0 0 0 0-9.6 1.6-24 4.8-41.6 11.2-17.6 8-25.6 20.8-33.6 33.6zM660.8 350.4c-1.6 20.8-4.8 43.2-6.4 68.8-9.6-16-20.8-24-28.8-28.8 0-3.2 1.6-9.6 3.2-17.6 3.2-12.8 6.4-28.8 11.2-49.6 19.2-94.4 36.8-94.4 46.4-94.4h1.6c3.2 0 4.8 1.6 4.8 3.2 0 0-1.6 3.2-6.4 3.2-1.6 0-3.2 1.6-4.8 3.2-12.8 14.4-16 40-20.8 81.6 3.2 8 1.6 19.2 0 30.4zM512 956.8c-280 0-508.8-228.8-508.8-508.8s228.8-508.8 508.8-508.8 508.8 228.8 508.8 508.8-228.8 508.8-508.8 508.8zM820.8 624c-1.6-11.2-8-32-28.8-40-16-12.8-20.8-14.4-38.4-14.4-9.6 0-17.6 3.2-24 6.4s-12.8 6.4-19.2 6.4c-11.2 0-33.6-20.8-33.6-57.6 0-20.8-1.6-36.8-3.2-52.8 0-51.2 3.2-88 8-120 1.6-11.2 3.2-20.8 3.2-32 3.2-33.6 6.4-57.6 14.4-68.8 12.8-6.4 17.6-16 16-24-1.6-11.2-12.8-19.2-24-19.2h-3.2c0 0-1.6 0-1.6 0-20.8 0-44.8 9.6-64 110.4-4.8 20.8-8 36.8-11.2 49.6 0 0 0 1.6 0 1.6-8-19.2-16-54.4-16-83.2 0-44.8 6.4-67.2 9.6-72 14.4-6.4 17.6-17.6 16-25.6-1.6-9.6-9.6-14.4-19.2-14.4h-16c-25.6 0-54.4 41.6-54.4 116.8 0 24 3.2 52.8 4.8 76.8 0 8 1.6 17.6 1.6 24-54.4 1.6-84.8 16-105.6 27.2-1.6 0-1.6 1.6-3.2 1.6-3.2-16-8-27.2-11.2-38.4-6.4-16-9.6-27.2-9.6-41.6 0-59.2 14.4-72 24-80 6.4-6.4 14.4-12.8 14.4-25.6s-12.8-25.6-28.8-25.6c-28.8 0-43.2 8-52.8 30.4-12.8 27.2-22.4 73.6-24 102.4-1.6-1.6-3.2-3.2-6.4-4.8-17.6-12.8-28.8-20.8-28.8-32 0-59.2 14.4-72 24-80 6.4-6.4 14.4-12.8 14.4-25.6s-12.8-25.6-28.8-25.6c-28.8 0-43.2 8-52.8 30.4-14.4 28.8-24 78.4-24 105.6 0 25.6 8 35.2 16 43.2 6.4 6.4 9.6 12.8 9.6 28.8 0 4.8-1.6 9.6-6.4 17.6-8 14.4-19.2 33.6-19.2 80 0 41.6 12.8 73.6 16 80 0 3.2 1.6 17.6-11.2 40-4.8 9.6-14.4 17.6-22.4 25.6-12.8 11.2-28.8 25.6-17.6 44.8 3.2 4.8 9.6 8 16 8 20.8 0 56-22.4 68.8-43.2 9.6-14.4 20.8-35.2 25.6-46.4 4.8 0 14.4 0 22.4 0 17.6 0 28.8-3.2 41.6-6.4s25.6-6.4 44.8-6.4c70.4 0 120 8 150.4 24-1.6 3.2-3.2 6.4-3.2 11.2-3.2 30.4 32 65.6 56 88 3.2 3.2 6.4 6.4 8 8 0 0 1.6 1.6 1.6 1.6s0 0 0 0c11.2 11.2 27.2 16 44.8 16 36.8 0 51.2-24 62.4-41.6 6.4-11.2 12.8-19.2 20.8-22.4 9.6-3.2 38.4-11.2 44.8-11.2 3.2 0 9.6-1.6 12.8-6.4 8-6.4 3.2-14.4 0-19.2z" />
</font>
</defs>
</svg>
