<?xml version="1.0" standalone="no"?>
<!DOCTYPE svg PUBLIC "-//W3C//DTD SVG 1.1//EN" "http://www.w3.org/Graphics/SVG/1.1/DTD/svg11.dtd" >
<svg xmlns="http://www.w3.org/2000/svg">
<metadata></metadata>
<defs>
<font id="museo_sans900" horiz-adv-x="1302" >
<font-face units-per-em="2048" ascent="1536" descent="-512" />
<missing-glyph horiz-adv-x="468" />
<glyph unicode="&#xfb00;" horiz-adv-x="1572" d="M68 778v277h129v24q0 99 35 173.5t85.5 115t120 65.5t126 32.5t116.5 7.5q28 0 54.5 -1.5t39.5 -3.5l12 -2v-299q-24 4 -57 4q-178 0 -178 -102v-14h432v24q0 99 35 173.5t85.5 115t120 65.5t126 32.5t116.5 7.5q28 0 54.5 -1.5t39.5 -3.5l13 -2v-299q-24 4 -57 4 q-179 0 -179 -102v-14h195v-277h-195v-778h-354v778h-432v-778h-354v778h-129z" />
<glyph unicode="&#xfb01;" horiz-adv-x="1402" d="M68 778v277h129v24q0 99 35 173.5t85.5 115t120 65.5t126 32.5t116.5 7.5q28 0 54.5 -1.5t39.5 -3.5l12 -2v-299q-24 4 -57 4q-178 0 -178 -102v-14h721v-1055h-354v778h-367v-778h-354v778h-129zM922 1188v276h346v-276h-346z" />
<glyph unicode="&#xfb02;" horiz-adv-x="1447" d="M68 760v276h129v43q0 99 35 173.5t85.5 115t120 65.5t126 32.5t116.5 7.5q28 0 54.5 -1.5t39.5 -3.5l12 -2v-299q-24 4 -57 4q-178 0 -178 -102v-33h194v-276h-194v-760h-354v760h-129zM903 389v1075h354v-1028q0 -77 20 -106t79 -29l43 2v-307q-50 -6 -107 -6 q-45 0 -81.5 3.5t-77.5 14t-73 28t-62.5 48t-50.5 71.5t-32 100.5t-12 133.5z" />
<glyph unicode="&#xfb03;" horiz-adv-x="2189" d="M68 778v277h129v24q0 99 35 173.5t85.5 115t120 65.5t126 32.5t116.5 7.5q28 0 54.5 -1.5t39.5 -3.5l12 -2v-299q-24 4 -57 4q-178 0 -178 -102v-14h432v24q0 99 35 173.5t85.5 115t120 65.5t126 32.5t116.5 7.5q28 0 54.5 -1.5t39.5 -3.5l13 -2v-299q-24 4 -57 4 q-179 0 -179 -102v-14h721v-1055h-354v778h-367v-778h-354v778h-432v-778h-354v778h-129zM1708 1188v276h346v-276h-346z" />
<glyph unicode="&#xfb04;" horiz-adv-x="2234" d="M68 778v277h129v24q0 99 35 173.5t85.5 115t120 65.5t126 32.5t116.5 7.5q28 0 54.5 -1.5t39.5 -3.5l12 -2v-299q-24 4 -57 4q-178 0 -178 -102v-14h432v24q0 99 35 173.5t85.5 115t120 65.5t126 32.5t116.5 7.5q28 0 54.5 -1.5t39.5 -3.5l13 -2v-299q-24 4 -57 4 q-179 0 -179 -102v-14h195v-277h-195v-778h-354v778h-432v-778h-354v778h-129zM1690 389v1075h354v-1028q0 -77 19.5 -106t78.5 -29l43 2v-307q-49 -6 -106 -6q-45 0 -81.5 3.5t-77.5 14t-73 28t-62.5 48t-50.5 71.5t-32 100.5t-12 133.5z" />
<glyph horiz-adv-x="2048" />
<glyph horiz-adv-x="2048" />
<glyph unicode="&#xd;" horiz-adv-x="2048" />
<glyph unicode=" "  horiz-adv-x="468" />
<glyph unicode="&#x09;" horiz-adv-x="468" />
<glyph unicode="&#xa0;" horiz-adv-x="468" />
<glyph unicode="!" horiz-adv-x="749" d="M190 1464h369l-33 -1011h-303zM213 0v307h324v-307h-324z" />
<glyph unicode="&#x22;" horiz-adv-x="845" d="M102 1004v491h250v-491h-250zM494 1004v491h249v-491h-249z" />
<glyph unicode="#" horiz-adv-x="1431" d="M63 369l41 245h207l35 195h-203l41 246h203l72 409h274l-71 -409h221l71 409h275l-72 -409h215l-41 -246h-215l-35 -195h211l-41 -245h-211l-63 -369h-275l64 369h-221l-64 -369h-274l63 369h-207zM586 614h221l35 195h-221z" />
<glyph unicode="$" horiz-adv-x="1124" d="M78 170l160 264q6 -6 16.5 -16t44 -35t67 -44.5t81 -35.5t90.5 -16q137 0 137 69q0 22 -31 43t-81 41t-110 43.5t-120.5 57t-110.5 75.5t-81 105t-31 139q0 135 97.5 227.5t256.5 122.5v191h223v-184q61 -7 117 -23t93 -34t65.5 -35.5t41.5 -28.5l13 -11l-125 -282 q-5 4 -14.5 11.5t-39 26t-60 33t-74.5 26t-85 11.5q-69 0 -105 -16t-36 -57q0 -20 31 -38t81 -36t110.5 -39.5t120.5 -54t110 -73.5t81 -104.5t31 -140.5q0 -132 -95.5 -233t-260.5 -131v-193h-223v187q-68 9 -133 32t-108.5 49t-77.5 50.5t-50 40.5z" />
<glyph unicode="%" horiz-adv-x="1744" d="M59 1135q0 146 108.5 250t262.5 104q153 0 262 -104.5t109 -249.5q0 -147 -108.5 -250t-262.5 -103q-155 0 -263 102.5t-108 250.5zM141 0l1131 1464h311l-1130 -1464h-312zM317 1137q0 -45 33.5 -77t79.5 -32t79.5 32t33.5 77q0 43 -33.5 74.5t-79.5 31.5t-79.5 -31.5 t-33.5 -74.5zM934 328q0 146 108.5 250t262.5 104q153 0 261.5 -104.5t108.5 -249.5q0 -148 -108 -250.5t-262 -102.5q-155 0 -263 102.5t-108 250.5zM1192 330q0 -45 33.5 -77t79.5 -32t79 32t33 77q0 43 -33 74.5t-79 31.5t-79.5 -31.5t-33.5 -74.5z" />
<glyph unicode="&#x26;" horiz-adv-x="1441" d="M80 424q0 114 64.5 210.5t168.5 139.5v4q-7 3 -18.5 10t-41 33t-52.5 58.5t-41.5 90t-18.5 124.5q0 83 27 150.5t73 112t108.5 75t131.5 44t144 13.5q47 0 100 -6.5t82 -12.5l29 -6l-82 -280q-37 8 -80 8q-74 0 -122 -39t-48 -113q0 -59 39.5 -100t109.5 -41h178v180h353 v-180h182v-307h-182v-141q0 -99 -37.5 -185t-107 -151t-176.5 -102.5t-238 -37.5q-245 0 -395 128.5t-150 320.5zM446 446q0 -60 52 -102.5t127 -42.5q98 0 152 47.5t54 122.5v121h-200q-80 0 -132.5 -34.5t-52.5 -111.5z" />
<glyph unicode="'" horiz-adv-x="460" d="M102 1004v491h256v-491h-256z" />
<glyph unicode="(" horiz-adv-x="688" d="M119 711q0 433 254 825h291q-232 -388 -232 -825q0 -465 232 -906h-291q-254 402 -254 906z" />
<glyph unicode=")" horiz-adv-x="688" d="M25 -195q231 439 231 906q0 439 -231 825h290q254 -392 254 -825q0 -504 -254 -906h-290z" />
<glyph unicode="*" horiz-adv-x="946" d="M37 1034l94 293l209 -92l-23 229h312l-25 -229l211 94l96 -293l-227 -47v-4l156 -170l-250 -182l-115 198h-4l-113 -198l-249 180l153 170v4z" />
<glyph unicode="+" horiz-adv-x="1286" d="M84 455v266h420v457h278v-457h420v-266h-420v-455h-278v455h-420z" />
<glyph unicode="," horiz-adv-x="589" d="M12 -227l154 567h338l-232 -567h-260z" />
<glyph unicode="-" horiz-adv-x="917" d="M137 434v307h643v-307h-643z" />
<glyph unicode="." horiz-adv-x="573" d="M119 0v336h336v-336h-336z" />
<glyph unicode="/" horiz-adv-x="888" d="M43 -86l524 1622h295l-524 -1622h-295z" />
<glyph unicode="0" horiz-adv-x="1210" d="M82 569q0 115 30 217.5t90.5 188t164.5 136t239 50.5q109 0 198 -33.5t148 -90.5t99.5 -134t58.5 -161.5t18 -176.5q0 -93 -18 -177t-58 -160.5t-99.5 -132t-148.5 -88t-198 -32.5t-198 33.5t-148.5 90t-100.5 133.5t-59 161t-18 176zM438 569q0 -61 8 -111t26 -94 t52 -69t82 -25t82 24.5t52 68.5t26 93.5t8 108.5q0 60 -8 111t-26.5 95t-52.5 69.5t-81 25.5q-48 0 -82 -25t-52 -69t-26 -93.5t-8 -109.5z" />
<glyph unicode="1" horiz-adv-x="1079" d="M57 893l396 244h301v-840h274v-297h-909v297h293v332l2 151h-4q-31 -36 -78 -65l-113 -64z" />
<glyph unicode="2" horiz-adv-x="1144" d="M61 942q7 9 21 23.5t63 52.5t103 67t140 52.5t177 23.5q64 0 125.5 -13t119.5 -41.5t102.5 -70.5t71 -105.5t26.5 -139.5q0 -72 -25.5 -139t-63.5 -117.5t-94.5 -98.5t-107.5 -80t-113 -65v-4q47 10 139 10h318v-297h-963v236q551 329 551 505q0 59 -41 88t-94 29 q-39 0 -82 -14.5t-76 -36t-60 -42.5t-42 -35l-14 -15z" />
<glyph unicode="3" horiz-adv-x="1116" d="M16 -84l154 248q6 -5 16 -14t43 -31.5t66.5 -40t82 -31.5t93.5 -14q99 0 155 40.5t56 106.5q0 46 -25 81t-65 54.5t-83.5 29t-88.5 9.5h-121l-76 162l162 199q30 36 62 68t49 47l16 14v2q-47 -8 -139 -8h-283v299h883v-201l-305 -340q161 -28 265.5 -135.5t104.5 -253.5 q0 -93 -35 -176.5t-102 -149.5t-174 -104.5t-240 -38.5q-87 0 -167 18.5t-133 44.5t-93.5 52t-59.5 45z" />
<glyph unicode="4" horiz-adv-x="1269" d="M45 47v217l526 873h457v-793h174v-297h-174v-285h-354v285h-629zM410 344h264v320q0 36 3 76.5t6 63.5l3 23h-4q-33 -88 -72 -151z" />
<glyph unicode="5" horiz-adv-x="1130" d="M43 -86l150 250q5 -5 15 -14t42 -31.5t65 -40t82 -31.5t95 -14q53 0 101.5 17.5t83 58t34.5 96.5q0 88 -65.5 139t-164.5 51q-53 0 -104.5 -11.5t-76.5 -22.5l-26 -11l-180 68l60 719h788v-299h-487l-9 -131l-8 -56h4q52 15 107 15q124 0 224.5 -36t163.5 -97.5 t96.5 -140.5t33.5 -169q0 -219 -152.5 -352t-394.5 -133q-85 0 -165.5 18t-134.5 44t-96 52t-62 44z" />
<glyph unicode="6" horiz-adv-x="1222" d="M92 625q0 115 26.5 225.5t82.5 210t134.5 174.5t190.5 119.5t242 44.5q91 0 172 -15t116 -30l36 -15l-97 -276q-96 41 -200 41q-113 0 -192.5 -69.5t-115.5 -170.5h5q27 18 89 32.5t113 14.5q108 0 198.5 -39.5t148.5 -105t90 -149t32 -173.5q0 -88 -33.5 -171t-94 -150 t-154.5 -107.5t-207 -40.5q-91 0 -174 23.5t-158 75t-130 126t-87.5 184t-32.5 241.5zM453 557q0 -119 64.5 -203t156.5 -84q62 0 99.5 47t37.5 121q0 82 -53 141.5t-158 59.5q-147 0 -147 -82z" />
<glyph unicode="7" horiz-adv-x="1124" d="M53 840v297h1028v-236l-587 -1139h-371l487 955q22 43 41.5 74t28.5 41l8 10v4q-10 -6 -84 -6h-551z" />
<glyph unicode="8" horiz-adv-x="1226" d="M80 403q0 56 20.5 111.5t54.5 99.5t62 73t57 52q-129 107 -129 260q0 77 29 147t85.5 127t149.5 90.5t212 33.5q99 0 186 -27t153.5 -76.5t105 -126.5t38.5 -170q0 -52 -16.5 -108.5t-42.5 -103.5t-40 -69.5t-26 -37.5q162 -109 162 -283q0 -80 -34.5 -154t-98.5 -134 t-168 -96t-232 -36q-125 0 -227 36t-166.5 96t-99.5 136.5t-35 159.5zM430 432q0 -67 52 -115.5t126 -48.5q82 0 129 38.5t47 105.5q0 13 -4 25t-14 24t-20 21.5t-28 20.5t-31.5 19t-38.5 19.5t-41 18.5t-45.5 20t-45.5 20q-86 -81 -86 -168zM483 993q0 -26 13 -49.5t32 -41 t52.5 -36.5t62.5 -32t74 -31q49 87 49 170q0 59 -40.5 95t-109.5 36q-65 0 -99 -31.5t-34 -79.5z" />
<glyph unicode="9" horiz-adv-x="1224" d="M59 692q0 88 33.5 171t94 150t155 107.5t207.5 40.5q91 0 174 -23.5t158 -74.5t130 -125.5t87 -184t32 -241.5q0 -115 -26.5 -225.5t-82 -210t-134 -174.5t-190.5 -119.5t-242 -44.5q-91 0 -172 15t-117 29l-35 15l96 277q97 -41 201 -41q113 0 192 69t115 170h-4 q-27 -18 -89 -32.5t-114 -14.5q-108 0 -198.5 39.5t-148.5 105t-90 149t-32 173.5zM412 698q0 -82 53 -141t158 -59q147 0 147 82q0 119 -64.5 202.5t-156.5 83.5q-62 0 -99.5 -47t-37.5 -121z" />
<glyph unicode=":" horiz-adv-x="614" d="M139 0v336h336v-336h-336zM139 719v336h336v-336h-336z" />
<glyph unicode=";" horiz-adv-x="618" d="M27 -227l133 567h340l-211 -567h-262zM170 719v336h324v-336h-324z" />
<glyph unicode="&#x3c;" horiz-adv-x="1292" d="M123 479v219l1032 457v-297l-676 -268v-4l676 -267v-296z" />
<glyph unicode="=" horiz-adv-x="1323" d="M143 219v266h1037v-266h-1037zM143 690v266h1037v-266h-1037z" />
<glyph unicode="&#x3e;" horiz-adv-x="1292" d="M137 23v296l676 267v4l-676 268v297l1032 -457v-219z" />
<glyph unicode="?" horiz-adv-x="1026" d="M37 1325q6 7 18 18.5t53.5 40.5t87.5 51.5t119 41t150 18.5q70 0 137.5 -16t129 -49.5t108.5 -80t74.5 -112.5t27.5 -143q0 -68 -19.5 -127t-50 -101t-68 -79t-75 -67.5t-68 -59.5t-50 -63t-19.5 -71v-73h-340v102q0 56 17.5 105t46 84.5t62.5 67.5t68.5 60t63 55t46 59 t17.5 67q0 52 -42.5 86.5t-102.5 34.5q-44 0 -92.5 -22t-75.5 -44l-27 -23zM260 0v307h324v-307h-324z" />
<glyph unicode="@" horiz-adv-x="1771" d="M90 489q0 160 61.5 302.5t167.5 245.5t256 163t320 60q132 0 237 -26t174 -70.5t114.5 -107.5t65 -134t19.5 -154v-406h152v-243h-580q-111 0 -201.5 32t-147 85t-86.5 119t-30 137q0 69 29.5 132.5t85 115t146.5 82t204 30.5h101q0 61 -85.5 96t-191.5 35 q-97 0 -184.5 -42.5t-148.5 -111.5t-96.5 -158.5t-35.5 -181.5q0 -99 34 -186.5t97.5 -155.5t163 -107.5t221.5 -39.5v-266q-197 0 -360.5 58.5t-272.5 160.5t-169 240t-60 296zM963 500q0 -60 35 -99t100 -39h80v275h-76q-67 0 -103 -39t-36 -98z" />
<glyph unicode="A" horiz-adv-x="1355" d="M-8 0l497 1464h377l498 -1464h-369l-90 307h-456l-89 -307h-368zM532 594h289l-82 285q-12 41 -27 103.5t-24 105.5l-8 42h-4q-33 -159 -60 -251z" />
<glyph unicode="B" horiz-adv-x="1349" d="M172 0v1464h539q226 0 361.5 -99.5t135.5 -283.5q0 -95 -44.5 -180t-125.5 -131v-4q117 -36 173.5 -128.5t56.5 -201.5q0 -93 -30 -167.5t-82 -124t-123.5 -82.5t-151.5 -47.5t-170 -14.5h-539zM530 307h215q74 0 115 44.5t41 109.5t-39 107t-114 42h-218v-303zM530 897 h185q64 0 96.5 39t32.5 96q0 55 -33.5 90t-101.5 35h-179v-260z" />
<glyph unicode="C" horiz-adv-x="1474" d="M72 735q0 157 58.5 297t160 240t244.5 158.5t305 58.5q101 0 195 -21.5t155.5 -51.5t108.5 -60.5t69 -51.5l21 -22l-166 -270q-7 6 -19 16t-51.5 36t-80 45.5t-100 35.5t-116.5 16q-102 0 -183 -35.5t-130 -95t-75 -133t-26 -154.5q0 -83 27.5 -160.5t78 -140.5 t130.5 -101t178 -38q62 0 125 18.5t108 45t82 53t55 44.5l19 19l185 -262q-8 -10 -24.5 -26.5t-73 -59t-119.5 -75t-164.5 -59t-208.5 -26.5q-225 0 -401 99.5t-271.5 272t-95.5 388.5z" />
<glyph unicode="D" horiz-adv-x="1527" d="M172 0v1464h520q349 0 552.5 -193t203.5 -536t-204 -539t-552 -196h-520zM530 307h148q189 0 294 110t105 318q0 205 -106.5 313.5t-292.5 108.5h-148v-850z" />
<glyph unicode="E" horiz-adv-x="1204" d="M172 0v1464h918v-307h-560v-266h447v-307h-447v-277h588v-307h-946z" />
<glyph unicode="F" horiz-adv-x="1124" d="M172 0v1464h897v-307h-539v-307h447v-307h-447v-543h-358z" />
<glyph unicode="G" horiz-adv-x="1576" d="M74 735q0 158 58 297.5t158.5 240t244 158.5t307.5 58q105 0 201.5 -20t159.5 -48.5t111 -57.5t70 -49l21 -20l-172 -268q-6 5 -17.5 14.5t-48 32.5t-76 41t-98 32.5t-116.5 14.5q-111 0 -196.5 -33.5t-136 -92t-75.5 -131t-25 -156.5q0 -102 33.5 -187t91 -140.5 t134 -86.5t161.5 -31q48 0 96.5 11t83 26.5t62 31.5t41.5 27l14 11v112h-207v305h525v-827h-299v41l2 61h-4q-6 -5 -17 -13.5t-48.5 -30.5t-79 -39t-107 -30.5t-133.5 -13.5q-141 0 -270.5 52.5t-229.5 147t-159.5 240.5t-59.5 320z" />
<glyph unicode="H" horiz-adv-x="1593" d="M172 0v1464h358v-585h533v585h358v-1464h-358v573h-533v-573h-358z" />
<glyph unicode="I" horiz-adv-x="702" d="M172 0v1464h358v-1464h-358z" />
<glyph unicode="J" horiz-adv-x="1177" d="M43 451v106h358v-78q0 -79 29 -123q34 -53 107 -53q59 0 94 39.5t35 116.5v698h-394v307h752v-1013q0 -116 -42 -209.5t-112 -150t-157 -86.5t-181 -30t-180.5 30.5t-156 88t-111 150t-41.5 207.5z" />
<glyph unicode="K" horiz-adv-x="1417" d="M172 0v1464h358v-565h148l303 565h385l-395 -700v-4l418 -760h-402l-309 594h-148v-594h-358z" />
<glyph unicode="L" horiz-adv-x="1153" d="M172 0v1464h358v-1157h598v-307h-956z" />
<glyph unicode="M" horiz-adv-x="1849" d="M127 0l121 1464h389l213 -618q15 -42 33.5 -102.5t29.5 -99.5l11 -40h4q40 148 73 242l213 618h390l118 -1464h-358l-45 659q-4 49 -4 110.5t2 98.5l2 37h-4q-49 -154 -82 -246l-154 -423h-307l-154 423l-81 246h-5q4 -68 4 -129.5t-4 -116.5l-45 -659h-360z" />
<glyph unicode="N" horiz-adv-x="1581" d="M172 0v1464h363l405 -684q25 -43 56 -105.5t49 -103.5l18 -41h4q-16 158 -16 250v684h358v-1464h-360l-408 682q-25 43 -56 105.5t-49 103.5l-18 41h-4q16 -158 16 -250v-682h-358z" />
<glyph unicode="O" horiz-adv-x="1675" d="M72 741q0 155 58 293.5t158.5 238.5t243.5 158t306 58t306 -58t243.5 -158t158.5 -238.5t58 -293.5q0 -213 -98.5 -388t-274.5 -276.5t-393 -101.5t-393 101.5t-274.5 276.5t-98.5 388zM442 741q0 -186 115.5 -312t280.5 -126t280 126t115 312q0 179 -115 299.5 t-280 120.5q-166 0 -281 -120.5t-115 -299.5z" />
<glyph unicode="P" horiz-adv-x="1298" d="M172 0v1464h608q213 0 345 -140.5t132 -362.5q0 -223 -132.5 -365.5t-344.5 -142.5h-250v-453h-358zM530 760h177q91 0 138.5 55t47.5 146q0 90 -46.5 143t-133.5 53h-183v-397z" />
<glyph unicode="Q" horiz-adv-x="1695" d="M72 741q0 155 58 293.5t158.5 238.5t243.5 158t306 58t306 -58t243.5 -158t158.5 -238.5t58 -293.5q0 -225 -146 -434l154 -125l-203 -227l-149 141q-185 -121 -422 -121q-217 0 -393 101.5t-274.5 276.5t-98.5 388zM442 741q0 -186 115.5 -312t280.5 -126q94 0 159 33 l-149 131l201 227l145 -141q39 89 39 188q0 179 -115 299.5t-280 120.5q-166 0 -281 -120.5t-115 -299.5z" />
<glyph unicode="R" horiz-adv-x="1402" d="M172 0v1464h510q199 0 285 -34q127 -48 198.5 -158.5t71.5 -267.5q0 -124 -57.5 -235.5t-161.5 -164.5v-4q20 -27 55 -88l285 -512h-400l-260 494h-168v-494h-358zM530 801h156q87 0 136.5 46.5t49.5 133.5q0 90 -46.5 133t-174.5 43h-121v-356z" />
<glyph unicode="S" horiz-adv-x="1187" d="M63 184l189 273q7 -6 19 -16.5t50.5 -36.5t78 -46t95 -36.5t107.5 -16.5q64 0 109 28t45 89q0 35 -36.5 65t-94.5 55.5t-128.5 53.5t-141 67t-128.5 87.5t-94.5 123t-36.5 166.5q0 199 148 324t370 125q88 0 169 -17t133.5 -41.5t92.5 -49t58 -41.5l18 -17l-151 -293 q-6 5 -17 14t-46 31t-71 39t-88.5 31t-101.5 14q-63 0 -109 -29t-46 -86q0 -37 36.5 -67t94.5 -54.5t128 -51t140.5 -64t128.5 -85t94.5 -123t36.5 -169.5q0 -92 -35 -174t-99 -145t-163 -99.5t-219 -36.5q-96 0 -186.5 21.5t-151 52.5t-107.5 61.5t-69 51.5z" />
<glyph unicode="T" horiz-adv-x="1263" d="M8 1157v307h1247v-307h-444v-1157h-358v1157h-445z" />
<glyph unicode="U" horiz-adv-x="1527" d="M152 539v925h358v-925q0 -114 68 -175t186 -61t186 61t68 175v925h358v-925q0 -164 -75 -292t-214 -200t-321 -72q-277 0 -445.5 157t-168.5 407z" />
<glyph unicode="V" horiz-adv-x="1382" d="M-12 1464h389l258 -833q13 -41 26.5 -100t20.5 -97l8 -39h4q27 144 56 236l262 833h383l-516 -1464h-373z" />
<glyph unicode="W" horiz-adv-x="2043" d="M43 1464h377l184 -915q8 -40 12.5 -78.5t5.5 -56.5l1 -19h4q1 64 24 154l226 915h288l219 -915q10 -40 16.5 -78.5t7.5 -56.5l1 -19h4q1 64 19 154l200 915h371l-371 -1464h-399l-184 739q-10 42 -17.5 85t-9.5 65l-2 22h-4q-6 -78 -29 -172l-184 -739h-404z" />
<glyph unicode="X" horiz-adv-x="1382" d="M31 1464h407l160 -301q22 -41 44.5 -88t33.5 -73l12 -27h4q39 94 90 188l162 301h408l-449 -737l447 -727h-400l-168 307q-23 41 -45.5 86.5t-33.5 70.5l-11 25h-4q-39 -90 -90 -182l-168 -307h-397l444 727z" />
<glyph unicode="Y" horiz-adv-x="1308" d="M-8 1464h407l166 -352q21 -44 43 -97t34 -83l11 -31h4q41 111 88 211l164 352h408l-483 -864v-600h-359v600z" />
<glyph unicode="Z" horiz-adv-x="1306" d="M78 0v225l565 801q28 40 56.5 73t42.5 47l14 13v4q-47 -6 -113 -6h-539v307h1106v-221l-567 -805q-28 -40 -56.5 -73.5t-42.5 -46.5l-14 -13v-4q47 6 113 6h578v-307h-1143z" />
<glyph unicode="[" horiz-adv-x="757" d="M174 -195v1731h504v-246h-209v-1239h209v-246h-504z" />
<glyph unicode="\" horiz-adv-x="888" d="M27 1536h295l524 -1622h-295z" />
<glyph unicode="]" horiz-adv-x="757" d="M80 51h209v1239h-209v246h504v-1731h-504v246z" />
<glyph unicode="^" horiz-adv-x="1290" d="M119 494l416 970h219l415 -970h-297l-229 614l-227 -614h-297z" />
<glyph unicode="_" horiz-adv-x="1273" d="M27 0h1220v-266h-1220v266z" />
<glyph unicode="`" horiz-adv-x="991" d="M238 1866h350l166 -307h-275z" />
<glyph unicode="a" horiz-adv-x="1146" d="M51 315q0 63 26 115.5t66.5 87t97.5 61t112.5 41t117.5 23.5t106.5 11.5t86.5 2.5h14v19q0 117 -156 117q-59 0 -130 -25.5t-112 -50.5l-42 -25l-123 250q7 6 21 15t59.5 32.5t94 41.5t121.5 33t146 15q223 0 349 -114.5t126 -315.5v-649h-323v63l4 66h-4 q-3 -6 -9.5 -16.5t-32 -37t-56.5 -47t-85 -37t-116 -16.5q-152 0 -255.5 93.5t-103.5 246.5zM408 334q0 -39 25 -63.5t75 -24.5q67 0 120.5 59.5t53.5 126.5v23h-33q-61 0 -113 -11.5t-90 -39.5t-38 -70z" />
<glyph unicode="b" horiz-adv-x="1304" d="M131 0v1464h354v-407l-4 -90h4q4 5 12 12.5t35 26.5t57.5 34t79.5 27t101 12q214 0 344.5 -153t130.5 -400t-138.5 -399t-352.5 -152q-55 0 -104.5 12.5t-82 30t-56.5 34.5t-35 30l-11 12h-4q2 -26 2 -59v-35h-332zM475 520q0 -103 54.5 -177.5t152.5 -74.5 q87 0 147 67.5t60 184.5q0 118 -57 189t-150 71q-87 0 -147 -66t-60 -194z" />
<glyph unicode="c" horiz-adv-x="1128" d="M53 528q0 107 39.5 205.5t112 176t185.5 123.5t251 46q80 0 153 -16.5t119.5 -39.5t81.5 -46.5t51 -40.5l15 -16l-150 -238q-4 4 -12 11t-33 24.5t-52.5 31t-68 24.5t-81.5 11q-119 0 -185.5 -75t-66.5 -177q0 -103 69.5 -182.5t194.5 -79.5q65 0 137.5 32t112.5 64 l39 31l129 -247q-6 -7 -18.5 -19t-56 -42t-92 -53t-126 -42t-160.5 -19q-137 0 -250 45.5t-186 122t-112.5 176t-39.5 209.5z" />
<glyph unicode="d" horiz-adv-x="1304" d="M59 528q0 248 134.5 399.5t347.5 151.5q60 0 110 -8.5t79.5 -21t50 -25t28.5 -20.5l8 -9h4q-2 20 -2 47v422h355v-1464h-332v70l2 59h-4l-11 -16.5t-34 -37t-59 -47t-86 -37t-115 -16.5q-214 0 -345 153t-131 400zM416 528q0 -118 57 -189t150 -71q87 0 146.5 66 t59.5 194q0 103 -54 177.5t-152 74.5q-87 0 -147 -67.5t-60 -184.5z" />
<glyph unicode="e" horiz-adv-x="1153" d="M55 528q0 155 65.5 279.5t191.5 198t292 73.5q228 0 358 -142t130 -368l-9 -110h-665q19 -92 87.5 -140.5t158.5 -48.5q68 0 140.5 27t111.5 53l38 27l131 -248q-7 -6 -20 -16.5t-57.5 -37t-93 -47t-124.5 -37t-155 -16.5q-137 0 -249 46.5t-183 124.5t-109.5 176.5 t-38.5 205.5zM426 662h309q0 62 -39 106.5t-100 44.5q-71 0 -113 -42.5t-57 -108.5z" />
<glyph unicode="f" horiz-adv-x="786" d="M68 760v276h129v43q0 99 35 173.5t85.5 115t120 65.5t126 32.5t116.5 7.5q28 0 54.5 -1.5t39.5 -3.5l12 -2v-299q-24 4 -57 4q-178 0 -178 -102v-33h194v-276h-194v-760h-354v760h-129z" />
<glyph unicode="g" horiz-adv-x="1288" d="M61 561q0 103 30 194.5t87 164.5t149 116t208 43q54 0 103.5 -10.5t81 -25.5t56 -30t34.5 -25l11 -11h6q-2 12 -2 24v54h332v-959q0 -112 -34.5 -202.5t-92 -149.5t-135.5 -99t-161 -57.5t-173 -17.5q-103 0 -211.5 26.5t-187.5 67.5l100 268q15 -8 41 -19t104 -29.5 t152 -18.5q108 0 176 47.5t68 155.5v34l2 39h-4q-91 -110 -264 -110q-115 0 -207.5 44.5t-150 119.5t-88 169t-30.5 197zM418 573q0 -106 51.5 -176.5t151.5 -70.5q81 0 135.5 52.5t54.5 178.5q0 67 -16.5 113.5t-47 70t-64.5 33.5t-77 10q-91 0 -139.5 -58.5t-48.5 -152.5z " />
<glyph unicode="h" d="M131 0v1464h354v-463l-4 -90h4q44 78 131 123t191 45q83 0 149.5 -20.5t119.5 -65t81.5 -123t28.5 -186.5v-684h-355v618q0 73 -28.5 106.5t-87.5 33.5q-79 0 -133 -42t-78 -114q-19 -56 -19 -135v-467h-354z" />
<glyph unicode="i" horiz-adv-x="616" d="M131 0v1055h354v-1055h-354zM135 1188v276h346v-276h-346z" />
<glyph unicode="j" horiz-adv-x="616" d="M-104 -125q18 -2 45 -2q32 0 60 5t60 17.5t51 41.5t19 71v1047h354v-1082q0 -73 -19 -133.5t-50 -101t-74.5 -71t-87.5 -48t-94.5 -28t-90 -14t-79.5 -3.5q-25 0 -48.5 1.5t-34.5 2.5l-11 2v295zM135 1188v276h346v-276h-346z" />
<glyph unicode="k" horiz-adv-x="1226" d="M131 0v1464h354v-757h101l209 348h385l-310 -480v-4l353 -571h-404l-223 410h-111v-410h-354z" />
<glyph unicode="l" horiz-adv-x="661" d="M117 389v1075h354v-1028q0 -77 19.5 -106t78.5 -29l43 2v-307q-49 -6 -106 -6q-45 0 -81.5 3.5t-77.5 14t-73 28t-62.5 48t-50.5 71.5t-32 100.5t-12 133.5z" />
<glyph unicode="m" horiz-adv-x="1880" d="M131 0v1055h340v-92l-4 -66h4q121 182 313 182q101 0 177.5 -45t117.5 -133h4q46 73 136.5 125.5t201.5 52.5q156 0 249 -94.5t93 -300.5v-684h-354v625q0 65 -17.5 99t-64.5 34q-155 0 -194 -199q-9 -42 -9 -123v-436h-354v625q0 65 -17.5 99t-64.5 34q-150 0 -192 -191 q-11 -54 -11 -131v-436h-354z" />
<glyph unicode="n" d="M131 0v1055h340v-92l-4 -66h4q45 76 127.5 129t208.5 53q83 0 149.5 -20.5t119.5 -65t81.5 -123t28.5 -186.5v-684h-355v618q0 73 -28.5 106.5t-87.5 33.5q-80 0 -132.5 -40.5t-76.5 -111.5q-21 -62 -21 -139v-467h-354z" />
<glyph unicode="o" d="M53 524q0 122 47 226.5t127 176t189.5 112t232.5 40.5q167 0 303 -68.5t216.5 -196.5t80.5 -290q0 -161 -80.5 -287.5t-216 -194t-301.5 -67.5t-301.5 67.5t-216 194t-80.5 287.5zM412 524q0 -115 69.5 -184.5t169.5 -69.5t170 69.5t70 184.5q0 117 -70 188.5t-170 71.5 t-169.5 -71.5t-69.5 -188.5z" />
<glyph unicode="p" horiz-adv-x="1304" d="M131 -410v1465h320v-54l-5 -67h5q4 6 12 15.5t36.5 34.5t62 44.5t90 35t118.5 15.5q214 0 344.5 -153t130.5 -400t-138.5 -399t-352.5 -152q-48 0 -93.5 10.5t-76 25t-54 29.5t-34.5 26l-11 10h-4q4 -37 4 -90v-396h-354zM475 520q0 -103 54.5 -177.5t152.5 -74.5 q87 0 147 67.5t60 184.5q0 118 -57 189t-150 71q-87 0 -147 -66t-60 -194z" />
<glyph unicode="q" horiz-adv-x="1304" d="M59 528q0 248 134.5 399.5t347.5 151.5q60 0 113 -11.5t85.5 -28t57 -33t35.5 -28.5l10 -11h4q-4 22 -4 57v31h332v-1465h-355v414l4 90h-4q-4 -5 -11 -13t-33.5 -28.5t-56.5 -36t-79.5 -28.5t-103.5 -13q-214 0 -345 153t-131 400zM416 528q0 -118 57 -189t150 -71 q87 0 146.5 66t59.5 194q0 103 -54 177.5t-152 74.5q-87 0 -147 -67.5t-60 -184.5z" />
<glyph unicode="r" horiz-adv-x="880" d="M131 0v1055h340v-178l-4 -66h4q35 111 128 186.5t208 75.5l41 -4v-348q-29 6 -72 6q-37 0 -72 -7t-75.5 -25t-73.5 -57t-51 -95q-19 -62 -19 -144v-399h-354z" />
<glyph unicode="s" horiz-adv-x="964" d="M49 131l152 238q5 -4 13.5 -11.5t37 -26t58 -32.5t73 -25.5t86.5 -11.5q44 0 74 12t30 37q0 16 -21 31.5t-56 28.5t-79 31t-90.5 37.5t-90.5 50t-79 66.5t-56 88t-21 114q0 146 123 233.5t311 87.5q69 0 132.5 -12.5t105 -30.5t73 -35.5t45.5 -30.5l15 -12l-121 -251 l-12 9t-33.5 21t-53 26t-69 20.5t-82.5 9.5q-44 0 -74 -13t-30 -39q0 -14 21 -27.5t56 -25.5t79 -29t90.5 -36t90.5 -49t79 -65t56 -87t21 -113q0 -141 -117.5 -237.5t-314.5 -96.5q-74 0 -144.5 16t-118.5 39t-85.5 46t-55.5 39z" />
<glyph unicode="t" horiz-adv-x="849" d="M49 760v276h146v303h344v-303h221v-276h-221v-324q0 -42 19 -71t50.5 -41.5t59.5 -17.5t59 -5l47 2v-307q-39 -6 -96 -6q-41 0 -80.5 3.5t-90.5 14t-94.5 28t-86.5 48t-73.5 71t-49.5 101t-19 133.5v371h-135z" />
<glyph unicode="u" horiz-adv-x="1292" d="M117 371v684h354v-619q0 -139 113 -139q109 0 166 82.5t57 208.5v467h354v-1055h-340v92l4 66h-4q-42 -84 -132 -133.5t-197 -49.5q-82 0 -147.5 20.5t-118 65.5t-81 123.5t-28.5 186.5z" />
<glyph unicode="v" horiz-adv-x="1150" d="M-4 1055h373l163 -561q9 -30 18.5 -76t15.5 -76l5 -31h4q19 113 39 183l162 561h375l-358 -1055h-433z" />
<glyph unicode="w" horiz-adv-x="1720" d="M27 1055h372l131 -623q5 -25 8.5 -52.5t3.5 -42.5l1 -15h4q4 53 18 110l146 623h303l145 -623q6 -25 10.5 -52.5t5.5 -42.5l1 -15h4q2 53 14 110l131 623h369l-295 -1055h-395l-119 487q-6 25 -11.5 53.5t-7.5 43.5l-2 16h-4q-6 -56 -20 -113l-119 -487h-399z" />
<glyph unicode="x" horiz-adv-x="1142" d="M23 1055h399l115 -236l32 -69h4q21 42 33 69l115 236h399l-338 -533l332 -522h-389l-127 238l-25 53h-4q-14 -35 -24 -53l-125 -238h-389l331 522z" />
<glyph unicode="y" horiz-adv-x="1118" d="M-35 1055h402l155 -486q8 -25 18 -66t16 -69l5 -28h4q21 100 35 157l133 492h387l-432 -1168q-62 -165 -181 -241t-259 -76q-62 0 -123.5 18.5t-92.5 37.5l-30 18l113 260q57 -39 108 -39q126 0 170 106l21 49z" />
<glyph unicode="z" horiz-adv-x="1112" d="M70 0v176l387 486q24 29 47 53t34 33l11 10v4q-26 -4 -92 -4h-371v297h942v-178l-385 -486q-23 -28 -46.5 -52t-35.5 -34l-12 -10v-4q26 6 94 6h395v-297h-968z" />
<glyph unicode="{" horiz-adv-x="829" d="M80 524v307q7 0 19 1t42 12t52.5 30.5t41.5 61t19 98.5v180q0 61 15.5 110.5t40 83.5t60 59.5t71.5 40t78 23.5t75 12t68 3l88 -4v-254q-23 4 -52 4q-26 0 -49 -4.5t-47 -15t-38.5 -34t-14.5 -56.5v-240q0 -59 -17.5 -107t-43 -75t-51 -46t-43.5 -26l-17 -6v-4 q7 -2 18.5 -6t41 -23t52.5 -45t41.5 -75t18.5 -109v-260q0 -33 14.5 -56.5t38.5 -34.5t47 -15.5t49 -4.5l52 4v-254q-37 -4 -88 -4q-35 0 -68 3t-75 12t-78 23.5t-71.5 40t-60 59.5t-40 83.5t-15.5 110.5v201q0 55 -18 95.5t-43.5 59t-51 29t-43.5 11.5z" />
<glyph unicode="|" horiz-adv-x="634" d="M170 -338v1980h295v-1980h-295z" />
<glyph unicode="}" horiz-adv-x="829" d="M80 53q22 -4 51 -4q26 0 49 4.5t47.5 15.5t39 34.5t14.5 56.5v260q0 60 17.5 109t43 75.5t51 44.5t43.5 23l17 6v4q-7 2 -18.5 6.5t-41 25t-52.5 46.5t-41.5 74.5t-18.5 107.5v240q0 33 -14.5 56.5t-39 34t-47.5 15t-49 4.5l-51 -4v254q37 4 88 4t98 -6t106 -27 t101.5 -55t72 -97t29.5 -147v-180q0 -57 18 -98.5t43.5 -61t51.5 -30.5t44 -12l18 -1v-307q-7 0 -19 -1t-42 -11.5t-53 -29t-42 -59t-19 -95.5v-201q0 -84 -29.5 -147t-72 -97t-101.5 -55t-106 -27t-98 -6l-88 4v254z" />
<glyph unicode="~" horiz-adv-x="1280" d="M96 391q0 416 357 416q53 0 98.5 -17t77.5 -41t60 -48t57.5 -41t58.5 -17q51 0 82 40t31 116h272q0 -416 -354 -416q-53 0 -98.5 17t-77.5 41t-60.5 48t-58.5 41t-60 17q-49 0 -79.5 -40.5t-30.5 -115.5h-275z" />
<glyph unicode="&#xa1;" horiz-adv-x="655" d="M143 -410l33 1010h303l33 -1010h-369zM166 745v308h323v-308h-323z" />
<glyph unicode="&#xa2;" horiz-adv-x="1136" d="M78 614q0 177 106.5 317.5t296.5 186.5v170h234v-155q61 -8 118.5 -27t96 -41t69 -43t44.5 -35l14 -14l-160 -254l-11.5 11.5t-31 25.5t-48 32t-60.5 25.5t-70 11.5q-120 0 -183 -63t-63 -144q0 -87 63 -151t183 -64q34 0 69.5 11t61.5 26.5t47 31.5t32 27l11 11 l160 -254q-5 -5 -15 -14.5t-43.5 -34t-70.5 -45t-95 -40t-118 -26.5v-157h-234v172q-190 44 -296.5 184t-106.5 319z" />
<glyph unicode="&#xa3;" horiz-adv-x="1284" d="M100 0v297h113v176h-88v221h88v86q0 128 69.5 230t188 157.5t262.5 55.5q68 0 134 -12.5t112.5 -30.5t83 -36.5t54.5 -31.5l18 -12l-150 -258q-14 8 -37.5 19.5t-87.5 30.5t-117 19q-68 0 -120 -36.5t-52 -94.5v-86h369v-221h-369v-176h592v-297h-1063z" />
<glyph unicode="&#xa5;" horiz-adv-x="1380" d="M78 1198h407l109 -242q20 -44 42 -100.5t34 -90.5l12 -34h4q43 125 88 225l109 242h407l-231 -403h151v-197h-264l-69 -121h333v-196h-348v-281h-358v281h-330v196h315l-69 121h-246v197h133z" />
<glyph unicode="&#xa7;" horiz-adv-x="1075" d="M61 31l142 235q5 -5 14 -12.5t38.5 -26.5t60 -34t76.5 -27t91 -12q90 0 145.5 45t55.5 147q0 64 -27 158l-139 491h268l152 -559q20 -76 20 -153q0 -182 -122.5 -296t-350.5 -114q-76 0 -148 16.5t-119.5 39.5t-84.5 46t-55 39zM109 1079q0 182 122.5 296t350.5 114 q76 0 148 -16.5t119.5 -39.5t84.5 -46t54 -39l18 -17l-152 -221q-4 4 -12.5 10.5t-36 23t-57 29t-74 23t-88.5 10.5q-94 0 -147.5 -38t-53.5 -132q0 -58 21 -137l147 -532h-268l-156 559q-20 76 -20 153z" />
<glyph unicode="&#xa8;" horiz-adv-x="993" d="M154 1579v287h258v-287h-258zM582 1579v287h258v-287h-258z" />
<glyph unicode="&#xa9;" horiz-adv-x="1638" d="M80 733q0 154 58 293.5t156.5 240.5t234.5 160.5t286 59.5q153 0 290.5 -59.5t237 -160.5t158 -240.5t58.5 -293.5t-58.5 -294.5t-158 -242t-237.5 -161.5t-290 -60q-120 0 -232 38.5t-202.5 108.5t-158.5 163t-105 209t-37 239zM311 733q0 -150 66 -276t182 -198.5 t256 -72.5q143 0 261 72.5t185.5 198t67.5 276.5q0 150 -67.5 274.5t-185.5 196.5t-261 72q-140 0 -256 -72t-182 -197t-66 -274zM467 727q0 161 104.5 272t247.5 111q74 0 136 -24.5t96.5 -59t58.5 -69t32 -59.5l9 -24l-205 -79q-1 4 -3.5 11t-12.5 24t-22 30t-34 24 t-47 11q-48 0 -84 -47.5t-36 -120.5q0 -81 33 -124.5t87 -43.5q40 0 69.5 25t39.5 50l10 25l205 -79q-3 -10 -9 -25.5t-31.5 -56.5t-59.5 -72t-96 -56.5t-136 -25.5q-143 0 -247.5 111t-104.5 272z" />
<glyph unicode="&#xaa;" horiz-adv-x="845" d="M104 993q0 44 16 80t39.5 58.5t59.5 39.5t67.5 25.5t71.5 13.5t64.5 6t52.5 1h10v16q0 74 -96 74q-35 0 -76 -14t-65 -28l-23 -14l-78 154q4 3 12 8.5t35 19.5t57.5 24.5t79 19t99.5 8.5q144 0 220.5 -74t76.5 -203v-409h-221v80h-4q-2 -4 -6 -10.5t-19.5 -22.5 t-34.5 -28.5t-52 -23t-71 -10.5q-84 0 -149.5 58.5t-65.5 150.5zM111 549v174h624v-174h-624zM344 1008q0 -41 47 -41q36 0 64 28t28 64v10h-20q-119 0 -119 -61z" />
<glyph unicode="&#xab;" horiz-adv-x="1316" d="M57 578l336 421h324l-336 -421l336 -420h-324zM590 578l336 421h323l-336 -421l336 -420h-323z" />
<glyph unicode="&#xac;" horiz-adv-x="1232" d="M74 690v266h1036v-686h-276v420h-760z" />
<glyph unicode="&#xad;" horiz-adv-x="880" d="M119 434v307h643v-307h-643z" />
<glyph unicode="&#xae;" horiz-adv-x="1638" d="M80 733q0 154 58 293.5t156.5 240.5t234.5 160.5t286 59.5q153 0 290.5 -59.5t237 -160.5t158 -240.5t58.5 -293.5t-58.5 -294.5t-158 -242t-237.5 -161.5t-290 -60q-120 0 -232 38.5t-202.5 108.5t-158.5 163t-105 209t-37 239zM311 733q0 -150 66 -276t182 -198.5 t256 -72.5q143 0 261 72.5t185.5 198t67.5 276.5q0 150 -67.5 274.5t-185.5 196.5t-261 72q-140 0 -256 -72t-182 -197t-66 -274zM549 383v711h334q115 0 182.5 -64t67.5 -172q0 -76 -40.5 -123.5t-78.5 -58.5v-4q8 -6 26 -41l129 -248h-241l-101 242h-57v-242h-221z M770 772h55q40 0 61 22.5t21 63.5q0 84 -78 84h-59v-170z" />
<glyph unicode="&#xaf;" horiz-adv-x="993" d="M215 1602v229h563v-229h-563z" />
<glyph unicode="&#xb0;" horiz-adv-x="856" d="M57 1141q0 146 108.5 250t262.5 104q153 0 262 -104.5t109 -249.5q0 -147 -108.5 -250t-262.5 -103q-155 0 -263 102.5t-108 250.5zM315 1143q0 -45 33.5 -77t79.5 -32t79.5 32t33.5 77q0 43 -33.5 74.5t-79.5 31.5t-79.5 -31.5t-33.5 -74.5z" />
<glyph unicode="&#xb1;" horiz-adv-x="1282" d="M82 455v266h420v457h278v-457h420v-266h-420v-455h-278v455h-420zM102 -143h1078v-267h-1078v267z" />
<glyph unicode="&#xb2;" horiz-adv-x="831" d="M80 967q0 75 22.5 137t58.5 103t79.5 74.5t86.5 58t79 46.5t58.5 47t22.5 52q0 33 -27 51t-65 18q-36 0 -72 -23t-55 -46l-18 -23l-170 146q4 7 12.5 19.5t38.5 44t65.5 55.5t94 43.5t123.5 19.5q61 0 118.5 -17.5t106.5 -51.5t79 -92t30 -132q0 -67 -26.5 -123t-67 -91 t-88.5 -65.5t-90 -49.5t-72 -40.5t-35 -40.5h391v-221h-670q-10 58 -10 101z" />
<glyph unicode="&#xb3;" horiz-adv-x="831" d="M63 985l125 184q3 -4 8.5 -9.5t23.5 -21t38.5 -27t52 -21t64.5 -9.5q51 0 80.5 24t29.5 62q0 36 -36 55t-91 19h-75l-50 117l127 141q6 8 18.5 19.5t21.5 19.5l10 8v4q-43 -4 -70 -4h-225v223h602v-161l-170 -187q100 -25 149 -93t49 -165q0 -128 -94.5 -222.5 t-259.5 -94.5q-62 0 -118.5 14.5t-93 35t-64 40.5t-39.5 34z" />
<glyph unicode="&#xb4;" horiz-adv-x="991" d="M238 1559l165 307h351l-242 -307h-274z" />
<glyph unicode="&#xb6;" horiz-adv-x="1339" d="M59 981q0 204 139.5 343.5t338.5 139.5h731v-307h-486v-1259h-245v596q-130 0 -240 64t-174 176t-64 247zM909 -102v1157h246v-1157h-246z" />
<glyph unicode="&#xb7;" horiz-adv-x="598" d="M137 436v336h324v-336h-324z" />
<glyph unicode="&#xb8;" horiz-adv-x="991" d="M303 -233q47 -21 92 -21q78 0 78 47q0 43 -84 43l-53 -4l72 227l147 -34v-15l-20 -84q67 -7 110 -47t43 -117q0 -101 -69 -146.5t-170 -45.5q-35 0 -71.5 4.5t-55.5 9.5l-19 4v179z" />
<glyph unicode="&#xb9;" horiz-adv-x="831" d="M92 1532l254 237h221v-682h185v-221h-625v221h182v293q0 17 1.5 33.5t3.5 24.5l1 8h-4q-10 -21 -22 -31l-49 -45z" />
<glyph unicode="&#xba;" horiz-adv-x="931" d="M92 1137q0 154 107.5 251t263.5 97q160 0 268.5 -97t108.5 -251t-108.5 -251.5t-266.5 -97.5q-157 0 -265 97.5t-108 251.5zM119 549v174h692v-174h-692zM336 1137q0 -63 37.5 -100.5t91.5 -37.5t91.5 37.5t37.5 100.5q0 62 -37.5 100.5t-91.5 38.5t-91.5 -38.5 t-37.5 -100.5z" />
<glyph unicode="&#xbb;" horiz-adv-x="1316" d="M68 158l335 420l-335 421h323l336 -421l-336 -420h-323zM600 158l336 420l-336 421h324l336 -421l-336 -420h-324z" />
<glyph unicode="&#xbc;" horiz-adv-x="2062" d="M80 1227l254 237h221v-682h184v-221h-624v221h182v293q0 17 1.5 33.5t3.5 24.5l1 8h-4q-11 -21 -23 -31l-49 -45zM569 0l688 1464h244l-688 -1464h-244zM1245 178v172l350 553h308v-506h108v-219h-108v-178h-254v178h-404zM1489 397h160v185q0 23 2 48.5t4 39.5l2 14h-4 q-18 -55 -43 -94l-121 -189v-4z" />
<glyph unicode="&#xbd;" horiz-adv-x="2084" d="M68 1227l254 237h221v-682h184v-221h-625v221h183v293q0 17 1.5 33.5t3.5 24.5l1 8h-4q-11 -21 -23 -31l-49 -45zM565 0l688 1464h244l-688 -1464h-244zM1298 100q0 75 22.5 137t58.5 103t79.5 74.5t87 58t79.5 46.5t58.5 47t22.5 52q0 33 -27 51.5t-65 18.5 q-22 0 -45.5 -9.5t-40.5 -23t-31 -27t-21 -22.5l-8 -10l-170 145q4 7 12.5 19.5t38.5 44t65.5 55.5t94 44t123.5 20q61 0 118.5 -17.5t106.5 -51.5t79 -92t30 -132q0 -67 -26.5 -123t-67 -91t-88.5 -65.5t-90 -49.5t-72 -40.5t-35 -40.5h391v-221h-669q-11 64 -11 100z" />
<glyph unicode="&#xbe;" horiz-adv-x="2076" d="M53 680l125 184q3 -4 8.5 -9.5t23.5 -21t38.5 -27t52 -21t64.5 -9.5q51 0 80.5 24t29.5 62q0 36 -36 55t-91 19h-76l-49 117l127 141q6 8 18.5 20t21.5 20l9 7v4q-42 -4 -69 -4h-226v223h603v-161l-170 -187q100 -25 149 -93t49 -165q0 -128 -94.5 -222.5t-259.5 -94.5 q-62 0 -118.5 14.5t-93 34.5t-64 40.5t-39.5 35.5zM559 0l688 1464h244l-688 -1464h-244zM1235 178v172l350 553h307v-506h109v-219h-109v-178h-254v178h-403zM1479 397h159v185q0 23 2 48.5t4 39.5l3 14h-5q-18 -55 -43 -94l-120 -189v-4z" />
<glyph unicode="&#xbf;" horiz-adv-x="958" d="M27 -29q0 68 19.5 127t50 101t68 79t75 67.5t68 59.5t50 63t19.5 71v63h340v-92q0 -65 -24 -121t-59.5 -93t-77.5 -74t-77.5 -66t-59.5 -66.5t-24 -77.5q0 -52 43 -86.5t103 -34.5q44 0 92.5 22.5t74.5 44.5l27 22l197 -240q-6 -7 -18 -18.5t-53.5 -40.5t-87.5 -51.5 t-119 -41t-150 -18.5q-70 0 -137.5 16t-129 49.5t-108.5 80t-74.5 112.5t-27.5 143zM385 748v307h324v-307h-324z" />
<glyph unicode="&#xc0;" horiz-adv-x="1355" d="M-8 0l497 1464h377l498 -1464h-369l-90 307h-456l-89 -307h-368zM309 1866h350l166 -307h-274zM532 594h289l-82 285q-12 41 -27 103.5t-24 105.5l-8 42h-4q-33 -159 -60 -251z" />
<glyph unicode="&#xc1;" horiz-adv-x="1355" d="M-8 0l497 1464h377l498 -1464h-369l-90 307h-456l-89 -307h-368zM530 1559l166 307h351l-242 -307h-275zM532 594h289l-82 285q-12 41 -27 103.5t-24 105.5l-8 42h-4q-33 -159 -60 -251z" />
<glyph unicode="&#xc2;" horiz-adv-x="1355" d="M-8 0l497 1464h377l498 -1464h-369l-90 307h-456l-89 -307h-368zM303 1559l203 307h344l203 -307h-277l-96 167h-4l-96 -167h-277zM532 594h289l-82 285q-12 41 -27 103.5t-24 105.5l-8 42h-4q-33 -159 -60 -251z" />
<glyph unicode="&#xc3;" horiz-adv-x="1355" d="M-8 0l497 1464h377l498 -1464h-369l-90 307h-456l-89 -307h-368zM266 1559q0 313 262 313q38 0 71.5 -12.5t57 -31t44 -36.5t42.5 -30.5t43 -12.5q76 0 76 117h230q0 -314 -263 -314q-38 0 -71.5 12.5t-57 31t-44 36.5t-42.5 30.5t-43 12.5q-75 0 -75 -116h-230zM532 594 h289l-82 285q-12 41 -27 103.5t-24 105.5l-8 42h-4q-33 -159 -60 -251z" />
<glyph unicode="&#xc4;" horiz-adv-x="1355" d="M-8 0l497 1464h377l498 -1464h-369l-90 307h-456l-89 -307h-368zM336 1579v287h258v-287h-258zM532 594h289l-82 285q-12 41 -27 103.5t-24 105.5l-8 42h-4q-33 -159 -60 -251zM764 1579v287h258v-287h-258z" />
<glyph unicode="&#xc5;" horiz-adv-x="1355" d="M-8 0l497 1464h377l498 -1464h-369l-90 307h-456l-89 -307h-368zM455 1704q0 85 66.5 130.5t156.5 45.5t157.5 -45.5t67.5 -130.5q0 -57 -34.5 -98t-83.5 -58.5t-107 -17.5q-91 0 -157 44.5t-66 129.5zM532 594h289l-82 285q-12 41 -27 103.5t-24 105.5l-8 42h-4 q-33 -159 -60 -251zM608 1704q0 -32 19 -52t51 -20t52 20t20 52q0 34 -20 54t-52 20q-31 0 -50.5 -20.5t-19.5 -53.5z" />
<glyph unicode="&#xc6;" horiz-adv-x="1955" d="M-20 0l612 1464h1249v-307h-559v-266h447v-307h-447v-277h586v-307h-944v590h-344l-228 -590h-372zM690 877h234v280h-125z" />
<glyph unicode="&#xc7;" horiz-adv-x="1478" d="M76 735q0 157 58.5 297t160 240t244.5 158.5t305 58.5q101 0 195 -21.5t155.5 -51.5t108.5 -60.5t69 -51.5l21 -22l-166 -270q-7 6 -19 16t-51.5 36t-80 45.5t-100 35.5t-116.5 16q-102 0 -183 -35.5t-130 -95t-75 -133t-26 -154.5q0 -83 27.5 -160.5t78 -140.5 t130.5 -101t178 -38q62 0 125 18.5t108 45t82 53t55 44.5l19 19l185 -262q-8 -9 -23 -24.5t-66.5 -55t-109.5 -71t-150.5 -59.5t-189.5 -34l-12 -51q67 -7 110 -47t43 -117q0 -101 -69 -146.5t-170 -45.5q-35 0 -71.5 4.5t-55.5 9.5l-19 4v179q47 -21 92 -21q78 0 78 47 q0 43 -84 43l-53 -4l47 150q-296 37 -475.5 245t-179.5 508z" />
<glyph unicode="&#xc8;" horiz-adv-x="1204" d="M172 0v1464h918v-307h-560v-266h447v-307h-447v-277h588v-307h-946zM279 1866h350l166 -307h-275z" />
<glyph unicode="&#xc9;" horiz-adv-x="1204" d="M172 0v1464h918v-307h-560v-266h447v-307h-447v-277h588v-307h-946zM500 1559l166 307h350l-242 -307h-274z" />
<glyph unicode="&#xca;" horiz-adv-x="1204" d="M172 0v1464h918v-307h-560v-266h447v-307h-447v-277h588v-307h-946zM272 1559l203 307h344l203 -307h-277l-96 167h-4l-96 -167h-277z" />
<glyph unicode="&#xcb;" horiz-adv-x="1204" d="M172 0v1464h918v-307h-560v-266h447v-307h-447v-277h588v-307h-946zM305 1579v287h258v-287h-258zM733 1579v287h258v-287h-258z" />
<glyph unicode="&#xcc;" horiz-adv-x="702" d="M-16 1866h350l166 -307h-275zM172 0v1464h358v-1464h-358z" />
<glyph unicode="&#xcd;" horiz-adv-x="702" d="M172 0v1464h358v-1464h-358zM205 1559l166 307h350l-242 -307h-274z" />
<glyph unicode="&#xce;" horiz-adv-x="702" d="M-23 1559l203 307h344l203 -307h-276l-97 167h-4l-96 -167h-277zM172 0v1464h358v-1464h-358z" />
<glyph unicode="&#xcf;" horiz-adv-x="702" d="M10 1579v287h258v-287h-258zM172 0v1464h358v-1464h-358zM438 1579v287h258v-287h-258z" />
<glyph unicode="&#xd0;" horiz-adv-x="1570" d="M98 582v286h117v596h520q349 0 552.5 -193t203.5 -536t-204 -539t-552 -196h-520v582h-117zM573 307h148q189 0 294 110t105 318q0 205 -106.5 313.5t-292.5 108.5h-148v-289h213v-286h-213v-275z" />
<glyph unicode="&#xd1;" horiz-adv-x="1581" d="M172 0v1464h363l405 -684q25 -43 56 -105.5t49 -103.5l18 -41h4q-16 158 -16 250v684h358v-1464h-360l-408 682q-25 43 -56 105.5t-49 103.5l-18 41h-4q16 -158 16 -250v-682h-358zM379 1559q0 313 262 313q38 0 71.5 -12.5t57 -31t44 -36.5t42.5 -30.5t43 -12.5 q76 0 76 117h229q0 -314 -262 -314q-38 0 -71.5 12.5t-57 31t-44 36.5t-42.5 30.5t-43 12.5q-76 0 -76 -116h-229z" />
<glyph unicode="&#xd2;" horiz-adv-x="1675" d="M72 741q0 155 58 293.5t158.5 238.5t243.5 158t306 58t306 -58t243.5 -158t158.5 -238.5t58 -293.5q0 -213 -98.5 -388t-274.5 -276.5t-393 -101.5t-393 101.5t-274.5 276.5t-98.5 388zM442 741q0 -186 115.5 -312t280.5 -126t280 126t115 312q0 179 -115 299.5 t-280 120.5q-166 0 -281 -120.5t-115 -299.5zM469 1866h350l166 -307h-274z" />
<glyph unicode="&#xd3;" horiz-adv-x="1675" d="M72 741q0 155 58 293.5t158.5 238.5t243.5 158t306 58t306 -58t243.5 -158t158.5 -238.5t58 -293.5q0 -213 -98.5 -388t-274.5 -276.5t-393 -101.5t-393 101.5t-274.5 276.5t-98.5 388zM442 741q0 -186 115.5 -312t280.5 -126t280 126t115 312q0 179 -115 299.5 t-280 120.5q-166 0 -281 -120.5t-115 -299.5zM690 1559l166 307h350l-241 -307h-275z" />
<glyph unicode="&#xd4;" horiz-adv-x="1675" d="M72 741q0 155 58 293.5t158.5 238.5t243.5 158t306 58t306 -58t243.5 -158t158.5 -238.5t58 -293.5q0 -213 -98.5 -388t-274.5 -276.5t-393 -101.5t-393 101.5t-274.5 276.5t-98.5 388zM442 741q0 -186 115.5 -312t280.5 -126t280 126t115 312q0 179 -115 299.5 t-280 120.5q-166 0 -281 -120.5t-115 -299.5zM463 1559l203 307h344l202 -307h-276l-96 167h-4l-97 -167h-276z" />
<glyph unicode="&#xd5;" horiz-adv-x="1675" d="M72 741q0 155 58 293.5t158.5 238.5t243.5 158t306 58t306 -58t243.5 -158t158.5 -238.5t58 -293.5q0 -213 -98.5 -388t-274.5 -276.5t-393 -101.5t-393 101.5t-274.5 276.5t-98.5 388zM426 1559q0 313 262 313q38 0 71.5 -12.5t57 -31t44 -36.5t42.5 -30.5t43 -12.5 q76 0 76 117h229q0 -314 -262 -314q-38 0 -71.5 12.5t-57 31t-44 36.5t-42.5 30.5t-43 12.5q-76 0 -76 -116h-229zM442 741q0 -186 115.5 -312t280.5 -126t280 126t115 312q0 179 -115 299.5t-280 120.5q-166 0 -281 -120.5t-115 -299.5z" />
<glyph unicode="&#xd6;" horiz-adv-x="1675" d="M72 741q0 155 58 293.5t158.5 238.5t243.5 158t306 58t306 -58t243.5 -158t158.5 -238.5t58 -293.5q0 -213 -98.5 -388t-274.5 -276.5t-393 -101.5t-393 101.5t-274.5 276.5t-98.5 388zM442 741q0 -186 115.5 -312t280.5 -126t280 126t115 312q0 179 -115 299.5 t-280 120.5q-166 0 -281 -120.5t-115 -299.5zM496 1579v287h258v-287h-258zM924 1579v287h258v-287h-258z" />
<glyph unicode="&#xd7;" horiz-adv-x="1275" d="M82 188l373 400l-373 401l188 189l367 -394l369 394l188 -189l-375 -401l375 -400l-188 -188l-369 393l-367 -393z" />
<glyph unicode="&#xd8;" horiz-adv-x="1679" d="M74 741q0 155 58 293.5t158.5 238.5t243.5 158t306 58q199 0 360 -82l84 115l143 -97l-81 -112q123 -104 191.5 -252.5t68.5 -319.5q0 -213 -98.5 -388t-274.5 -276.5t-393 -101.5q-211 0 -389 99l-95 -131l-143 98l98 135q-114 105 -175.5 250.5t-61.5 314.5zM444 741 q0 -157 80 -270l475 655q-75 35 -159 35q-166 0 -281 -119.5t-115 -300.5zM651 352q87 -49 189 -49q166 0 280.5 124.5t114.5 313.5q0 165 -98 281z" />
<glyph unicode="&#xd9;" horiz-adv-x="1527" d="M152 539v925h358v-925q0 -114 68 -175t186 -61t186 61t68 175v925h358v-925q0 -164 -75 -292t-214 -200t-321 -72q-277 0 -445.5 157t-168.5 407zM395 1866h350l166 -307h-274z" />
<glyph unicode="&#xda;" horiz-adv-x="1527" d="M152 539v925h358v-925q0 -114 68 -175t186 -61t186 61t68 175v925h358v-925q0 -164 -75 -292t-214 -200t-321 -72q-277 0 -445.5 157t-168.5 407zM616 1559l166 307h351l-242 -307h-275z" />
<glyph unicode="&#xdb;" horiz-adv-x="1527" d="M152 539v925h358v-925q0 -114 68 -175t186 -61t186 61t68 175v925h358v-925q0 -164 -75 -292t-214 -200t-321 -72q-277 0 -445.5 157t-168.5 407zM389 1559l203 307h344l203 -307h-277l-96 167h-4l-96 -167h-277z" />
<glyph unicode="&#xdc;" horiz-adv-x="1527" d="M152 539v925h358v-925q0 -114 68 -175t186 -61t186 61t68 175v925h358v-925q0 -164 -75 -292t-214 -200t-321 -72q-277 0 -445.5 157t-168.5 407zM422 1579v287h258v-287h-258zM850 1579v287h258v-287h-258z" />
<glyph unicode="&#xdd;" horiz-adv-x="1308" d="M-8 1464h407l166 -352q21 -44 43 -97t34 -83l11 -31h4q41 111 88 211l164 352h408l-483 -864v-600h-359v600zM508 1559l166 307h350l-242 -307h-274z" />
<glyph unicode="&#xde;" horiz-adv-x="1300" d="M172 0v1464h358v-217h250q213 0 345 -141t132 -363q0 -223 -132.5 -365t-344.5 -142h-250v-236h-358zM530 543h177q91 0 138.5 54.5t47.5 145.5q0 90 -46.5 143.5t-133.5 53.5h-183v-397z" />
<glyph unicode="&#xdf;" horiz-adv-x="1306" d="M131 0v1079q0 98 44 177.5t117.5 129.5t166.5 76.5t194 26.5q93 0 178.5 -28.5t151 -79t104.5 -125.5t39 -162q0 -46 -15 -86.5t-37 -69t-43.5 -55t-36.5 -56.5t-15 -61q0 -23 20.5 -48t50.5 -47.5t66 -55.5t66 -68t50.5 -88.5t20.5 -114.5q0 -87 -32.5 -156.5t-88 -113 t-126 -66t-150.5 -22.5t-143.5 10.5t-86.5 21.5l-24 11v290q95 -38 195 -38q102 0 102 86q0 25 -28.5 54t-69 60t-81 67.5t-69 91.5t-28.5 118q0 51 23 100t50.5 81t50.5 71.5t23 74.5q0 48 -34 78.5t-93 30.5q-70 0 -114 -32.5t-44 -106.5v-1055h-354z" />
<glyph unicode="&#xe0;" horiz-adv-x="1146" d="M51 315q0 63 26 115.5t66.5 87t97.5 61t112.5 41t117.5 23.5t106.5 11.5t86.5 2.5h14v19q0 117 -156 117q-59 0 -130 -25.5t-112 -50.5l-42 -25l-123 250q7 6 21 15t59.5 32.5t94 41.5t121.5 33t146 15q223 0 349 -114.5t126 -315.5v-649h-323v63l4 66h-4 q-3 -6 -9.5 -16.5t-32 -37t-56.5 -47t-85 -37t-116 -16.5q-152 0 -255.5 93.5t-103.5 246.5zM205 1464h350l166 -307h-275zM408 334q0 -39 25 -63.5t75 -24.5q67 0 120.5 59.5t53.5 126.5v23h-33q-61 0 -113 -11.5t-90 -39.5t-38 -70z" />
<glyph unicode="&#xe1;" horiz-adv-x="1146" d="M51 315q0 63 26 115.5t66.5 87t97.5 61t112.5 41t117.5 23.5t106.5 11.5t86.5 2.5h14v19q0 117 -156 117q-59 0 -130 -25.5t-112 -50.5l-42 -25l-123 250q7 6 21 15t59.5 32.5t94 41.5t121.5 33t146 15q223 0 349 -114.5t126 -315.5v-649h-323v63l4 66h-4 q-3 -6 -9.5 -16.5t-32 -37t-56.5 -47t-85 -37t-116 -16.5q-152 0 -255.5 93.5t-103.5 246.5zM408 334q0 -39 25 -63.5t75 -24.5q67 0 120.5 59.5t53.5 126.5v23h-33q-61 0 -113 -11.5t-90 -39.5t-38 -70zM424 1157l166 307h350l-242 -307h-274z" />
<glyph unicode="&#xe2;" horiz-adv-x="1146" d="M51 315q0 63 26 115.5t66.5 87t97.5 61t112.5 41t117.5 23.5t106.5 11.5t86.5 2.5h14v19q0 117 -156 117q-59 0 -130 -25.5t-112 -50.5l-42 -25l-123 250q7 6 21 15t59.5 32.5t94 41.5t121.5 33t146 15q223 0 349 -114.5t126 -315.5v-649h-323v63l4 66h-4 q-3 -6 -9.5 -16.5t-32 -37t-56.5 -47t-85 -37t-116 -16.5q-152 0 -255.5 93.5t-103.5 246.5zM197 1157l202 307h344l203 -307h-276l-97 168h-4l-96 -168h-276zM408 334q0 -39 25 -63.5t75 -24.5q67 0 120.5 59.5t53.5 126.5v23h-33q-61 0 -113 -11.5t-90 -39.5t-38 -70z" />
<glyph unicode="&#xe3;" horiz-adv-x="1146" d="M51 315q0 63 26 115.5t66.5 87t97.5 61t112.5 41t117.5 23.5t106.5 11.5t86.5 2.5h14v19q0 117 -156 117q-59 0 -130 -25.5t-112 -50.5l-42 -25l-123 250q7 6 21 15t59.5 32.5t94 41.5t121.5 33t146 15q223 0 349 -114.5t126 -315.5v-649h-323v63l4 66h-4 q-3 -6 -9.5 -16.5t-32 -37t-56.5 -47t-85 -37t-116 -16.5q-152 0 -255.5 93.5t-103.5 246.5zM160 1157q0 313 262 313q46 0 87 -19t64.5 -42t52.5 -42t54 -19q76 0 76 116h229q0 -313 -262 -313q-38 0 -71.5 12.5t-57 30.5t-44 36.5t-42.5 31t-43 12.5q-76 0 -76 -117h-229z M408 334q0 -39 25 -63.5t75 -24.5q67 0 120.5 59.5t53.5 126.5v23h-33q-61 0 -113 -11.5t-90 -39.5t-38 -70z" />
<glyph unicode="&#xe4;" horiz-adv-x="1146" d="M51 315q0 63 26 115.5t66.5 87t97.5 61t112.5 41t117.5 23.5t106.5 11.5t86.5 2.5h14v19q0 117 -156 117q-59 0 -130 -25.5t-112 -50.5l-42 -25l-123 250q7 6 21 15t59.5 32.5t94 41.5t121.5 33t146 15q223 0 349 -114.5t126 -315.5v-649h-323v63l4 66h-4 q-3 -6 -9.5 -16.5t-32 -37t-56.5 -47t-85 -37t-116 -16.5q-152 0 -255.5 93.5t-103.5 246.5zM229 1178v286h258v-286h-258zM408 334q0 -39 25 -63.5t75 -24.5q67 0 120.5 59.5t53.5 126.5v23h-33q-61 0 -113 -11.5t-90 -39.5t-38 -70zM657 1178v286h258v-286h-258z" />
<glyph unicode="&#xe5;" horiz-adv-x="1146" d="M51 315q0 63 26 115.5t66.5 87t97.5 61t112.5 41t117.5 23.5t106.5 11.5t86.5 2.5h14v19q0 117 -156 117q-59 0 -130 -25.5t-112 -50.5l-42 -25l-123 250q7 6 21 15t59.5 32.5t94 41.5t121.5 33t146 15q223 0 349 -114.5t126 -315.5v-649h-323v63l4 66h-4 q-3 -6 -9.5 -16.5t-32 -37t-56.5 -47t-85 -37t-116 -16.5q-152 0 -255.5 93.5t-103.5 246.5zM348 1303q0 85 66.5 130.5t156.5 45.5q91 0 158.5 -45.5t67.5 -130.5q0 -57 -34.5 -98t-84.5 -59t-107 -18q-90 0 -156.5 45t-66.5 130zM408 334q0 -39 25 -63.5t75 -24.5 q67 0 120.5 59.5t53.5 126.5v23h-33q-61 0 -113 -11.5t-90 -39.5t-38 -70zM502 1303q0 -33 18.5 -52.5t50.5 -19.5t52 20t20 52q0 33 -19.5 53t-52.5 20q-31 0 -50 -20t-19 -53z" />
<glyph unicode="&#xe6;" horiz-adv-x="1751" d="M53 315q0 65 26 118.5t66.5 88.5t98 61.5t113 41t119 23.5t108 11.5t88.5 2.5h8v14q0 117 -156 117q-59 0 -130.5 -25.5t-113.5 -50.5l-42 -25l-123 248q7 6 20.5 15t58 33t92 42.5t120 33.5t145.5 15q118 0 197 -26t137 -78h4q126 104 315 104q222 0 355 -146t133 -374 l-9 -100h-665q19 -95 87 -142t159 -47q43 0 88.5 11t80 26t63 30.5t43.5 26.5l15 11l132 -246q-7 -6 -20 -16.5t-57.5 -37t-93.5 -47t-125 -37t-155 -16.5q-273 0 -424 185h-4q-13 -23 -39.5 -49.5t-73 -59t-121 -53.5t-161.5 -21q-152 0 -255.5 93t-103.5 245zM410 334 q0 -39 25.5 -63.5t78.5 -24.5q69 0 120.5 60t51.5 128v25h-35q-59 0 -112.5 -13t-91 -42.5t-37.5 -69.5zM1026 662h309q0 59 -37.5 105t-93.5 46q-139 0 -178 -151z" />
<glyph unicode="&#xe7;" horiz-adv-x="1132" d="M57 528q0 107 39.5 205.5t112 176t185.5 123.5t251 46q80 0 153 -16.5t119.5 -39.5t81.5 -46.5t51 -40.5l15 -16l-150 -238q-4 4 -12 11t-33 24.5t-52.5 31t-68 24.5t-81.5 11q-119 0 -185.5 -75t-66.5 -177q0 -103 69.5 -182.5t194.5 -79.5q65 0 137.5 32t112.5 64 l39 31l129 -247l-17 -17t-50.5 -39t-83 -50t-113.5 -42.5t-144 -24.5l-12 -51q67 -7 110 -47t43 -117q0 -101 -69 -146.5t-170 -45.5q-35 0 -71.5 4.5t-55.5 9.5l-19 4v179q48 -21 93 -21q77 0 77 47q0 43 -84 43l-53 -4l47 154q-146 23 -254 103t-161.5 193.5t-53.5 245.5z " />
<glyph unicode="&#xe8;" horiz-adv-x="1153" d="M55 528q0 155 65.5 279.5t191.5 198t292 73.5q228 0 358 -142t130 -368l-9 -110h-665q19 -92 87.5 -140.5t158.5 -48.5q68 0 140.5 27t111.5 53l38 27l131 -248q-7 -6 -20 -16.5t-57.5 -37t-93 -47t-124.5 -37t-155 -16.5q-137 0 -249 46.5t-183 124.5t-109.5 176.5 t-38.5 205.5zM229 1464h351l165 -307h-274zM426 662h309q0 62 -39 106.5t-100 44.5q-71 0 -113 -42.5t-57 -108.5z" />
<glyph unicode="&#xe9;" horiz-adv-x="1153" d="M55 528q0 155 65.5 279.5t191.5 198t292 73.5q228 0 358 -142t130 -368l-9 -110h-665q19 -92 87.5 -140.5t158.5 -48.5q68 0 140.5 27t111.5 53l38 27l131 -248q-7 -6 -20 -16.5t-57.5 -37t-93 -47t-124.5 -37t-155 -16.5q-137 0 -249 46.5t-183 124.5t-109.5 176.5 t-38.5 205.5zM426 662h309q0 62 -39 106.5t-100 44.5q-71 0 -113 -42.5t-57 -108.5zM449 1157l165 307h351l-242 -307h-274z" />
<glyph unicode="&#xea;" horiz-adv-x="1153" d="M55 528q0 155 65.5 279.5t191.5 198t292 73.5q228 0 358 -142t130 -368l-9 -110h-665q19 -92 87.5 -140.5t158.5 -48.5q68 0 140.5 27t111.5 53l38 27l131 -248q-7 -6 -20 -16.5t-57.5 -37t-93 -47t-124.5 -37t-155 -16.5q-137 0 -249 46.5t-183 124.5t-109.5 176.5 t-38.5 205.5zM221 1157l203 307h344l203 -307h-277l-96 168h-4l-96 -168h-277zM426 662h309q0 62 -39 106.5t-100 44.5q-71 0 -113 -42.5t-57 -108.5z" />
<glyph unicode="&#xeb;" horiz-adv-x="1153" d="M55 528q0 155 65.5 279.5t191.5 198t292 73.5q228 0 358 -142t130 -368l-9 -110h-665q19 -92 87.5 -140.5t158.5 -48.5q68 0 140.5 27t111.5 53l38 27l131 -248q-7 -6 -20 -16.5t-57.5 -37t-93 -47t-124.5 -37t-155 -16.5q-137 0 -249 46.5t-183 124.5t-109.5 176.5 t-38.5 205.5zM254 1178v286h258v-286h-258zM426 662h309q0 62 -39 106.5t-100 44.5q-71 0 -113 -42.5t-57 -108.5zM682 1178v286h258v-286h-258z" />
<glyph unicode="&#xec;" horiz-adv-x="616" d="M-61 1464h350l166 -307h-275zM131 0v1055h354v-1055h-354z" />
<glyph unicode="&#xed;" horiz-adv-x="616" d="M131 0v1055h354v-1055h-354zM160 1157l166 307h350l-242 -307h-274z" />
<glyph unicode="&#xee;" horiz-adv-x="616" d="M-68 1157l203 307h344l203 -307h-276l-97 168h-4l-96 -168h-277zM131 0v1055h354v-1055h-354z" />
<glyph unicode="&#xef;" horiz-adv-x="616" d="M-35 1178v286h258v-286h-258zM131 0v1055h354v-1055h-354zM393 1178v286h258v-286h-258z" />
<glyph unicode="&#xf0;" horiz-adv-x="1220" d="M61 494q0 90 33 172t92.5 145.5t150.5 101t198 37.5q36 0 71 -4.5t52 -9.5l18 -4h4q-52 77 -143 129l-394 -162v195l189 80q-104 45 -195 61l99 276q271 -57 475 -182l329 137v-194l-166 -70q261 -251 261 -622q0 -89 -17.5 -172t-59 -163t-103.5 -139t-158 -95t-215 -36 q-121 0 -221 43.5t-164.5 116.5t-100 165.5t-35.5 193.5zM418 483q0 -91 41.5 -152t128.5 -61q67 0 111.5 37.5t61.5 89.5t17 115q0 75 -45 121.5t-125 46.5q-92 0 -141 -56.5t-49 -140.5z" />
<glyph unicode="&#xf1;" d="M131 0v1055h340v-92l-4 -66h4q45 76 127.5 129t208.5 53q83 0 149.5 -20.5t119.5 -65t81.5 -123t28.5 -186.5v-684h-355v618q0 73 -28.5 106.5t-87.5 33.5q-80 0 -132.5 -40.5t-76.5 -111.5q-21 -62 -21 -139v-467h-354zM254 1157q0 313 262 313q46 0 87 -19t64.5 -42 t52.5 -42t54 -19q76 0 76 116h229q0 -313 -262 -313q-38 0 -71.5 12.5t-57 30.5t-44 36.5t-42.5 31t-43 12.5q-76 0 -76 -117h-229z" />
<glyph unicode="&#xf2;" d="M53 524q0 122 47 226.5t127 176t189.5 112t232.5 40.5q167 0 303 -68.5t216.5 -196.5t80.5 -290q0 -161 -80.5 -287.5t-216 -194t-301.5 -67.5t-301.5 67.5t-216 194t-80.5 287.5zM283 1464h350l166 -307h-275zM412 524q0 -115 69.5 -184.5t169.5 -69.5t170 69.5 t70 184.5q0 117 -70 188.5t-170 71.5t-169.5 -71.5t-69.5 -188.5z" />
<glyph unicode="&#xf3;" d="M53 524q0 122 47 226.5t127 176t189.5 112t232.5 40.5q167 0 303 -68.5t216.5 -196.5t80.5 -290q0 -161 -80.5 -287.5t-216 -194t-301.5 -67.5t-301.5 67.5t-216 194t-80.5 287.5zM412 524q0 -115 69.5 -184.5t169.5 -69.5t170 69.5t70 184.5q0 117 -70 188.5t-170 71.5 t-169.5 -71.5t-69.5 -188.5zM504 1157l166 307h350l-242 -307h-274z" />
<glyph unicode="&#xf4;" d="M53 524q0 122 47 226.5t127 176t189.5 112t232.5 40.5q167 0 303 -68.5t216.5 -196.5t80.5 -290q0 -161 -80.5 -287.5t-216 -194t-301.5 -67.5t-301.5 67.5t-216 194t-80.5 287.5zM276 1157l203 307h344l203 -307h-276l-97 168h-4l-96 -168h-277zM412 524 q0 -115 69.5 -184.5t169.5 -69.5t170 69.5t70 184.5q0 117 -70 188.5t-170 71.5t-169.5 -71.5t-69.5 -188.5z" />
<glyph unicode="&#xf5;" d="M53 524q0 122 47 226.5t127 176t189.5 112t232.5 40.5q167 0 303 -68.5t216.5 -196.5t80.5 -290q0 -161 -80.5 -287.5t-216 -194t-301.5 -67.5t-301.5 67.5t-216 194t-80.5 287.5zM240 1157q0 313 262 313q46 0 87 -19t64.5 -42t52.5 -42t54 -19q76 0 76 116h229 q0 -313 -262 -313q-38 0 -71.5 12.5t-57 30.5t-44 36.5t-42.5 31t-43 12.5q-76 0 -76 -117h-229zM412 524q0 -115 69.5 -184.5t169.5 -69.5t170 69.5t70 184.5q0 117 -70 188.5t-170 71.5t-169.5 -71.5t-69.5 -188.5z" />
<glyph unicode="&#xf6;" d="M53 524q0 122 47 226.5t127 176t189.5 112t232.5 40.5q167 0 303 -68.5t216.5 -196.5t80.5 -290q0 -161 -80.5 -287.5t-216 -194t-301.5 -67.5t-301.5 67.5t-216 194t-80.5 287.5zM309 1178v286h258v-286h-258zM412 524q0 -115 69.5 -184.5t169.5 -69.5t170 69.5 t70 184.5q0 117 -70 188.5t-170 71.5t-169.5 -71.5t-69.5 -188.5zM737 1178v286h258v-286h-258z" />
<glyph unicode="&#xf7;" horiz-adv-x="1458" d="M170 455v266h1118v-266h-1118zM580 0v276h299v-276h-299zM580 901v277h299v-277h-299z" />
<glyph unicode="&#xf8;" horiz-adv-x="1300" d="M51 524q0 122 47 226.5t127 176t189.5 112t232.5 40.5q144 0 268 -53l86 119l136 -92l-82 -113q91 -75 141.5 -181.5t50.5 -234.5q0 -161 -80.5 -287.5t-216 -194t-301.5 -67.5q-136 0 -254 48l-90 -125l-135 94l80 112q-94 74 -146.5 181.5t-52.5 238.5zM410 524 q0 -84 39 -145l282 391q-47 14 -82 14q-100 0 -169.5 -71.5t-69.5 -188.5zM580 279q34 -9 69 -9q100 0 170 69.5t70 184.5q0 74 -33 138z" />
<glyph unicode="&#xf9;" horiz-adv-x="1292" d="M117 371v684h354v-619q0 -139 113 -139q109 0 166 82.5t57 208.5v467h354v-1055h-340v92l4 66h-4q-42 -84 -132 -133.5t-197 -49.5q-82 0 -147.5 20.5t-118 65.5t-81 123.5t-28.5 186.5zM270 1464h351l165 -307h-274z" />
<glyph unicode="&#xfa;" horiz-adv-x="1292" d="M117 371v684h354v-619q0 -139 113 -139q109 0 166 82.5t57 208.5v467h354v-1055h-340v92l4 66h-4q-42 -84 -132 -133.5t-197 -49.5q-82 0 -147.5 20.5t-118 65.5t-81 123.5t-28.5 186.5zM492 1157l165 307h351l-242 -307h-274z" />
<glyph unicode="&#xfb;" horiz-adv-x="1292" d="M117 371v684h354v-619q0 -139 113 -139q109 0 166 82.5t57 208.5v467h354v-1055h-340v92l4 66h-4q-42 -84 -132 -133.5t-197 -49.5q-82 0 -147.5 20.5t-118 65.5t-81 123.5t-28.5 186.5zM264 1157l203 307h344l203 -307h-277l-96 168h-4l-96 -168h-277z" />
<glyph unicode="&#xfc;" horiz-adv-x="1292" d="M117 371v684h354v-619q0 -139 113 -139q109 0 166 82.5t57 208.5v467h354v-1055h-340v92l4 66h-4q-42 -84 -132 -133.5t-197 -49.5q-82 0 -147.5 20.5t-118 65.5t-81 123.5t-28.5 186.5zM297 1178v286h258v-286h-258zM725 1178v286h258v-286h-258z" />
<glyph unicode="&#xfd;" horiz-adv-x="1118" d="M-35 1055h402l155 -486q8 -25 18 -66t16 -69l5 -28h4q21 100 35 157l133 492h387l-432 -1168q-62 -165 -181 -241t-259 -76q-62 0 -123.5 18.5t-92.5 37.5l-30 18l113 260q57 -39 108 -39q126 0 170 106l21 49zM416 1155l166 307h350l-242 -307h-274z" />
<glyph unicode="&#xfe;" horiz-adv-x="1300" d="M131 -410v1874h354v-403l-4 -90h4q97 108 275 108q142 0 253 -73t170.5 -198t59.5 -280t-59.5 -280.5t-170.5 -199t-253 -73.5q-56 0 -104.5 10t-78.5 24.5t-52 29.5t-31 25l-9 10h-4q4 -37 4 -90v-394h-354zM475 526q0 -256 213 -256q90 0 144.5 75t54.5 183t-54.5 182 t-144.5 74q-213 0 -213 -258z" />
<glyph unicode="&#xff;" horiz-adv-x="1118" d="M-35 1055h402l155 -486q8 -25 18 -66t16 -69l5 -28h4q21 100 35 157l133 492h387l-432 -1168q-62 -165 -181 -241t-259 -76q-62 0 -123.5 18.5t-92.5 37.5l-30 18l113 260q57 -39 108 -39q126 0 170 106l21 49zM221 1176v286h258v-286h-258zM649 1176v286h258v-286h-258z " />
<glyph unicode="&#x100;" horiz-adv-x="1355" d="M-8 0l497 1464h377l498 -1464h-369l-90 307h-456l-89 -307h-368zM397 1602v229h564v-229h-564zM532 594h289l-82 285q-12 41 -27 103.5t-24 105.5l-8 42h-4q-33 -159 -60 -251z" />
<glyph unicode="&#x101;" horiz-adv-x="1146" d="M51 315q0 63 26 115.5t66.5 87t97.5 61t112.5 41t117.5 23.5t106.5 11.5t86.5 2.5h14v19q0 117 -156 117q-59 0 -130 -25.5t-112 -50.5l-42 -25l-123 250q7 6 21 15t59.5 32.5t94 41.5t121.5 33t146 15q223 0 349 -114.5t126 -315.5v-649h-323v63l4 66h-4 q-3 -6 -9.5 -16.5t-32 -37t-56.5 -47t-85 -37t-116 -16.5q-152 0 -255.5 93.5t-103.5 246.5zM291 1200v230h563v-230h-563zM408 334q0 -39 25 -63.5t75 -24.5q67 0 120.5 59.5t53.5 126.5v23h-33q-61 0 -113 -11.5t-90 -39.5t-38 -70z" />
<glyph unicode="&#x102;" horiz-adv-x="1355" d="M-8 0l497 1464h377l498 -1464h-369l-90 307h-456l-89 -307h-368zM322 1845v21h239v-23q0 -57 35.5 -88t81.5 -31t81.5 31t35.5 88v23h239v-21q0 -137 -103.5 -217t-252.5 -80t-252.5 80t-103.5 217zM532 594h289l-82 285q-12 41 -27 103.5t-24 105.5l-8 42h-4 q-33 -159 -60 -251z" />
<glyph unicode="&#x103;" horiz-adv-x="1146" d="M51 315q0 63 26 115.5t66.5 87t97.5 61t112.5 41t117.5 23.5t106.5 11.5t86.5 2.5h14v19q0 117 -156 117q-59 0 -130 -25.5t-112 -50.5l-42 -25l-123 250q7 6 21 15t59.5 32.5t94 41.5t121.5 33t146 15q223 0 349 -114.5t126 -315.5v-649h-323v63l4 66h-4 q-3 -6 -9.5 -16.5t-32 -37t-56.5 -47t-85 -37t-116 -16.5q-152 0 -255.5 93.5t-103.5 246.5zM215 1444v20h240v-22q0 -57 35 -88t81 -31t81.5 31t35.5 88v22h240v-20q0 -137 -103.5 -217t-253.5 -80q-149 0 -252.5 80t-103.5 217zM408 334q0 -39 25 -63.5t75 -24.5 q67 0 120.5 59.5t53.5 126.5v23h-33q-61 0 -113 -11.5t-90 -39.5t-38 -70z" />
<glyph unicode="&#x104;" horiz-adv-x="1355" d="M-8 0l497 1464h377l498 -1464q-88 -83 -88 -125q0 -20 19.5 -32.5t38.5 -15.5l20 -3l-86 -254q-6 1 -15.5 2t-38 7.5t-54.5 15t-57.5 25t-54 36.5t-38 50.5t-15.5 66.5q0 110 129 223v4h-129l-90 307h-456l-89 -307h-368zM532 594h289l-82 285q-12 41 -27 103.5 t-24 105.5l-8 42h-4q-33 -159 -60 -251z" />
<glyph unicode="&#x105;" horiz-adv-x="1146" d="M51 315q0 63 26 115.5t66.5 87t97.5 61t112.5 41t117.5 23.5t106.5 11.5t86.5 2.5h14v19q0 117 -156 117q-59 0 -130 -25.5t-112 -50.5l-42 -25l-123 250q7 6 21 15t59.5 32.5t94 41.5t121.5 33t146 15q223 0 349 -114.5t126 -315.5v-649q-88 -83 -88 -125 q0 -20 19.5 -32.5t38.5 -15.5l20 -3l-86 -254q-6 1 -15.5 2t-38 7.5t-54 15t-57 25t-54 36.5t-38 50.5t-15.5 66.5q0 110 129 223v4h-84v63l4 66h-4q-3 -6 -9.5 -16.5t-32 -37t-56.5 -47t-85 -37t-116 -16.5q-152 0 -255.5 93.5t-103.5 246.5zM408 334q0 -39 25 -63.5 t75 -24.5q67 0 120.5 59.5t53.5 126.5v23h-33q-61 0 -113 -11.5t-90 -39.5t-38 -70z" />
<glyph unicode="&#x106;" horiz-adv-x="1474" d="M72 735q0 157 58.5 297t160 240t244.5 158.5t305 58.5q101 0 195 -21.5t155.5 -51.5t108.5 -60.5t69 -51.5l21 -22l-166 -270q-7 6 -19 16t-51.5 36t-80 45.5t-100 35.5t-116.5 16q-102 0 -183 -35.5t-130 -95t-75 -133t-26 -154.5q0 -83 27.5 -160.5t78 -140.5 t130.5 -101t178 -38q62 0 125 18.5t108 45t82 53t55 44.5l19 19l185 -262q-8 -10 -24.5 -26.5t-73 -59t-119.5 -75t-164.5 -59t-208.5 -26.5q-225 0 -401 99.5t-271.5 272t-95.5 388.5zM672 1559l166 307h350l-242 -307h-274z" />
<glyph unicode="&#x107;" horiz-adv-x="1128" d="M53 528q0 107 39.5 205.5t112 176t185.5 123.5t251 46q80 0 153 -16.5t119.5 -39.5t81.5 -46.5t51 -40.5l15 -16l-150 -238q-4 4 -12 11t-33 24.5t-52.5 31t-68 24.5t-81.5 11q-119 0 -185.5 -75t-66.5 -177q0 -103 69.5 -182.5t194.5 -79.5q65 0 137.5 32t112.5 64 l39 31l129 -247q-6 -7 -18.5 -19t-56 -42t-92 -53t-126 -42t-160.5 -19q-137 0 -250 45.5t-186 122t-112.5 176t-39.5 209.5zM453 1157l165 307h351l-242 -307h-274z" />
<glyph unicode="&#x108;" horiz-adv-x="1474" d="M72 735q0 157 58.5 297t160 240t244.5 158.5t305 58.5q101 0 195 -21.5t155.5 -51.5t108.5 -60.5t69 -51.5l21 -22l-166 -270q-7 6 -19 16t-51.5 36t-80 45.5t-100 35.5t-116.5 16q-102 0 -183 -35.5t-130 -95t-75 -133t-26 -154.5q0 -83 27.5 -160.5t78 -140.5 t130.5 -101t178 -38q62 0 125 18.5t108 45t82 53t55 44.5l19 19l185 -262q-8 -10 -24.5 -26.5t-73 -59t-119.5 -75t-164.5 -59t-208.5 -26.5q-225 0 -401 99.5t-271.5 272t-95.5 388.5zM444 1559l203 307h344l203 -307h-276l-97 167h-4l-96 -167h-277z" />
<glyph unicode="&#x109;" horiz-adv-x="1128" d="M53 528q0 107 39.5 205.5t112 176t185.5 123.5t251 46q80 0 153 -16.5t119.5 -39.5t81.5 -46.5t51 -40.5l15 -16l-150 -238q-4 4 -12 11t-33 24.5t-52.5 31t-68 24.5t-81.5 11q-119 0 -185.5 -75t-66.5 -177q0 -103 69.5 -182.5t194.5 -79.5q65 0 137.5 32t112.5 64 l39 31l129 -247q-6 -7 -18.5 -19t-56 -42t-92 -53t-126 -42t-160.5 -19q-137 0 -250 45.5t-186 122t-112.5 176t-39.5 209.5zM225 1157l203 307h344l203 -307h-277l-96 168h-4l-96 -168h-277z" />
<glyph unicode="&#x10a;" horiz-adv-x="1474" d="M72 735q0 157 58.5 297t160 240t244.5 158.5t305 58.5q101 0 195 -21.5t155.5 -51.5t108.5 -60.5t69 -51.5l21 -22l-166 -270q-7 6 -19 16t-51.5 36t-80 45.5t-100 35.5t-116.5 16q-102 0 -183 -35.5t-130 -95t-75 -133t-26 -154.5q0 -83 27.5 -160.5t78 -140.5 t130.5 -101t178 -38q62 0 125 18.5t108 45t82 53t55 44.5l19 19l185 -262q-8 -10 -24.5 -26.5t-73 -59t-119.5 -75t-164.5 -59t-208.5 -26.5q-225 0 -401 99.5t-271.5 272t-95.5 388.5zM674 1595v271h293v-271h-293z" />
<glyph unicode="&#x10b;" horiz-adv-x="1128" d="M53 528q0 107 39.5 205.5t112 176t185.5 123.5t251 46q80 0 153 -16.5t119.5 -39.5t81.5 -46.5t51 -40.5l15 -16l-150 -238q-4 4 -12 11t-33 24.5t-52.5 31t-68 24.5t-81.5 11q-119 0 -185.5 -75t-66.5 -177q0 -103 69.5 -182.5t194.5 -79.5q65 0 137.5 32t112.5 64 l39 31l129 -247q-6 -7 -18.5 -19t-56 -42t-92 -53t-126 -42t-160.5 -19q-137 0 -250 45.5t-186 122t-112.5 176t-39.5 209.5zM455 1194v270h293v-270h-293z" />
<glyph unicode="&#x10c;" horiz-adv-x="1474" d="M72 735q0 157 58.5 297t160 240t244.5 158.5t305 58.5q101 0 195 -21.5t155.5 -51.5t108.5 -60.5t69 -51.5l21 -22l-166 -270q-7 6 -19 16t-51.5 36t-80 45.5t-100 35.5t-116.5 16q-102 0 -183 -35.5t-130 -95t-75 -133t-26 -154.5q0 -83 27.5 -160.5t78 -140.5 t130.5 -101t178 -38q62 0 125 18.5t108 45t82 53t55 44.5l19 19l185 -262q-8 -10 -24.5 -26.5t-73 -59t-119.5 -75t-164.5 -59t-208.5 -26.5q-225 0 -401 99.5t-271.5 272t-95.5 388.5zM444 1866h277l96 -168h4l97 168h276l-203 -307h-344z" />
<glyph unicode="&#x10d;" horiz-adv-x="1128" d="M53 528q0 107 39.5 205.5t112 176t185.5 123.5t251 46q80 0 153 -16.5t119.5 -39.5t81.5 -46.5t51 -40.5l15 -16l-150 -238q-4 4 -12 11t-33 24.5t-52.5 31t-68 24.5t-81.5 11q-119 0 -185.5 -75t-66.5 -177q0 -103 69.5 -182.5t194.5 -79.5q65 0 137.5 32t112.5 64 l39 31l129 -247q-6 -7 -18.5 -19t-56 -42t-92 -53t-126 -42t-160.5 -19q-137 0 -250 45.5t-186 122t-112.5 176t-39.5 209.5zM225 1464h277l96 -168h4l96 168h277l-203 -307h-344z" />
<glyph unicode="&#x10e;" horiz-adv-x="1527" d="M172 0v1464h520q349 0 552.5 -193t203.5 -536t-204 -539t-552 -196h-520zM346 1866h277l96 -168h4l96 168h277l-203 -307h-344zM530 307h148q189 0 294 110t105 318q0 205 -106.5 313.5t-292.5 108.5h-148v-850z" />
<glyph unicode="&#x10f;" horiz-adv-x="1366" d="M59 528q0 248 134.5 399.5t347.5 151.5q60 0 110 -8.5t79.5 -21t50 -25t28.5 -20.5l8 -9h4q-2 20 -2 47v422h355v-1464h-332v70l2 59h-4l-11 -16.5t-34 -37t-59 -47t-86 -37t-115 -16.5q-214 0 -345 153t-131 400zM416 528q0 -118 57 -189t150 -71q87 0 146.5 66 t59.5 194q0 103 -54 177.5t-152 74.5q-87 0 -147 -67.5t-60 -184.5zM1251 1135q41 118 41 190q0 68 -24 139h278q15 -65 15 -118q0 -95 -58 -211h-252z" />
<glyph unicode="&#x110;" horiz-adv-x="1570" d="M98 582v286h117v596h520q349 0 552.5 -193t203.5 -536t-204 -539t-552 -196h-520v582h-117zM573 307h148q189 0 294 110t105 318q0 205 -106.5 313.5t-292.5 108.5h-148v-289h213v-286h-213v-275z" />
<glyph unicode="&#x111;" horiz-adv-x="1304" d="M59 528q0 248 134.5 399.5t347.5 151.5q60 0 110 -8.5t79.5 -21t50 -25t28.5 -20.5l8 -9h4q-2 20 -2 47v93h-258v194h258v135h355v-135h135v-194h-135v-1135h-332v70l2 59h-4l-11 -16.5t-34 -37t-59 -47t-86 -37t-115 -16.5q-214 0 -345 153t-131 400zM416 528 q0 -118 57 -189t150 -71q87 0 146.5 66t59.5 194q0 103 -54 177.5t-152 74.5q-87 0 -147 -67.5t-60 -184.5z" />
<glyph unicode="&#x112;" horiz-adv-x="1204" d="M172 0v1464h918v-307h-560v-266h447v-307h-447v-277h588v-307h-946zM367 1602v229h563v-229h-563z" />
<glyph unicode="&#x113;" horiz-adv-x="1153" d="M55 528q0 155 65.5 279.5t191.5 198t292 73.5q228 0 358 -142t130 -368l-9 -110h-665q19 -92 87.5 -140.5t158.5 -48.5q68 0 140.5 27t111.5 53l38 27l131 -248q-7 -6 -20 -16.5t-57.5 -37t-93 -47t-124.5 -37t-155 -16.5q-137 0 -249 46.5t-183 124.5t-109.5 176.5 t-38.5 205.5zM315 1200v230h564v-230h-564zM426 662h309q0 62 -39 106.5t-100 44.5q-71 0 -113 -42.5t-57 -108.5z" />
<glyph unicode="&#x114;" horiz-adv-x="1204" d="M172 0v1464h918v-307h-560v-266h447v-307h-447v-277h588v-307h-946zM291 1845v21h239v-23q0 -57 35.5 -88t81.5 -31t81.5 31t35.5 88v23h240v-21q0 -137 -103.5 -217t-253.5 -80q-149 0 -252.5 80t-103.5 217z" />
<glyph unicode="&#x115;" horiz-adv-x="1153" d="M55 528q0 155 65.5 279.5t191.5 198t292 73.5q228 0 358 -142t130 -368l-9 -110h-665q19 -92 87.5 -140.5t158.5 -48.5q68 0 140.5 27t111.5 53l38 27l131 -248q-7 -6 -20 -16.5t-57.5 -37t-93 -47t-124.5 -37t-155 -16.5q-137 0 -249 46.5t-183 124.5t-109.5 176.5 t-38.5 205.5zM240 1444v20h239v-22q0 -57 35.5 -88t81.5 -31t81.5 31t35.5 88v22h239v-20q0 -137 -103.5 -217t-252.5 -80t-252.5 80t-103.5 217zM426 662h309q0 62 -39 106.5t-100 44.5q-71 0 -113 -42.5t-57 -108.5z" />
<glyph unicode="&#x116;" horiz-adv-x="1204" d="M172 0v1464h918v-307h-560v-266h447v-307h-447v-277h588v-307h-946zM502 1595v271h293v-271h-293z" />
<glyph unicode="&#x117;" horiz-adv-x="1153" d="M55 528q0 155 65.5 279.5t191.5 198t292 73.5q228 0 358 -142t130 -368l-9 -110h-665q19 -92 87.5 -140.5t158.5 -48.5q68 0 140.5 27t111.5 53l38 27l131 -248q-7 -6 -20 -16.5t-57.5 -37t-93 -47t-124.5 -37t-155 -16.5q-137 0 -249 46.5t-183 124.5t-109.5 176.5 t-38.5 205.5zM426 662h309q0 62 -39 106.5t-100 44.5q-71 0 -113 -42.5t-57 -108.5zM451 1194v270h292v-270h-292z" />
<glyph unicode="&#x118;" horiz-adv-x="1204" d="M172 0v1464h918v-307h-560v-266h447v-307h-447v-277h588v-307q-88 -83 -88 -125q0 -20 19.5 -32.5t38.5 -15.5l20 -3l-86 -254q-6 1 -15.5 2t-38 7.5t-54 15t-57 25t-54 36.5t-38 50.5t-15.5 66.5q0 110 135 223v4h-713z" />
<glyph unicode="&#x119;" horiz-adv-x="1157" d="M55 528q0 155 65.5 279.5t191.5 198t292 73.5q228 0 358 -142t130 -368l-9 -110h-665q19 -92 87.5 -140.5t158.5 -48.5q68 0 140.5 27t111.5 53l38 27l129 -246q-17 -18 -59.5 -51t-74.5 -59t-58.5 -66t-26.5 -80q0 -20 19.5 -32.5t38.5 -15.5l20 -3l-86 -254 q-6 1 -15.5 2t-38 7.5t-54 15t-57 25t-54 36.5t-38 50.5t-15.5 66.5q0 104 125 204v5q-47 -7 -74 -7q-137 0 -249 46.5t-183 124.5t-109.5 176.5t-38.5 205.5zM426 662h309q0 62 -39 106.5t-100 44.5q-71 0 -113 -42.5t-57 -108.5z" />
<glyph unicode="&#x11a;" horiz-adv-x="1204" d="M172 0v1464h918v-307h-560v-266h447v-307h-447v-277h588v-307h-946zM272 1866h277l96 -168h4l96 168h277l-203 -307h-344z" />
<glyph unicode="&#x11b;" horiz-adv-x="1153" d="M55 528q0 155 65.5 279.5t191.5 198t292 73.5q228 0 358 -142t130 -368l-9 -110h-665q19 -92 87.5 -140.5t158.5 -48.5q68 0 140.5 27t111.5 53l38 27l131 -248q-7 -6 -20 -16.5t-57.5 -37t-93 -47t-124.5 -37t-155 -16.5q-137 0 -249 46.5t-183 124.5t-109.5 176.5 t-38.5 205.5zM221 1464h277l96 -168h4l96 168h277l-203 -307h-344zM426 662h309q0 62 -39 106.5t-100 44.5q-71 0 -113 -42.5t-57 -108.5z" />
<glyph unicode="&#x11c;" horiz-adv-x="1576" d="M74 735q0 158 58 297.5t158.5 240t244 158.5t307.5 58q105 0 201.5 -20t159.5 -48.5t111 -57.5t70 -49l21 -20l-172 -268q-6 5 -17.5 14.5t-48 32.5t-76 41t-98 32.5t-116.5 14.5q-111 0 -196.5 -33.5t-136 -92t-75.5 -131t-25 -156.5q0 -102 33.5 -187t91 -140.5 t134 -86.5t161.5 -31q48 0 96.5 11t83 26.5t62 31.5t41.5 27l14 11v112h-207v305h525v-827h-299v41l2 61h-4q-6 -5 -17 -13.5t-48.5 -30.5t-79 -39t-107 -30.5t-133.5 -13.5q-141 0 -270.5 52.5t-229.5 147t-159.5 240.5t-59.5 320zM446 1559l203 307h344l203 -307h-276 l-97 167h-4l-96 -167h-277z" />
<glyph unicode="&#x11d;" horiz-adv-x="1288" d="M61 561q0 103 30 194.5t87 164.5t149 116t208 43q54 0 103.5 -10.5t81 -25.5t56 -30t34.5 -25l11 -11h6q-2 12 -2 24v54h332v-959q0 -112 -34.5 -202.5t-92 -149.5t-135.5 -99t-161 -57.5t-173 -17.5q-103 0 -211.5 26.5t-187.5 67.5l100 268q15 -8 41 -19t104 -29.5 t152 -18.5q108 0 176 47.5t68 155.5v34l2 39h-4q-91 -110 -264 -110q-115 0 -207.5 44.5t-150 119.5t-88 169t-30.5 197zM244 1157l202 307h345l202 -307h-276l-96 168h-5l-96 -168h-276zM418 573q0 -106 51.5 -176.5t151.5 -70.5q81 0 135.5 52.5t54.5 178.5 q0 67 -16.5 113.5t-47 70t-64.5 33.5t-77 10q-91 0 -139.5 -58.5t-48.5 -152.5z" />
<glyph unicode="&#x11e;" horiz-adv-x="1576" d="M74 735q0 158 58 297.5t158.5 240t244 158.5t307.5 58q105 0 201.5 -20t159.5 -48.5t111 -57.5t70 -49l21 -20l-172 -268q-6 5 -17.5 14.5t-48 32.5t-76 41t-98 32.5t-116.5 14.5q-111 0 -196.5 -33.5t-136 -92t-75.5 -131t-25 -156.5q0 -102 33.5 -187t91 -140.5 t134 -86.5t161.5 -31q48 0 96.5 11t83 26.5t62 31.5t41.5 27l14 11v112h-207v305h525v-827h-299v41l2 61h-4q-6 -5 -17 -13.5t-48.5 -30.5t-79 -39t-107 -30.5t-133.5 -13.5q-141 0 -270.5 52.5t-229.5 147t-159.5 240.5t-59.5 320zM465 1845v21h240v-23q0 -57 35 -88 t81 -31t81.5 31t35.5 88v23h240v-21q0 -137 -103.5 -217t-253.5 -80q-149 0 -252.5 80t-103.5 217z" />
<glyph unicode="&#x11f;" horiz-adv-x="1288" d="M61 561q0 103 30 194.5t87 164.5t149 116t208 43q54 0 103.5 -10.5t81 -25.5t56 -30t34.5 -25l11 -11h6q-2 12 -2 24v54h332v-959q0 -112 -34.5 -202.5t-92 -149.5t-135.5 -99t-161 -57.5t-173 -17.5q-103 0 -211.5 26.5t-187.5 67.5l100 268q15 -8 41 -19t104 -29.5 t152 -18.5q108 0 176 47.5t68 155.5v34l2 39h-4q-91 -110 -264 -110q-115 0 -207.5 44.5t-150 119.5t-88 169t-30.5 197zM262 1444v20h240v-22q0 -57 35 -88t81 -31t81.5 31t35.5 88v22h240v-20q0 -137 -103.5 -217t-253.5 -80q-149 0 -252.5 80t-103.5 217zM418 573 q0 -106 51.5 -176.5t151.5 -70.5q81 0 135.5 52.5t54.5 178.5q0 67 -16.5 113.5t-47 70t-64.5 33.5t-77 10q-91 0 -139.5 -58.5t-48.5 -152.5z" />
<glyph unicode="&#x120;" horiz-adv-x="1576" d="M74 735q0 158 58 297.5t158.5 240t244 158.5t307.5 58q105 0 201.5 -20t159.5 -48.5t111 -57.5t70 -49l21 -20l-172 -268q-6 5 -17.5 14.5t-48 32.5t-76 41t-98 32.5t-116.5 14.5q-111 0 -196.5 -33.5t-136 -92t-75.5 -131t-25 -156.5q0 -102 33.5 -187t91 -140.5 t134 -86.5t161.5 -31q48 0 96.5 11t83 26.5t62 31.5t41.5 27l14 11v112h-207v305h525v-827h-299v41l2 61h-4q-6 -5 -17 -13.5t-48.5 -30.5t-79 -39t-107 -30.5t-133.5 -13.5q-141 0 -270.5 52.5t-229.5 147t-159.5 240.5t-59.5 320zM676 1595v271h293v-271h-293z" />
<glyph unicode="&#x121;" horiz-adv-x="1288" d="M61 561q0 103 30 194.5t87 164.5t149 116t208 43q54 0 103.5 -10.5t81 -25.5t56 -30t34.5 -25l11 -11h6q-2 12 -2 24v54h332v-959q0 -112 -34.5 -202.5t-92 -149.5t-135.5 -99t-161 -57.5t-173 -17.5q-103 0 -211.5 26.5t-187.5 67.5l100 268q15 -8 41 -19t104 -29.5 t152 -18.5q108 0 176 47.5t68 155.5v34l2 39h-4q-91 -110 -264 -110q-115 0 -207.5 44.5t-150 119.5t-88 169t-30.5 197zM418 573q0 -106 51.5 -176.5t151.5 -70.5q81 0 135.5 52.5t54.5 178.5q0 67 -16.5 113.5t-47 70t-64.5 33.5t-77 10q-91 0 -139.5 -58.5t-48.5 -152.5z M473 1194v270h293v-270h-293z" />
<glyph unicode="&#x122;" horiz-adv-x="1576" d="M74 735q0 158 58 297.5t158.5 240t244 158.5t307.5 58q105 0 201.5 -20t159.5 -48.5t111 -57.5t70 -49l21 -20l-172 -268q-6 5 -17.5 14.5t-48 32.5t-76 41t-98 32.5t-116.5 14.5q-111 0 -196.5 -33.5t-136 -92t-75.5 -131t-25 -156.5q0 -102 33.5 -187t91 -140.5 t134 -86.5t161.5 -31q48 0 96.5 11t83 26.5t62 31.5t41.5 27l14 11v112h-207v305h525v-827h-299v41l2 61h-4q-6 -5 -17 -13.5t-48.5 -30.5t-79 -39t-107 -30.5t-133.5 -13.5q-141 0 -270.5 52.5t-229.5 147t-159.5 240.5t-59.5 320zM631 -430q41 118 41 190q0 66 -25 140 h279q14 -60 14 -119q0 -97 -57 -211h-252z" />
<glyph unicode="&#x123;" horiz-adv-x="1288" d="M61 561q0 103 30 194.5t87 164.5t149 116t208 43q54 0 103.5 -10.5t81 -25.5t56 -30t34.5 -25l11 -11h6q-2 12 -2 24v54h332v-959q0 -112 -34.5 -202.5t-92 -149.5t-135.5 -99t-161 -57.5t-173 -17.5q-103 0 -211.5 26.5t-187.5 67.5l100 268q15 -8 41 -19t104 -29.5 t152 -18.5q108 0 176 47.5t68 155.5v34l2 39h-4q-91 -110 -264 -110q-115 0 -207.5 44.5t-150 119.5t-88 169t-30.5 197zM418 573q0 -106 51.5 -176.5t151.5 -70.5q81 0 135.5 52.5t54.5 178.5q0 67 -16.5 113.5t-47 70t-64.5 33.5t-77 10q-91 0 -139.5 -58.5t-48.5 -152.5z M473 1262q0 92 55 202h252q-41 -115 -41 -182q0 -64 25 -135h-277q-14 57 -14 115z" />
<glyph unicode="&#x124;" horiz-adv-x="1593" d="M172 0v1464h358v-585h533v585h358v-1464h-358v573h-533v-573h-358zM422 1559l203 307h344l202 -307h-276l-96 167h-4l-97 -167h-276z" />
<glyph unicode="&#x125;" d="M-66 1559l203 307h344l203 -307h-276l-97 167h-4l-96 -167h-277zM131 0v1464h354v-463l-4 -90h4q44 78 131 123t191 45q83 0 149.5 -20.5t119.5 -65t81.5 -123t28.5 -186.5v-684h-355v618q0 73 -28.5 106.5t-87.5 33.5q-79 0 -133 -42t-78 -114q-19 -56 -19 -135v-467 h-354z" />
<glyph unicode="&#x126;" horiz-adv-x="1658" d="M80 1059v219h135v186h367v-186h495v186h367v-186h133v-219h-133v-1059h-367v573h-495v-573h-367v1059h-135zM582 879h495v180h-495v-180z" />
<glyph unicode="&#x127;" d="M12 1135v194h119v135h354v-135h275v-194h-275v-134l-4 -90h4q44 78 131 123t191 45q83 0 149.5 -20.5t119.5 -65t81.5 -123t28.5 -186.5v-684h-355v618q0 73 -28.5 106.5t-87.5 33.5q-79 0 -133 -42t-78 -114q-19 -56 -19 -135v-467h-354v1135h-119z" />
<glyph unicode="&#x128;" horiz-adv-x="702" d="M-59 1559q0 313 262 313q38 0 71.5 -12.5t57 -31t44 -36.5t42.5 -30.5t43 -12.5q76 0 76 117h229q0 -314 -262 -314q-38 0 -71.5 12.5t-57 31t-44 36.5t-42.5 30.5t-43 12.5q-76 0 -76 -116h-229zM172 0v1464h358v-1464h-358z" />
<glyph unicode="&#x129;" horiz-adv-x="616" d="M-104 1157q0 313 262 313q46 0 87 -19t64.5 -42t52.5 -42t54 -19q76 0 76 116h229q0 -313 -262 -313q-38 0 -71.5 12.5t-57 30.5t-44 36.5t-42.5 31t-43 12.5q-76 0 -76 -117h-229zM131 0v1055h354v-1055h-354z" />
<glyph unicode="&#x12a;" horiz-adv-x="702" d="M72 1602v229h563v-229h-563zM172 0v1464h358v-1464h-358z" />
<glyph unicode="&#x12b;" horiz-adv-x="616" d="M27 1200v230h563v-230h-563zM131 0v1055h354v-1055h-354z" />
<glyph unicode="&#x12c;" horiz-adv-x="702" d="M-4 1845v21h240v-23q0 -57 35 -88t81 -31t81.5 31t35.5 88v23h240v-21q0 -137 -103.5 -217t-253.5 -80q-149 0 -252.5 80t-103.5 217zM172 0v1464h358v-1464h-358z" />
<glyph unicode="&#x12d;" horiz-adv-x="616" d="M-49 1444v20h239v-22q0 -57 35.5 -88t81.5 -31t81.5 31t35.5 88v22h240v-20q0 -137 -103.5 -217t-253.5 -80q-149 0 -252.5 80t-103.5 217zM131 0v1055h354v-1055h-354z" />
<glyph unicode="&#x12e;" horiz-adv-x="702" d="M162 -227q0 110 135 223v4h-125v1464h358v-1464q-88 -83 -88 -125q0 -20 19.5 -32.5t38.5 -15.5l20 -3l-86 -254q-6 1 -15.5 2t-38 7.5t-54 15t-57 25t-54 36.5t-38 50.5t-15.5 66.5z" />
<glyph unicode="&#x12f;" horiz-adv-x="616" d="M117 -227q0 110 135 223v4h-121v1055h354v-1055q-88 -83 -88 -125q0 -20 19.5 -32.5t39.5 -15.5l19 -3l-86 -254q-6 1 -15.5 2t-38 7.5t-54 15t-57 25t-54 36.5t-38 50.5t-15.5 66.5zM135 1188v276h346v-276h-346z" />
<glyph unicode="&#x130;" horiz-adv-x="702" d="M172 0v1464h358v-1464h-358zM207 1595v271h293v-271h-293z" />
<glyph unicode="&#x131;" horiz-adv-x="616" d="M131 0v1055h354v-1055h-354z" />
<glyph unicode="&#x132;" horiz-adv-x="1425" d="M172 0v1464h358v-1464h-358zM670 -8v323q36 0 74 11.5t76 36.5t62.5 74.5t24.5 115.5v911h367v-915q0 -112 -25.5 -202t-71.5 -149.5t-103 -101t-128 -63.5t-137 -31.5t-139 -9.5z" />
<glyph unicode="&#x133;" horiz-adv-x="1232" d="M131 0v1055h354v-1055h-354zM135 1188v276h346v-276h-346zM512 -125q18 -2 45 -2q32 0 60.5 5t60.5 17.5t51 41.5t19 71v1047h354v-1082q0 -73 -19 -133.5t-50 -101t-75 -71t-87.5 -48t-94.5 -28t-90.5 -14t-79.5 -3.5q-25 0 -48.5 1.5t-34.5 2.5l-11 2v295zM752 1188 v276h346v-276h-346z" />
<glyph unicode="&#x134;" horiz-adv-x="1177" d="M43 451v106h358v-78q0 -79 29 -123q34 -53 107 -53q59 0 94 39.5t35 116.5v698h-394v307h752v-1013q0 -116 -42 -209.5t-112 -150t-157 -86.5t-181 -30t-180.5 30.5t-156 88t-111 150t-41.5 207.5zM264 1559l203 307h344l203 -307h-277l-96 167h-4l-96 -167h-277z" />
<glyph unicode="&#x135;" horiz-adv-x="616" d="M-104 -125q18 -2 45 -2q32 0 60 5t60 17.5t51 41.5t19 71v1047h354v-1082q0 -73 -19 -133.5t-50 -101t-74.5 -71t-87.5 -48t-94.5 -28t-90 -14t-79.5 -3.5q-25 0 -48.5 1.5t-34.5 2.5l-11 2v295zM-49 1157l203 307h311l203 -307h-260l-97 168h-4l-96 -168h-260z" />
<glyph unicode="&#x136;" horiz-adv-x="1417" d="M172 0v1464h358v-565h148l303 565h385l-395 -700v-4l418 -760h-402l-309 594h-148v-594h-358zM557 -430q41 118 41 190q0 66 -25 140h279q14 -60 14 -119q0 -97 -57 -211h-252z" />
<glyph unicode="&#x137;" horiz-adv-x="1226" d="M131 0v1464h354v-757h101l209 348h385l-310 -480v-4l353 -571h-404l-223 410h-111v-410h-354zM473 -430q41 118 41 190q0 66 -25 140h279q14 -60 14 -119q0 -97 -57 -211h-252z" />
<glyph unicode="&#x138;" horiz-adv-x="1228" d="M131 0v1055h354v-369h101l215 369h385l-316 -500v-4l340 -551h-409l-205 389h-111v-389h-354z" />
<glyph unicode="&#x139;" horiz-adv-x="1153" d="M172 0v1464h358v-1157h598v-307h-956zM205 1559l166 307h350l-242 -307h-274z" />
<glyph unicode="&#x13a;" horiz-adv-x="661" d="M117 389v1075h354v-1028q0 -77 19.5 -106t78.5 -29l43 2v-307q-49 -6 -106 -6q-45 0 -81.5 3.5t-77.5 14t-73 28t-62.5 48t-50.5 71.5t-32 100.5t-12 133.5zM147 1559l166 307h351l-242 -307h-275z" />
<glyph unicode="&#x13b;" horiz-adv-x="1153" d="M172 0v1464h358v-1157h598v-307h-956zM498 -430q41 118 41 190q0 66 -25 140h279q14 -60 14 -119q0 -97 -57 -211h-252z" />
<glyph unicode="&#x13c;" horiz-adv-x="661" d="M117 389v1075h354v-1028q0 -77 19.5 -106t78.5 -29l43 2v-307q-49 -6 -106 -6q-45 0 -81.5 3.5t-77.5 14t-73 28t-62.5 48t-50.5 71.5t-32 100.5t-12 133.5zM215 -430q41 118 41 190q0 66 -25 140h279q14 -60 14 -119q0 -97 -57 -211h-252z" />
<glyph unicode="&#x13d;" horiz-adv-x="1153" d="M172 0v1464h358v-1157h598v-307h-956zM657 1135q41 118 41 190q0 68 -24 139h278q15 -65 15 -118q0 -95 -58 -211h-252z" />
<glyph unicode="&#x13e;" horiz-adv-x="722" d="M117 389v1075h354v-1028q0 -77 19.5 -106t78.5 -29l43 2v-307q-49 -6 -106 -6q-45 0 -81.5 3.5t-77.5 14t-73 28t-62.5 48t-50.5 71.5t-32 100.5t-12 133.5zM551 1135q41 118 41 190q0 65 -25 139h279q14 -60 14 -118q0 -97 -57 -211h-252z" />
<glyph unicode="&#x13f;" horiz-adv-x="1153" d="M172 0v1464h358v-1157h598v-307h-956zM721 645v336h323v-336h-323z" />
<glyph unicode="&#x140;" horiz-adv-x="944" d="M117 389v1075h354v-1028q0 -77 19.5 -106t78.5 -29l43 2v-307q-49 -6 -106 -6q-45 0 -81.5 3.5t-77.5 14t-73 28t-62.5 48t-50.5 71.5t-32 100.5t-12 133.5zM639 645v336h324v-336h-324z" />
<glyph unicode="&#x141;" horiz-adv-x="1206" d="M119 358v340l106 62v704h359v-499l207 118v-340l-207 -118v-318h598v-307h-957v420z" />
<glyph unicode="&#x142;" horiz-adv-x="763" d="M82 399v340l102 60v665h355v-463l141 82v-340l-141 -81v-226q0 -77 19.5 -106t78.5 -29l43 2v-307q-50 -6 -107 -6q-45 0 -81.5 3.5t-77.5 14t-73 28t-62.5 48t-50.5 71.5t-32 100.5t-12 133.5v70z" />
<glyph unicode="&#x143;" horiz-adv-x="1581" d="M172 0v1464h363l405 -684q25 -43 56 -105.5t49 -103.5l18 -41h4q-16 158 -16 250v684h358v-1464h-360l-408 682q-25 43 -56 105.5t-49 103.5l-18 41h-4q16 -158 16 -250v-682h-358zM643 1559l166 307h350l-241 -307h-275z" />
<glyph unicode="&#x144;" d="M131 0v1055h340v-92l-4 -66h4q45 76 127.5 129t208.5 53q83 0 149.5 -20.5t119.5 -65t81.5 -123t28.5 -186.5v-684h-355v618q0 73 -28.5 106.5t-87.5 33.5q-80 0 -132.5 -40.5t-76.5 -111.5q-21 -62 -21 -139v-467h-354zM518 1157l166 307h350l-241 -307h-275z" />
<glyph unicode="&#x145;" horiz-adv-x="1581" d="M172 0v1464h363l405 -684q25 -43 56 -105.5t49 -103.5l18 -41h4q-16 158 -16 250v684h358v-1464h-360l-408 682q-25 43 -56 105.5t-49 103.5l-18 41h-4q16 -158 16 -250v-682h-358zM629 -430q41 118 41 190q0 66 -25 140h279q14 -60 14 -119q0 -97 -57 -211h-252z" />
<glyph unicode="&#x146;" d="M131 0v1055h340v-92l-4 -66h4q45 76 127.5 129t208.5 53q83 0 149.5 -20.5t119.5 -65t81.5 -123t28.5 -186.5v-684h-355v618q0 73 -28.5 106.5t-87.5 33.5q-80 0 -132.5 -40.5t-76.5 -111.5q-21 -62 -21 -139v-467h-354zM489 -430q41 118 41 190q0 69 -24 140h278 q15 -64 15 -119q0 -95 -58 -211h-252z" />
<glyph unicode="&#x147;" horiz-adv-x="1581" d="M172 0v1464h363l405 -684q25 -43 56 -105.5t49 -103.5l18 -41h4q-16 158 -16 250v684h358v-1464h-360l-408 682q-25 43 -56 105.5t-49 103.5l-18 41h-4q16 -158 16 -250v-682h-358zM416 1866h276l96 -168h5l96 168h276l-202 -307h-345z" />
<glyph unicode="&#x148;" d="M131 0v1055h340v-92l-4 -66h4q45 76 127.5 129t208.5 53q83 0 149.5 -20.5t119.5 -65t81.5 -123t28.5 -186.5v-684h-355v618q0 73 -28.5 106.5t-87.5 33.5q-80 0 -132.5 -40.5t-76.5 -111.5q-21 -62 -21 -139v-467h-354zM291 1464h276l97 -168h4l96 168h276l-202 -307 h-344z" />
<glyph unicode="&#x149;" d="M-78 1135q41 118 41 190q0 68 -24 139h278q14 -60 14 -118q0 -97 -57 -211h-252zM131 0v1055h340v-92l-4 -66h4q45 76 127.5 129t208.5 53q83 0 149.5 -20.5t119.5 -65t81.5 -123t28.5 -186.5v-684h-355v618q0 73 -28.5 106.5t-87.5 33.5q-80 0 -132.5 -40.5 t-76.5 -111.5q-21 -62 -21 -139v-467h-354z" />
<glyph unicode="&#x14a;" horiz-adv-x="1581" d="M172 0v1464h363l405 -684q25 -43 56 -105.5t49 -103.5l18 -41h4q-16 158 -16 250v684h358v-1327q0 -112 -25.5 -202t-71.5 -149.5t-103 -101t-128 -63.5t-137 -31.5t-139 -9.5v324q55 0 132.5 32t98.5 84l-395 662q-25 43 -56 105.5t-49 103.5l-18 41h-4q16 -158 16 -250 v-682h-358z" />
<glyph unicode="&#x14b;" d="M131 0v1055h340v-133l-2 -25h4q109 182 334 182q83 0 149.5 -20.5t119.5 -65t81.5 -123t28.5 -186.5v-711q0 -73 -19 -133.5t-50 -101t-75 -71t-87.5 -48t-94.5 -28t-90.5 -14t-79.5 -3.5q-25 0 -48.5 1.5t-34.5 2.5l-11 2v295q18 -2 45 -2q32 0 60 5t60 17.5t51 41.5 t19 71v610q0 73 -28.5 106.5t-87.5 33.5q-80 0 -132.5 -40.5t-76.5 -111.5q-21 -62 -21 -139v-467h-354z" />
<glyph unicode="&#x14c;" horiz-adv-x="1675" d="M72 741q0 155 58 293.5t158.5 238.5t243.5 158t306 58t306 -58t243.5 -158t158.5 -238.5t58 -293.5q0 -213 -98.5 -388t-274.5 -276.5t-393 -101.5t-393 101.5t-274.5 276.5t-98.5 388zM442 741q0 -186 115.5 -312t280.5 -126t280 126t115 312q0 179 -115 299.5 t-280 120.5q-166 0 -281 -120.5t-115 -299.5zM557 1602v229h563v-229h-563z" />
<glyph unicode="&#x14d;" d="M53 524q0 122 47 226.5t127 176t189.5 112t232.5 40.5q167 0 303 -68.5t216.5 -196.5t80.5 -290q0 -161 -80.5 -287.5t-216 -194t-301.5 -67.5t-301.5 67.5t-216 194t-80.5 287.5zM371 1200v230h563v-230h-563zM412 524q0 -115 69.5 -184.5t169.5 -69.5t170 69.5 t70 184.5q0 117 -70 188.5t-170 71.5t-169.5 -71.5t-69.5 -188.5z" />
<glyph unicode="&#x14e;" horiz-adv-x="1675" d="M72 741q0 155 58 293.5t158.5 238.5t243.5 158t306 58t306 -58t243.5 -158t158.5 -238.5t58 -293.5q0 -213 -98.5 -388t-274.5 -276.5t-393 -101.5t-393 101.5t-274.5 276.5t-98.5 388zM442 741q0 -186 115.5 -312t280.5 -126t280 126t115 312q0 179 -115 299.5 t-280 120.5q-166 0 -281 -120.5t-115 -299.5zM481 1845v21h240v-23q0 -57 35.5 -88t81.5 -31t81 31t35 88v23h240v-21q0 -137 -103.5 -217t-252.5 -80q-150 0 -253.5 80t-103.5 217z" />
<glyph unicode="&#x14f;" d="M53 524q0 122 47 226.5t127 176t189.5 112t232.5 40.5q167 0 303 -68.5t216.5 -196.5t80.5 -290q0 -161 -80.5 -287.5t-216 -194t-301.5 -67.5t-301.5 67.5t-216 194t-80.5 287.5zM295 1444v20h240v-22q0 -57 35 -88t81 -31t81.5 31t35.5 88v22h240v-20 q0 -137 -103.5 -217t-253.5 -80q-149 0 -252.5 80t-103.5 217zM412 524q0 -115 69.5 -184.5t169.5 -69.5t170 69.5t70 184.5q0 117 -70 188.5t-170 71.5t-169.5 -71.5t-69.5 -188.5z" />
<glyph unicode="&#x150;" horiz-adv-x="1675" d="M72 741q0 155 58 293.5t158.5 238.5t243.5 158t306 58t306 -58t243.5 -158t158.5 -238.5t58 -293.5q0 -213 -98.5 -388t-274.5 -276.5t-393 -101.5t-393 101.5t-274.5 276.5t-98.5 388zM442 741q0 -186 115.5 -312t280.5 -126t280 126t115 312q0 179 -115 299.5 t-280 120.5q-166 0 -281 -120.5t-115 -299.5zM465 1559l156 307h284l-162 -307h-278zM891 1559l166 307h334l-242 -307h-258z" />
<glyph unicode="&#x151;" d="M53 524q0 122 47 226.5t127 176t189.5 112t232.5 40.5q167 0 303 -68.5t216.5 -196.5t80.5 -290q0 -161 -80.5 -287.5t-216 -194t-301.5 -67.5t-301.5 67.5t-216 194t-80.5 287.5zM279 1157l155 307h285l-162 -307h-278zM412 524q0 -115 69.5 -184.5t169.5 -69.5 t170 69.5t70 184.5q0 117 -70 188.5t-170 71.5t-169.5 -71.5t-69.5 -188.5zM705 1157l165 307h334l-241 -307h-258z" />
<glyph unicode="&#x152;" horiz-adv-x="2031" d="M66 735q0 206 106 378t286.5 270t393.5 98q76 0 153.5 -8.5t116.5 -8.5h795v-307h-559v-266h446v-307h-446v-277h590v-307h-826q-39 0 -116.5 -8t-153.5 -8q-213 0 -393.5 99.5t-286.5 272.5t-106 379zM436 735q0 -185 121 -315.5t295 -130.5q40 0 77 3.5t53 7.5l17 3 v858q-57 15 -147 15q-174 0 -295 -128.5t-121 -312.5z" />
<glyph unicode="&#x153;" horiz-adv-x="1986" d="M53 524q0 162 78.5 290t211 196.5t294.5 68.5q140 0 232.5 -42t174.5 -122h5q73 80 160.5 122t228.5 42q152 0 263.5 -66.5t167.5 -181t56 -262.5l-8 -110h-664q20 -89 88 -139t156 -50q68 0 140.5 27t111.5 53l39 27l131 -248q-7 -6 -20 -16.5t-57.5 -37t-93.5 -47 t-125 -37t-155 -16.5q-150 0 -242.5 45.5t-168.5 129.5h-4q-54 -55 -105 -90t-131 -60t-178 -25q-163 0 -296 67.5t-211.5 194t-78.5 287.5zM410 524q0 -115 69.5 -184.5t169.5 -69.5t170 69.5t70 184.5q0 117 -70 188.5t-170 71.5t-169.5 -71.5t-69.5 -188.5zM1260 662h309 q-2 59 -39 105t-96 46q-74 0 -116.5 -42.5t-57.5 -108.5z" />
<glyph unicode="&#x154;" horiz-adv-x="1402" d="M172 0v1464h510q199 0 285 -34q127 -48 198.5 -158.5t71.5 -267.5q0 -124 -57.5 -235.5t-161.5 -164.5v-4q20 -27 55 -88l285 -512h-400l-260 494h-168v-494h-358zM520 1559l166 307h350l-241 -307h-275zM530 801h156q87 0 136.5 46.5t49.5 133.5q0 90 -46.5 133 t-174.5 43h-121v-356z" />
<glyph unicode="&#x155;" horiz-adv-x="880" d="M131 0v1055h340v-178l-4 -66h4q35 111 128 186.5t208 75.5l41 -4v-348q-29 6 -72 6q-37 0 -72 -7t-75.5 -25t-73.5 -57t-51 -95q-19 -62 -19 -144v-399h-354zM377 1155l166 307h350l-242 -307h-274z" />
<glyph unicode="&#x156;" horiz-adv-x="1402" d="M172 0v1464h510q199 0 285 -34q127 -48 198.5 -158.5t71.5 -267.5q0 -124 -57.5 -235.5t-161.5 -164.5v-4q20 -27 55 -88l285 -512h-400l-260 494h-168v-494h-358zM530 801h156q87 0 136.5 46.5t49.5 133.5q0 90 -46.5 133t-174.5 43h-121v-356zM549 -430q41 118 41 190 q0 66 -25 140h279q14 -60 14 -119q0 -97 -57 -211h-252z" />
<glyph unicode="&#x157;" horiz-adv-x="880" d="M131 0v1055h340v-178l-4 -66h4q35 111 128 186.5t208 75.5l41 -4v-348q-29 6 -72 6q-37 0 -72 -7t-75.5 -25t-73.5 -57t-51 -95q-19 -62 -19 -144v-399h-354zM147 -430q41 118 41 190q0 69 -24 140h278q15 -64 15 -119q0 -95 -58 -211h-252z" />
<glyph unicode="&#x158;" horiz-adv-x="1402" d="M172 0v1464h510q199 0 285 -34q127 -48 198.5 -158.5t71.5 -267.5q0 -124 -57.5 -235.5t-161.5 -164.5v-4q20 -27 55 -88l285 -512h-400l-260 494h-168v-494h-358zM293 1866h276l97 -168h4l96 168h276l-202 -307h-344zM530 801h156q87 0 136.5 46.5t49.5 133.5 q0 90 -46.5 133t-174.5 43h-121v-356z" />
<glyph unicode="&#x159;" horiz-adv-x="880" d="M131 0v1055h340v-178l-4 -66h4q35 111 128 186.5t208 75.5l41 -4v-348q-29 6 -72 6q-37 0 -72 -7t-75.5 -25t-73.5 -57t-51 -95q-19 -62 -19 -144v-399h-354zM150 1462h276l96 -168h4l97 168h276l-203 -307h-344z" />
<glyph unicode="&#x15a;" horiz-adv-x="1187" d="M63 184l189 273q7 -6 19 -16.5t50.5 -36.5t78 -46t95 -36.5t107.5 -16.5q64 0 109 28t45 89q0 35 -36.5 65t-94.5 55.5t-128.5 53.5t-141 67t-128.5 87.5t-94.5 123t-36.5 166.5q0 199 148 324t370 125q88 0 169 -17t133.5 -41.5t92.5 -49t58 -41.5l18 -17l-151 -293 q-6 5 -17 14t-46 31t-71 39t-88.5 31t-101.5 14q-63 0 -109 -29t-46 -86q0 -37 36.5 -67t94.5 -54.5t128 -51t140.5 -64t128.5 -85t94.5 -123t36.5 -169.5q0 -92 -35 -174t-99 -145t-163 -99.5t-219 -36.5q-96 0 -186.5 21.5t-151 52.5t-107.5 61.5t-69 51.5zM453 1559 l165 307h351l-242 -307h-274z" />
<glyph unicode="&#x15b;" horiz-adv-x="964" d="M49 131l152 238q5 -4 13.5 -11.5t37 -26t58 -32.5t73 -25.5t86.5 -11.5q44 0 74 12t30 37q0 16 -21 31.5t-56 28.5t-79 31t-90.5 37.5t-90.5 50t-79 66.5t-56 88t-21 114q0 146 123 233.5t311 87.5q69 0 132.5 -12.5t105 -30.5t73 -35.5t45.5 -30.5l15 -12l-121 -251 l-12 9t-33.5 21t-53 26t-69 20.5t-82.5 9.5q-44 0 -74 -13t-30 -39q0 -14 21 -27.5t56 -25.5t79 -29t90.5 -36t90.5 -49t79 -65t56 -87t21 -113q0 -141 -117.5 -237.5t-314.5 -96.5q-74 0 -144.5 16t-118.5 39t-85.5 46t-55.5 39zM332 1157l166 307h350l-242 -307h-274z" />
<glyph unicode="&#x15c;" horiz-adv-x="1187" d="M63 184l189 273q7 -6 19 -16.5t50.5 -36.5t78 -46t95 -36.5t107.5 -16.5q64 0 109 28t45 89q0 35 -36.5 65t-94.5 55.5t-128.5 53.5t-141 67t-128.5 87.5t-94.5 123t-36.5 166.5q0 199 148 324t370 125q88 0 169 -17t133.5 -41.5t92.5 -49t58 -41.5l18 -17l-151 -293 q-6 5 -17 14t-46 31t-71 39t-88.5 31t-101.5 14q-63 0 -109 -29t-46 -86q0 -37 36.5 -67t94.5 -54.5t128 -51t140.5 -64t128.5 -85t94.5 -123t36.5 -169.5q0 -92 -35 -174t-99 -145t-163 -99.5t-219 -36.5q-96 0 -186.5 21.5t-151 52.5t-107.5 61.5t-69 51.5zM225 1559 l203 307h344l203 -307h-277l-96 167h-4l-96 -167h-277z" />
<glyph unicode="&#x15d;" horiz-adv-x="964" d="M49 131l152 238q5 -4 13.5 -11.5t37 -26t58 -32.5t73 -25.5t86.5 -11.5q44 0 74 12t30 37q0 16 -21 31.5t-56 28.5t-79 31t-90.5 37.5t-90.5 50t-79 66.5t-56 88t-21 114q0 146 123 233.5t311 87.5q69 0 132.5 -12.5t105 -30.5t73 -35.5t45.5 -30.5l15 -12l-121 -251 l-12 9t-33.5 21t-53 26t-69 20.5t-82.5 9.5q-44 0 -74 -13t-30 -39q0 -14 21 -27.5t56 -25.5t79 -29t90.5 -36t90.5 -49t79 -65t56 -87t21 -113q0 -141 -117.5 -237.5t-314.5 -96.5q-74 0 -144.5 16t-118.5 39t-85.5 46t-55.5 39zM106 1157l203 307h344l203 -307h-276 l-97 168h-4l-96 -168h-277z" />
<glyph unicode="&#x15e;" horiz-adv-x="1187" d="M63 184l189 273q7 -6 19 -16.5t50.5 -36.5t78 -46t95 -36.5t107.5 -16.5q64 0 109 28t45 89q0 35 -36.5 65t-94.5 55.5t-128.5 53.5t-141 67t-128.5 87.5t-94.5 123t-36.5 166.5q0 199 148 324t370 125q88 0 169 -17t133.5 -41.5t92.5 -49t58 -41.5l18 -17l-151 -293 q-6 5 -17 14t-46 31t-71 39t-88.5 31t-101.5 14q-63 0 -109 -29t-46 -86q0 -37 36.5 -67t94.5 -54.5t128 -51t140.5 -64t128.5 -85t94.5 -123t36.5 -169.5q0 -173 -115.5 -299t-316.5 -149l-12 -56q67 -7 110 -47t43 -117q0 -101 -69 -146.5t-170 -45.5q-35 0 -71.5 4.5 t-55.5 9.5l-19 4v179q47 -21 92 -21q78 0 78 47q0 43 -84 43l-53 -4l45 148q-82 8 -159 32t-128 52.5t-90.5 56t-57.5 45.5z" />
<glyph unicode="&#x15f;" horiz-adv-x="964" d="M49 131l152 238q5 -4 13.5 -11.5t37 -26t58 -32.5t73 -25.5t86.5 -11.5q44 0 74 12t30 37q0 16 -21 31.5t-56 28.5t-79 31t-90.5 37.5t-90.5 50t-79 66.5t-56 88t-21 114q0 146 123 233.5t311 87.5q69 0 132.5 -12.5t105 -30.5t73 -35.5t45.5 -30.5l15 -12l-121 -251 l-12 9t-33.5 21t-53 26t-69 20.5t-82.5 9.5q-44 0 -74 -13t-30 -39q0 -14 21 -27.5t56 -25.5t79 -29t90.5 -36t90.5 -49t79 -65t56 -87t21 -113q0 -127 -96 -219t-262 -110l-13 -54q68 -7 111 -47t43 -117q0 -101 -69.5 -146.5t-170.5 -45.5q-35 0 -71 4.5t-55 9.5l-19 4 v179q47 -21 92 -21q78 0 78 47q0 43 -84 43l-53 -4l47 150q-59 8 -114.5 26.5t-93 39t-67 39.5t-43.5 31z" />
<glyph unicode="&#x160;" horiz-adv-x="1187" d="M63 184l189 273q7 -6 19 -16.5t50.5 -36.5t78 -46t95 -36.5t107.5 -16.5q64 0 109 28t45 89q0 35 -36.5 65t-94.5 55.5t-128.5 53.5t-141 67t-128.5 87.5t-94.5 123t-36.5 166.5q0 199 148 324t370 125q88 0 169 -17t133.5 -41.5t92.5 -49t58 -41.5l18 -17l-151 -293 q-6 5 -17 14t-46 31t-71 39t-88.5 31t-101.5 14q-63 0 -109 -29t-46 -86q0 -37 36.5 -67t94.5 -54.5t128 -51t140.5 -64t128.5 -85t94.5 -123t36.5 -169.5q0 -92 -35 -174t-99 -145t-163 -99.5t-219 -36.5q-96 0 -186.5 21.5t-151 52.5t-107.5 61.5t-69 51.5zM225 1866h277 l96 -168h4l96 168h277l-203 -307h-344z" />
<glyph unicode="&#x161;" horiz-adv-x="964" d="M49 131l152 238q5 -4 13.5 -11.5t37 -26t58 -32.5t73 -25.5t86.5 -11.5q44 0 74 12t30 37q0 16 -21 31.5t-56 28.5t-79 31t-90.5 37.5t-90.5 50t-79 66.5t-56 88t-21 114q0 146 123 233.5t311 87.5q69 0 132.5 -12.5t105 -30.5t73 -35.5t45.5 -30.5l15 -12l-121 -251 l-12 9t-33.5 21t-53 26t-69 20.5t-82.5 9.5q-44 0 -74 -13t-30 -39q0 -14 21 -27.5t56 -25.5t79 -29t90.5 -36t90.5 -49t79 -65t56 -87t21 -113q0 -141 -117.5 -237.5t-314.5 -96.5q-74 0 -144.5 16t-118.5 39t-85.5 46t-55.5 39zM106 1464h277l96 -168h4l97 168h276 l-203 -307h-344z" />
<glyph unicode="&#x162;" horiz-adv-x="1263" d="M8 1157v307h1247v-307h-444v-1157h-96l-19 -74q68 -7 111 -47t43 -117q0 -101 -69.5 -146.5t-170.5 -45.5q-35 0 -71 4.5t-55 9.5l-19 4v179q47 -21 92 -21q78 0 78 47q0 43 -84 43l-53 -4l53 168h-98v1157h-445z" />
<glyph unicode="&#x163;" horiz-adv-x="851" d="M51 760v276h146v303h344v-303h221v-276h-221v-324q0 -42 19 -71t50.5 -41.5t59.5 -17.5t59 -5l47 2v-307q-39 -6 -96 -6q-68 0 -127 10l-16 -74q67 -7 110 -47t43 -117q0 -101 -69 -146.5t-170 -45.5q-35 0 -71.5 4.5t-55.5 9.5l-19 4v179q47 -21 92 -21q78 0 78 47 q0 43 -84 43l-53 -4l65 207q-217 93 -217 350v371h-135z" />
<glyph unicode="&#x164;" horiz-adv-x="1263" d="M8 1157v307h1247v-307h-444v-1157h-358v1157h-445zM256 1866h276l97 -168h4l96 168h277l-203 -307h-344z" />
<glyph unicode="&#x165;" horiz-adv-x="849" d="M49 760v276h146v303h344v-303h221v-276h-221v-324q0 -42 19 -71t50.5 -41.5t59.5 -17.5t59 -5l47 2v-307q-39 -6 -96 -6q-41 0 -80.5 3.5t-90.5 14t-94.5 28t-86.5 48t-73.5 71t-49.5 101t-19 133.5v371h-135zM608 1155q41 112 41 178t-24 131h278q15 -62 15 -110 q0 -89 -58 -199h-252z" />
<glyph unicode="&#x166;" horiz-adv-x="1310" d="M31 1157v307h1247v-307h-444v-340h303v-260h-303v-557h-359v557h-291v260h291v340h-444z" />
<glyph unicode="&#x167;" horiz-adv-x="897" d="M61 428v219h158v113h-135v276h145v303h344v-303h222v-276h-222v-113h199v-219h-199v-10q0 -35 19 -59.5t50.5 -36t60.5 -16.5t59 -5l47 2v-307q-39 -6 -96 -6q-41 0 -80.5 3.5t-90.5 14t-94.5 28t-86.5 48t-73.5 71t-49.5 101t-19 133.5v39h-158z" />
<glyph unicode="&#x168;" horiz-adv-x="1527" d="M152 539v925h358v-925q0 -114 68 -175t186 -61t186 61t68 175v925h358v-925q0 -164 -75 -292t-214 -200t-321 -72q-277 0 -445.5 157t-168.5 407zM352 1559q0 313 262 313q38 0 71.5 -12.5t57 -31t44 -36.5t42.5 -30.5t43 -12.5q76 0 76 117h230q0 -314 -263 -314 q-38 0 -71.5 12.5t-57 31t-44 36.5t-42.5 30.5t-43 12.5q-75 0 -75 -116h-230z" />
<glyph unicode="&#x169;" horiz-adv-x="1292" d="M117 371v684h354v-619q0 -139 113 -139q109 0 166 82.5t57 208.5v467h354v-1055h-340v92l4 66h-4q-42 -84 -132 -133.5t-197 -49.5q-82 0 -147.5 20.5t-118 65.5t-81 123.5t-28.5 186.5zM227 1157q0 313 262 313q46 0 87 -19t65 -42t53 -42t54 -19q75 0 75 116h230 q0 -313 -262 -313q-46 0 -87 19t-65 42.5t-53 42.5t-54 19q-75 0 -75 -117h-230z" />
<glyph unicode="&#x16a;" horiz-adv-x="1527" d="M152 539v925h358v-925q0 -114 68 -175t186 -61t186 61t68 175v925h358v-925q0 -164 -75 -292t-214 -200t-321 -72q-277 0 -445.5 157t-168.5 407zM483 1602v229h564v-229h-564z" />
<glyph unicode="&#x16b;" horiz-adv-x="1292" d="M117 371v684h354v-619q0 -139 113 -139q109 0 166 82.5t57 208.5v467h354v-1055h-340v92l4 66h-4q-42 -84 -132 -133.5t-197 -49.5q-82 0 -147.5 20.5t-118 65.5t-81 123.5t-28.5 186.5zM358 1200v230h564v-230h-564z" />
<glyph unicode="&#x16c;" horiz-adv-x="1527" d="M152 539v925h358v-925q0 -114 68 -175t186 -61t186 61t68 175v925h358v-925q0 -164 -75 -292t-214 -200t-321 -72q-277 0 -445.5 157t-168.5 407zM408 1845v21h239v-23q0 -57 35.5 -88t81.5 -31t81.5 31t35.5 88v23h239v-21q0 -137 -103.5 -217t-252.5 -80t-252.5 80 t-103.5 217z" />
<glyph unicode="&#x16d;" horiz-adv-x="1292" d="M117 371v684h354v-619q0 -139 113 -139q109 0 166 82.5t57 208.5v467h354v-1055h-340v92l4 66h-4q-42 -84 -132 -133.5t-197 -49.5q-82 0 -147.5 20.5t-118 65.5t-81 123.5t-28.5 186.5zM283 1444v20h239v-22q0 -57 35.5 -88t81.5 -31t81.5 31t35.5 88v22h239v-20 q0 -137 -103.5 -217t-252.5 -80t-252.5 80t-103.5 217z" />
<glyph unicode="&#x16e;" horiz-adv-x="1527" d="M152 539v925h358v-925q0 -114 68 -175t186 -61t186 61t68 175v925h358v-925q0 -164 -75 -292t-214 -200t-321 -72q-277 0 -445.5 157t-168.5 407zM541 1704q0 85 66.5 130.5t156.5 45.5t157.5 -45.5t67.5 -130.5q0 -57 -34.5 -98t-83.5 -58.5t-107 -17.5q-91 0 -157 44.5 t-66 129.5zM694 1704q0 -32 19 -52t51 -20t52 20t20 52q0 34 -20 54t-52 20q-31 0 -50.5 -20.5t-19.5 -53.5z" />
<glyph unicode="&#x16f;" horiz-adv-x="1292" d="M117 371v684h354v-619q0 -139 113 -139q109 0 166 82.5t57 208.5v467h354v-1055h-340v92l4 66h-4q-42 -84 -132 -133.5t-197 -49.5q-82 0 -147.5 20.5t-118 65.5t-81 123.5t-28.5 186.5zM416 1303q0 85 66.5 130.5t156.5 45.5t157.5 -45.5t67.5 -130.5t-67 -130t-158 -45 q-90 0 -156.5 45t-66.5 130zM569 1303q0 -32 19 -52t51 -20t52 20t20 52q0 33 -19.5 53t-52.5 20q-31 0 -50.5 -20t-19.5 -53z" />
<glyph unicode="&#x170;" horiz-adv-x="1527" d="M152 539v925h358v-925q0 -114 68 -175t186 -61t186 61t68 175v925h358v-925q0 -164 -75 -292t-214 -200t-321 -72q-277 0 -445.5 157t-168.5 407zM391 1559l156 307h284l-161 -307h-279zM817 1559l166 307h334l-242 -307h-258z" />
<glyph unicode="&#x171;" horiz-adv-x="1292" d="M117 371v684h354v-619q0 -139 113 -139q109 0 166 82.5t57 208.5v467h354v-1055h-340v92l4 66h-4q-42 -84 -132 -133.5t-197 -49.5q-82 0 -147.5 20.5t-118 65.5t-81 123.5t-28.5 186.5zM266 1157l156 307h285l-162 -307h-279zM692 1157l166 307h334l-242 -307h-258z" />
<glyph unicode="&#x172;" horiz-adv-x="1527" d="M152 539v925h358v-925q0 -114 68 -175t186 -61t186 61t68 175v925h358v-925q0 -57 -9 -108t-22.5 -90.5t-37 -78t-44 -64t-52.5 -55.5t-53 -47t-54 -43l-38 -28.5t-37.5 -28.5t-31 -25t-28.5 -25.5t-20 -23t-15 -25t-4 -22.5q0 -20 19.5 -32.5t38.5 -15.5l20 -3l-86 -254 q-6 1 -15.5 2t-38 7.5t-54.5 15t-57.5 25t-54 36.5t-38 50.5t-15.5 66.5q0 108 105 198v4q-273 4 -437.5 160t-164.5 404z" />
<glyph unicode="&#x173;" horiz-adv-x="1292" d="M117 371v684h354v-619q0 -139 113 -139q109 0 166 82.5t57 208.5v467h354v-1055q-88 -83 -88 -125q0 -20 19.5 -32.5t39.5 -15.5l19 -3l-86 -254q-6 1 -15.5 2t-38 7.5t-54 15t-57 25t-54 36.5t-38 50.5t-15.5 66.5q0 110 135 223v4h-107v92l4 66h-4q-42 -84 -132 -133.5 t-197 -49.5q-82 0 -147.5 20.5t-118 65.5t-81 123.5t-28.5 186.5z" />
<glyph unicode="&#x174;" horiz-adv-x="2043" d="M43 1464h377l184 -915q8 -40 12.5 -78.5t5.5 -56.5l1 -19h4q1 64 24 154l226 915h288l219 -915q10 -40 16.5 -78.5t7.5 -56.5l1 -19h4q1 64 19 154l200 915h371l-371 -1464h-399l-184 739q-10 42 -17.5 85t-9.5 65l-2 22h-4q-6 -78 -29 -172l-184 -739h-404zM641 1559 l203 307h344l203 -307h-277l-96 167h-4l-96 -167h-277z" />
<glyph unicode="&#x175;" horiz-adv-x="1720" d="M27 1055h372l131 -623q5 -25 8.5 -52.5t3.5 -42.5l1 -15h4q4 53 18 110l146 623h303l145 -623q6 -25 10.5 -52.5t5.5 -42.5l1 -15h4q2 53 14 110l131 623h369l-295 -1055h-395l-119 487q-6 25 -11.5 53.5t-7.5 43.5l-2 16h-4q-6 -56 -20 -113l-119 -487h-399zM487 1157 l203 307h344l203 -307h-276l-97 168h-4l-96 -168h-277z" />
<glyph unicode="&#x176;" horiz-adv-x="1308" d="M-8 1464h407l166 -352q21 -44 43 -97t34 -83l11 -31h4q41 111 88 211l164 352h408l-483 -864v-600h-359v600zM281 1559l202 307h344l203 -307h-276l-97 167h-4l-96 -167h-276z" />
<glyph unicode="&#x177;" horiz-adv-x="1118" d="M-35 1055h402l155 -486q8 -25 18 -66t16 -69l5 -28h4q21 100 35 157l133 492h387l-432 -1168q-62 -165 -181 -241t-259 -76q-62 0 -123.5 18.5t-92.5 37.5l-30 18l113 260q57 -39 108 -39q126 0 170 106l21 49zM188 1155l203 307h344l203 -307h-276l-97 168h-4l-96 -168 h-277z" />
<glyph unicode="&#x178;" horiz-adv-x="1308" d="M-8 1464h407l166 -352q21 -44 43 -97t34 -83l11 -31h4q41 111 88 211l164 352h408l-483 -864v-600h-359v600zM313 1579v287h258v-287h-258zM741 1579v287h258v-287h-258z" />
<glyph unicode="&#x179;" horiz-adv-x="1306" d="M78 0v225l565 801q28 40 56.5 73t42.5 47l14 13v4q-47 -6 -113 -6h-539v307h1106v-221l-567 -805q-28 -40 -56.5 -73.5t-42.5 -46.5l-14 -13v-4q47 6 113 6h578v-307h-1143zM526 1559l166 307h350l-241 -307h-275z" />
<glyph unicode="&#x17a;" horiz-adv-x="1112" d="M70 0v176l387 486q24 29 47 53t34 33l11 10v4q-26 -4 -92 -4h-371v297h942v-178l-385 -486q-23 -28 -46.5 -52t-35.5 -34l-12 -10v-4q26 6 94 6h395v-297h-968zM397 1157l166 307h350l-241 -307h-275z" />
<glyph unicode="&#x17b;" horiz-adv-x="1306" d="M78 0v225l565 801q28 40 56.5 73t42.5 47l14 13v4q-47 -6 -113 -6h-539v307h1106v-221l-567 -805q-28 -40 -56.5 -73.5t-42.5 -46.5l-14 -13v-4q47 6 113 6h578v-307h-1143zM528 1595v271h293v-271h-293z" />
<glyph unicode="&#x17c;" horiz-adv-x="1112" d="M70 0v176l387 486q24 29 47 53t34 33l11 10v4q-26 -4 -92 -4h-371v297h942v-178l-385 -486q-23 -28 -46.5 -52t-35.5 -34l-12 -10v-4q26 6 94 6h395v-297h-968zM399 1194v270h293v-270h-293z" />
<glyph unicode="&#x17d;" horiz-adv-x="1306" d="M78 0v225l565 801q28 40 56.5 73t42.5 47l14 13v4q-47 -6 -113 -6h-539v307h1106v-221l-567 -805q-28 -40 -56.5 -73.5t-42.5 -46.5l-14 -13v-4q47 6 113 6h578v-307h-1143zM299 1866h276l97 -168h4l96 168h277l-203 -307h-344z" />
<glyph unicode="&#x17e;" horiz-adv-x="1112" d="M70 0v176l387 486q24 29 47 53t34 33l11 10v4q-26 -4 -92 -4h-371v297h942v-178l-385 -486q-23 -28 -46.5 -52t-35.5 -34l-12 -10v-4q26 6 94 6h395v-297h-968zM170 1464h276l97 -168h4l96 168h277l-203 -307h-344z" />
<glyph unicode="&#x17f;" horiz-adv-x="681" d="M68 760v276h129v43q0 99 35 173.5t85.5 115t120 65.5t126 32.5t116.5 7.5q28 0 54.5 -1.5t39.5 -3.5l12 -2v-299q-24 4 -57 4q-30 0 -58 -4.5t-56.5 -15.5t-46 -33.5t-17.5 -54.5v-1063h-354v760h-129z" />
<glyph unicode="&#x192;" horiz-adv-x="1206" d="M47 55q110 -14 143 -14q30 0 58 5t58.5 17.5t50.5 40.5t24 68l33 373h-131v276h153l19 185q7 72 30 130.5t55.5 98.5t76 70.5t87 48t93.5 28t90 14t82 3.5q28 0 73 -4.5t76 -8.5l31 -4v-299q-123 15 -156 15q-31 0 -59 -5t-58.5 -17.5t-50.5 -40.5t-24 -68l-15 -146h197 v-276h-221l-35 -412q-6 -72 -29.5 -130.5t-55.5 -98.5t-76 -70.5t-87.5 -48t-93.5 -28t-89.5 -14t-80.5 -3.5q-28 0 -70 4t-70 8l-28 4v299z" />
<glyph unicode="&#x218;" horiz-adv-x="1187" d="M63 184l189 273q7 -6 19 -16.5t50.5 -36.5t78 -46t95 -36.5t107.5 -16.5q64 0 109 28t45 89q0 35 -36.5 65t-94.5 55.5t-128.5 53.5t-141 67t-128.5 87.5t-94.5 123t-36.5 166.5q0 199 148 324t370 125q88 0 169 -17t133.5 -41.5t92.5 -49t58 -41.5l18 -17l-151 -293 q-6 5 -17 14t-46 31t-71 39t-88.5 31t-101.5 14q-63 0 -109 -29t-46 -86q0 -37 36.5 -67t94.5 -54.5t128 -51t140.5 -64t128.5 -85t94.5 -123t36.5 -169.5q0 -92 -35 -174t-99 -145t-163 -99.5t-219 -36.5q-96 0 -186.5 21.5t-151 52.5t-107.5 61.5t-69 51.5zM420 -430 q41 118 41 190q0 66 -25 140h279q14 -60 14 -119q0 -97 -57 -211h-252z" />
<glyph unicode="&#x219;" horiz-adv-x="964" d="M49 131l152 238q5 -4 13.5 -11.5t37 -26t58 -32.5t73 -25.5t86.5 -11.5q44 0 74 12t30 37q0 16 -21 31.5t-56 28.5t-79 31t-90.5 37.5t-90.5 50t-79 66.5t-56 88t-21 114q0 146 123 233.5t311 87.5q69 0 132.5 -12.5t105 -30.5t73 -35.5t45.5 -30.5l15 -12l-121 -251 l-12 9t-33.5 21t-53 26t-69 20.5t-82.5 9.5q-44 0 -74 -13t-30 -39q0 -14 21 -27.5t56 -25.5t79 -29t90.5 -36t90.5 -49t79 -65t56 -87t21 -113q0 -141 -117.5 -237.5t-314.5 -96.5q-74 0 -144.5 16t-118.5 39t-85.5 46t-55.5 39zM309 -430q41 118 41 190q0 69 -24 140h278 q14 -60 14 -119q0 -97 -57 -211h-252z" />
<glyph unicode="&#x21a;" horiz-adv-x="1263" d="M8 1157v307h1247v-307h-444v-1157h-358v1157h-445zM457 -430q41 118 41 190q0 66 -25 140h279q14 -60 14 -119q0 -97 -57 -211h-252z" />
<glyph unicode="&#x21b;" horiz-adv-x="849" d="M49 760v276h146v303h344v-303h221v-276h-221v-324q0 -42 19 -71t50.5 -41.5t59.5 -17.5t59 -5l47 2v-307q-39 -6 -96 -6q-41 0 -80.5 3.5t-90.5 14t-94.5 28t-86.5 48t-73.5 71t-49.5 101t-19 133.5v371h-135zM315 -430q41 118 41 190q0 69 -24 140h278q15 -64 15 -119 q0 -95 -58 -211h-252z" />
<glyph unicode="&#x2c6;" horiz-adv-x="995" d="M123 1559l203 307h344l202 -307h-276l-96 167h-4l-97 -167h-276z" />
<glyph unicode="&#x2c7;" horiz-adv-x="995" d="M123 1866h276l97 -168h4l96 168h276l-202 -307h-344z" />
<glyph unicode="&#x2d8;" horiz-adv-x="991" d="M139 1845v21h240v-23q0 -57 35.5 -88t81.5 -31t81 31t35 88v23h240v-21q0 -137 -103.5 -217t-252.5 -80q-150 0 -253.5 80t-103.5 217z" />
<glyph unicode="&#x2d9;" horiz-adv-x="993" d="M350 1595v271h293v-271h-293z" />
<glyph unicode="&#x2da;" horiz-adv-x="993" d="M272 1704q0 85 67 130.5t157 45.5t157.5 -45.5t67.5 -130.5q0 -57 -34.5 -98t-83.5 -58.5t-107 -17.5q-91 0 -157.5 44.5t-66.5 129.5zM426 1704q0 -32 19 -52t51 -20t51.5 20t19.5 52q0 34 -19.5 54t-51.5 20q-31 0 -50.5 -20.5t-19.5 -53.5z" />
<glyph unicode="&#x2db;" horiz-adv-x="995" d="M299 -227q0 46 22 92t53.5 79t62.5 59.5t53 40.5l22 13l184 -28q-13 -11 -32.5 -29.5t-51.5 -59.5t-32 -65q0 -20 19 -32.5t39 -15.5l19 -3l-86 -254q-6 1 -15.5 2t-38 7.5t-54 15t-57 25t-54 36.5t-38 50.5t-15.5 66.5z" />
<glyph unicode="&#x2dc;" horiz-adv-x="993" d="M84 1559q0 313 262 313q38 0 71.5 -12.5t57 -31t44 -36.5t42.5 -30.5t43 -12.5q76 0 76 117h229q0 -314 -262 -314q-38 0 -71.5 12.5t-57 31t-44 36.5t-42.5 30.5t-43 12.5q-76 0 -76 -116h-229z" />
<glyph unicode="&#x2dd;" horiz-adv-x="993" d="M35 1559l155 307h285l-162 -307h-278zM461 1559l166 307h334l-242 -307h-258z" />
<glyph unicode="&#x3bc;" horiz-adv-x="1331" d="M143 -410v1465h355v-619q0 -72 28 -105.5t84 -33.5q109 0 166.5 82.5t57.5 208.5v467h354v-1055h-340v102l4 56h-6q-3 -7 -10.5 -19.5t-35 -44t-61.5 -55.5t-93.5 -44t-127.5 -20q-23 0 -44.5 2t-31.5 5l-10 2h-4q16 -99 16 -181v-213h-301z" />
<glyph unicode="&#x1e9e;" horiz-adv-x="1468" d="M154 0v983q0 217 135 349t358 132h668v-245l-189 -304q-8 -14 -18 -28.5t-16 -22.5l-7 -8v-4l19 -4q87 -20 150.5 -85.5t92.5 -148t29 -168.5q0 -124 -63.5 -227t-172 -161t-237.5 -58h-241v307h215q63 0 97 41t34 98q0 56 -33 96t-98 40h-164v245l108 199q24 44 47 77 t34 45l11 11v4q-18 -6 -92 -6h-172q-56 0 -92.5 -47.5t-36.5 -118.5v-991h-366z" />
<glyph unicode="&#x2000;" horiz-adv-x="940" />
<glyph unicode="&#x2001;" horiz-adv-x="1880" />
<glyph unicode="&#x2002;" horiz-adv-x="940" />
<glyph unicode="&#x2003;" horiz-adv-x="1880" />
<glyph unicode="&#x2004;" horiz-adv-x="626" />
<glyph unicode="&#x2005;" horiz-adv-x="470" />
<glyph unicode="&#x2006;" horiz-adv-x="313" />
<glyph unicode="&#x2007;" horiz-adv-x="313" />
<glyph unicode="&#x2008;" horiz-adv-x="235" />
<glyph unicode="&#x2009;" horiz-adv-x="40" />
<glyph unicode="&#x200a;" horiz-adv-x="104" />
<glyph unicode="&#x2010;" horiz-adv-x="917" d="M137 434v307h643v-307h-643z" />
<glyph unicode="&#x2011;" horiz-adv-x="917" d="M137 434v307h643v-307h-643z" />
<glyph unicode="&#x2012;" horiz-adv-x="917" d="M137 434v307h643v-307h-643z" />
<glyph unicode="&#x2013;" horiz-adv-x="1495" d="M137 455v266h1221v-266h-1221z" />
<glyph unicode="&#x2014;" horiz-adv-x="1904" d="M137 455v266h1630v-266h-1630z" />
<glyph unicode="&#x2018;" horiz-adv-x="530" d="M61 973l183 522h239l-110 -522h-312z" />
<glyph unicode="&#x2019;" horiz-adv-x="516" d="M72 973l110 522h312l-183 -522h-239z" />
<glyph unicode="&#x201a;" horiz-adv-x="544" d="M43 -182l111 522h301l-183 -522h-229z" />
<glyph unicode="&#x201c;" horiz-adv-x="937" d="M61 973l183 522h241l-110 -522h-314zM467 973l182 522h242l-111 -522h-313z" />
<glyph unicode="&#x201d;" horiz-adv-x="923" d="M72 973l110 522h314l-183 -522h-241zM477 973l111 522h313l-182 -522h-242z" />
<glyph unicode="&#x201e;" horiz-adv-x="937" d="M43 -182l111 522h301l-183 -522h-229zM436 -182l111 522h301l-182 -522h-230z" />
<glyph unicode="&#x2020;" horiz-adv-x="1003" d="M66 788v267h266v409h338v-409h268v-267h-268v-890h-338v890h-266z" />
<glyph unicode="&#x2021;" horiz-adv-x="1069" d="M98 307v266h267v215h-267v267h267v409h337v-409h269v-267h-269v-215h269v-266h-269v-409h-337v409h-267z" />
<glyph unicode="&#x2022;" horiz-adv-x="954" d="M96 596q0 158 111.5 269.5t269.5 111.5t269.5 -111.5t111.5 -269.5t-111.5 -269.5t-269.5 -111.5t-269.5 111.5t-111.5 269.5z" />
<glyph unicode="&#x2026;" horiz-adv-x="1888" d="M119 0v336h323v-336h-323zM782 0v336h324v-336h-324zM1446 0v336h323v-336h-323z" />
<glyph unicode="&#x202f;" horiz-adv-x="376" />
<glyph unicode="&#x2030;" horiz-adv-x="2566" d="M59 1135q0 146 108.5 250t262.5 104q153 0 262 -104.5t109 -249.5q0 -147 -108.5 -250t-262.5 -103q-155 0 -263 102.5t-108 250.5zM141 0l1131 1464h311l-1130 -1464h-312zM317 1137q0 -45 33.5 -77t79.5 -32t79.5 32t33.5 77q0 43 -33.5 74.5t-79.5 31.5t-79.5 -31.5 t-33.5 -74.5zM934 328q0 146 108.5 250t262.5 104q153 0 261.5 -104.5t108.5 -249.5q0 -148 -108 -250.5t-262 -102.5q-155 0 -263 102.5t-108 250.5zM1192 330q0 -45 33.5 -77t79.5 -32t79 32t33 77q0 43 -33 74.5t-79 31.5t-79.5 -31.5t-33.5 -74.5zM1757 328 q0 146 108.5 250t262.5 104q153 0 262 -104.5t109 -249.5q0 -147 -108.5 -250t-262.5 -103q-155 0 -263 102.5t-108 250.5zM2015 330q0 -45 33.5 -77t79.5 -32t79.5 32t33.5 77q0 43 -33.5 74.5t-79.5 31.5t-79.5 -31.5t-33.5 -74.5z" />
<glyph unicode="&#x2039;" horiz-adv-x="784" d="M57 578l336 421h324l-336 -421l336 -420h-324z" />
<glyph unicode="&#x203a;" horiz-adv-x="784" d="M68 158l335 420l-335 421h323l336 -421l-336 -420h-323z" />
<glyph unicode="&#x2044;" horiz-adv-x="399" d="M-266 0l688 1464h244l-689 -1464h-243z" />
<glyph unicode="&#x205f;" horiz-adv-x="470" />
<glyph unicode="&#x20ac;" horiz-adv-x="1200" d="M90 377v176h131q-2 16 -2 92h-129v176h162q42 115 123 203t213.5 143.5t298.5 55.5q54 0 106.5 -6.5t78.5 -12.5l26 -6l-76 -276q-65 18 -143 18q-165 0 -252 -119h377l-39 -176h-390q-6 -38 5 -92h372l-32 -176h-271q88 -113 244 -113q43 0 87.5 7t67.5 15l23 7l51 -281 q-100 -37 -235 -37q-122 0 -227.5 31t-183 86.5t-133 127t-87.5 157.5h-166z" />
<glyph unicode="&#x2122;" horiz-adv-x="1980" d="M33 1241v223h835v-223h-286v-692h-258v692h-291zM907 549l72 915h242l149 -358l27 -90h4q14 59 26 90l150 358h242l67 -915h-260l-20 356l2 66h-4l-105 -256h-201l-104 256h-4l2 -66l-25 -356h-260z" />
<glyph unicode="&#x221e;" horiz-adv-x="1087" d="M123 715q0 174 124 297t298 123q175 0 297.5 -122.5t122.5 -297.5q0 -174 -123 -298t-297 -124q-173 0 -297.5 124.5t-124.5 297.5z" />
<glyph unicode="&#x2248;" horiz-adv-x="1290" d="M106 393q166 166 338 166q65 0 124.5 -22.5t97 -49t87 -49t97.5 -22.5q56 0 112 31.5t97 78.5l129 -202q-166 -166 -338 -166q-65 0 -124.5 22.5t-97 49t-87 49t-97.5 22.5q-105 0 -208 -111zM106 862q166 166 338 166q65 0 124.5 -22.5t97 -49t87 -49t97.5 -22.5 q56 0 112 31.5t97 78.5l129 -202q-166 -166 -338 -166q-65 0 -124.5 22.5t-97 49t-87 49t-97.5 22.5q-105 0 -208 -111z" />
<glyph unicode="&#x2260;" horiz-adv-x="1290" d="M127 219v266h350l131 205h-481v266h653l142 222l155 -101l-78 -121h164v-266h-334l-131 -205h465v-266h-635l-139 -219l-160 96l78 123h-180z" />
<glyph unicode="&#x2264;" horiz-adv-x="1290" d="M121 479v219l1032 457v-297l-676 -268v-4l676 -267v-296zM127 -143h1026v-267h-1026v267z" />
<glyph unicode="&#x2265;" horiz-adv-x="1290" d="M137 23v296l676 267v4l-676 268v297l1032 -457v-219zM139 -143h1026v-267h-1026v267z" />
<glyph unicode="&#x25fc;" horiz-adv-x="1054" d="M0 0v1055h1055v-1055h-1055z" />
</font>
</defs>
</svg>
